<svg xmlns="http://www.w3.org/2000/svg" viewBox="0 0 92.17 40.84"><defs><style>.cls-1{fill:#ff2b8b;}</style></defs><title>iconUSer</title><g id="Capa_2" data-name="Capa 2"><g id="PREMIUM"><path class="cls-1" d="M91.86,16C89.91,3.35,76.78,0,70.11,0,64.57,0,55.73,2.36,54.25,2.76H31.43c-.13,0-3.22.07-3.33,4.93a7.61,7.61,0,0,0-4.59,0,4.88,4.88,0,0,0-3.13,4.26,21.11,21.11,0,0,0-3.83-1.41,5.27,5.27,0,0,0-4.42.88A6.7,6.7,0,0,0,10,14.82c-2.5-.91-5-1.28-6.92-.31S.17,16.63,0,18.08A4.63,4.63,0,0,0,1.8,21.84c.84.68,20.62,16.65,28.58,18.64a14.36,14.36,0,0,0,3.4.36c6.51,0,15.6-3.14,22.54-5.55,2.36-.81,4.4-1.52,5.91-1.95,5.89-1.69,16.61-1.8,19.73-1.79h.12a10.18,10.18,0,0,0,7.46-3.37C91.9,25.44,92.68,21.34,91.86,16Zm-67.4-5.5a5.68,5.68,0,0,1,4.24.66c1.54,3.77,5.66,5.33,8.07,5.63H39.3l6.21,3.73a59.27,59.27,0,0,1-6.21,1.6c-2.46-1.61-10-5.93-16-8.84C23.3,12.37,23.45,10.85,24.46,10.51ZM49.2,19.25l-4.07-2.44H54.9C53.28,17.59,51.35,18.44,49.2,19.25ZM14,13.77a2.36,2.36,0,0,1,2-.31c2.79.56,13.13,6.1,18.73,9.37-1.31.13-2.63.21-3.95.21A20.24,20.24,0,0,1,20,20c-.43-.25-.81-.46-1.13-.63s-1.09-.58-1.82-1c-1.27-.73-2.74-1.57-4.29-2.32A4.17,4.17,0,0,1,14,13.77Zm73.3,12.46a7.22,7.22,0,0,1-5.19,2.32H82c-4.16,0-14.46.16-20.55,1.9-1.59.46-3.67,1.18-6.08,2C47.88,35,36.61,38.94,31.1,37.56c-7.31-1.82-27.22-17.89-27.42-18S3,18.75,3,18.38s.41-.71,1.38-1.19a3,3,0,0,1,1.31-.26c2.84,0,7.46,2.63,9.86,4,.79.45,1.46.84,2,1.09.28.14.61.33,1,.54A22.93,22.93,0,0,0,30.74,26c15.7,0,30.34-9.07,31-9.45a1.51,1.51,0,0,0-.8-2.78H37.06c-.76-.11-6-1.06-6-5.86,0-1.62.39-2.09.5-2.19H54.45a1.84,1.84,0,0,0,.41,0C55,5.68,64.59,3,70.11,3c5.78,0,17.14,2.81,18.78,13.46C89.57,20.89,89,24.18,87.27,26.23Z"/></g></g></svg>