<svg xmlns="http://www.w3.org/2000/svg" viewBox="0 0 76.62 77.09"><defs><style>.cls-1{fill:#ff2b8b;}</style></defs><title>iconMBSR</title><g id="Capa_2" data-name="Capa 2"><g id="PREMIUM"><path class="cls-1" d="M76.51,38.06a1.5,1.5,0,0,0-1.38-.93l-13.07,0V23.93a1.49,1.49,0,0,0-.43-1.06L39.33.44A1.5,1.5,0,0,0,36.77,1.5V14.56H23.58a1.47,1.47,0,0,0-1.07.45L.43,37.42A1.5,1.5,0,0,0,1.5,40l12.83,0v13a1.52,1.52,0,0,0,.43,1.06l3.8,3.82a1.31,1.31,0,0,0,.17.24,1.19,1.19,0,0,0,.23.16L37.19,76.65a1.49,1.49,0,0,0,1.06.44,1.56,1.56,0,0,0,.57-.11,1.49,1.49,0,0,0,.93-1.39V62.53H52.81a1.54,1.54,0,0,0,1.07-.44l22.31-22.4A1.51,1.51,0,0,0,76.51,38.06Zm-17.45-1-17.14,0L56.74,22.21l2.32,2.34Zm-4.43-17L39.76,35V5.14ZM24.2,17.56H36.76v17.3L21.81,20Zm-4.49,4.56L34.7,37,5.08,37ZM17.33,40,34.7,40,19.83,54.94l-2.5-2.51Zm4.61,17.06L36.76,42.23V72Zm30.25,2.46H39.76V42.08l15,14.9Zm4.66-4.68L42,40.06l18.26,0a1.63,1.63,0,0,0,.31,0,1.55,1.55,0,0,0,.31,0l10.65,0Z"/></g></g></svg>