<svg xmlns="http://www.w3.org/2000/svg" viewBox="0 0 47.39 73"><defs><style>.cls-1{fill:#ff2b8b;}</style></defs><title>iconPodcast</title><g id="Capa_2" data-name="Capa 2"><g id="PREMIUM"><path class="cls-1" d="M42.48,70H25.2V64.41A23.72,23.72,0,0,0,47.39,40.77a1.5,1.5,0,0,0-1.5-1.5h-7V9.5A9.51,9.51,0,0,0,29.35,0H18a9.51,9.51,0,0,0-9.5,9.5V39.27h-7A1.5,1.5,0,0,0,0,40.77,23.73,23.73,0,0,0,22.2,64.41V70H4.92a1.5,1.5,0,0,0,0,3H42.48a1.5,1.5,0,0,0,0-3ZM18,3H29.35a6.51,6.51,0,0,1,6.5,6.5v4.16H30.52a1.5,1.5,0,0,0,0,3h5.33v3.83H30.52a1.5,1.5,0,0,0,0,3h5.33v3.83H30.52a1.5,1.5,0,0,0,0,3h5.33v3.83H30.52a1.5,1.5,0,0,0,0,3h5.33v9.28a6.51,6.51,0,0,1-6.5,6.5H18a6.51,6.51,0,0,1-6.5-6.5V37.15H22a1.5,1.5,0,1,0,0-3H11.54V30.32H22a1.5,1.5,0,1,0,0-3H11.54V23.49H22a1.5,1.5,0,0,0,0-3H11.54V16.66H22a1.5,1.5,0,0,0,0-3H11.54V9.5A6.51,6.51,0,0,1,18,3Zm-15,39.27H8.54v4.16a9.51,9.51,0,0,0,9.5,9.5H29.35a9.51,9.51,0,0,0,9.5-9.5V42.27h5.49a20.7,20.7,0,0,1-41.29,0Z"/></g></g></svg>