<svg xmlns="http://www.w3.org/2000/svg" viewBox="0 0 86.71 56.26"><defs><style>.cls-1{fill:#ff2b8b;}</style></defs><title>iconLibreria</title><g id="Capa_2" data-name="Capa 2"><g id="PREMIUM"><path class="cls-1" d="M86.63,25.48a1.49,1.49,0,0,0-.11-1.22,1.52,1.52,0,0,0-1-.73,36.25,36.25,0,0,0-17.73,1.39A38.64,38.64,0,0,0,69.18,7.43a1.49,1.49,0,0,0-1.91-1.14A36.3,36.3,0,0,0,52.06,17,36.4,36.4,0,0,0,44.31.48,1.59,1.59,0,0,0,43.19,0a1.51,1.51,0,0,0-1.11.51,38.77,38.77,0,0,0-7.63,16.23,36.31,36.31,0,0,0-15-10.45,1.49,1.49,0,0,0-1.91,1.14A38.64,38.64,0,0,0,18.9,24.92,36.25,36.25,0,0,0,1.17,23.53a1.52,1.52,0,0,0-1,.73,1.49,1.49,0,0,0-.11,1.22A39.22,39.22,0,0,0,13.22,42.6a26.46,26.46,0,0,0-8.34,4.77,1.48,1.48,0,0,0-.48,1.12,1.54,1.54,0,0,0,.51,1.11A30.78,30.78,0,0,0,24,56.26a29.11,29.11,0,0,0,18.75-6.69,1,1,0,0,0,.13-.16,1.24,1.24,0,0,0,.33,0,1.46,1.46,0,0,0,.55-.11,2.2,2.2,0,0,0,.2.23,29.14,29.14,0,0,0,18.75,6.69A30.78,30.78,0,0,0,81.8,49.6a1.51,1.51,0,0,0,.51-1.11,1.48,1.48,0,0,0-.48-1.12,26.46,26.46,0,0,0-8.34-4.77A39.22,39.22,0,0,0,86.63,25.48ZM66.47,9.83a37.8,37.8,0,0,1-2.32,16.48,40.18,40.18,0,0,0-4.09,2.06,38,38,0,0,0-8.57,6.74A38.08,38.08,0,0,0,52.86,25c0-1.37-.09-2.66-.21-3.93A36.21,36.21,0,0,1,66.47,9.83ZM43.23,3.94A35.84,35.84,0,0,1,49.54,20.2c-.66.95-1.31,1.95-1.92,3a37.94,37.94,0,0,0-4.26,11,38.23,38.23,0,0,0-4.26-11c-.69-1.19-1.42-2.31-2.17-3.35A38.06,38.06,0,0,1,43.23,3.94Zm-23,5.89A36.17,36.17,0,0,1,33.81,20.71,38.83,38.83,0,0,0,33.55,25a37.83,37.83,0,0,0,1.26,9.71,38.2,38.2,0,0,0-8.16-6.31,41.11,41.11,0,0,0-4.08-2.06A38.12,38.12,0,0,1,20.24,9.83ZM3.63,26.19A35.88,35.88,0,0,1,20.25,28.6a38.57,38.57,0,0,0,2.13,4.27,38,38,0,0,0,6.35,8.2A29.4,29.4,0,0,0,24,40.68a31.56,31.56,0,0,0-7.11.82A37.65,37.65,0,0,1,3.63,26.19ZM8.38,48.44a27.3,27.3,0,0,1,8-3.72l.61.37a38.2,38.2,0,0,0,19.12,5.13h.25a27,27,0,0,1-12.37,3A28.58,28.58,0,0,1,8.38,48.44Zm70,0a28.47,28.47,0,0,1-15.62,4.81,27,27,0,0,1-12.37-3h.25a38.3,38.3,0,0,0,19.12-5.13l.61-.36A27.17,27.17,0,0,1,78.33,48.45Zm-8.51-7a31.49,31.49,0,0,0-7.11-.82,29.4,29.4,0,0,0-4.73.39,38.37,38.37,0,0,0,6.36-8.2,40.29,40.29,0,0,0,2.12-4.27,36.11,36.11,0,0,1,16.63-2.4A37.51,37.51,0,0,1,69.82,41.5Z"/></g></g></svg>