<svg xmlns="http://www.w3.org/2000/svg" viewBox="0 0 91.5 40.26"><defs><style>.cls-1{fill:#ff2b8b;}</style></defs><title>iconHone</title><g id="Capa_2" data-name="Capa 2"><g id="PREMIUM"><path class="cls-1" d="M91.09,19.1C90.35,18.32,72.63,0,45.28,0S1.09,18.35.39,19.13a1.49,1.49,0,0,0,0,2c.7.78,17.53,19.12,44.89,19.12,28.29,0,45.13-18.34,45.83-19.12A1.5,1.5,0,0,0,91.09,19.1Zm-28.67,1A17.14,17.14,0,1,1,45.28,3,17.15,17.15,0,0,1,62.42,20.13Zm-58.82,0A63.73,63.73,0,0,1,32.73,4.42a20.08,20.08,0,0,0,0,31.42A64,64,0,0,1,3.6,20.13ZM57.67,36A20.06,20.06,0,0,0,57.81,4.4,68.13,68.13,0,0,1,87.87,20.16,63.88,63.88,0,0,1,57.67,36Z"/><path class="cls-1" d="M45.28,33.17A13,13,0,1,0,38.44,9a3.72,3.72,0,1,1-4.24,4.25A13,13,0,0,0,45.28,33.17Z"/></g></g></svg>