<?xml version="1.0" standalone="no"?>
<!DOCTYPE svg PUBLIC "-//W3C//DTD SVG 1.1//EN" "http://www.w3.org/Graphics/SVG/1.1/DTD/svg11.dtd" >
<svg xmlns="http://www.w3.org/2000/svg" xmlns:xlink="http://www.w3.org/1999/xlink" version="1.1">
<metadata>
Created by FontForge 20161003 at Wed Oct 25 13:39:21 2017
 By www-data
Copyright (c) 2017 by Fontfabric LLC. All rights reserved.
</metadata>
<defs>
<font id="UniNeueBook" horiz-adv-x="536" >
  <font-face 
    font-family="UniNeueBook"
    font-weight="400"
    font-stretch="normal"
    units-per-em="1000"
    panose-1="0 0 0 0 0 0 0 0 0 0"
    ascent="750"
    descent="-250"
    x-height="515"
    cap-height="715"
    bbox="-212 -235 1040 957"
    underline-thickness="50"
    underline-position="-175"
    unicode-range="U+0020-25CA"
  />
<missing-glyph horiz-adv-x="232" 
 />
    <glyph glyph-name=".notdef" horiz-adv-x="232" 
 />
    <glyph glyph-name=".null" horiz-adv-x="0" 
 />
    <glyph glyph-name="nonmarkingreturn" horiz-adv-x="333" 
 />
    <glyph glyph-name="space" unicode=" " horiz-adv-x="232" 
 />
    <glyph glyph-name="exclam" unicode="!" horiz-adv-x="228" 
d="M98 160q-9 0 -9 8l-3 373v166q0 8 9 8h39q8 0 8 -8v-166l-3 -373q0 -8 -8 -8h-33zM154 35q0 -17 -11.5 -28.5t-28.5 -11.5t-28 11.5t-11 28.5t11 28.5t28 11.5t28.5 -11.5t11.5 -28.5z" />
    <glyph glyph-name="quotedbl" unicode="&#x22;" horiz-adv-x="290" 
d="M104 520q0 -8 -9 -8h-26q-8 0 -8 9l11 186q0 8 9 8h38q7 0 7 -9zM216 520q0 -8 -10 -8h-25q-8 0 -8 9l11 186q0 8 9 8h37q8 0 8 -9z" />
    <glyph glyph-name="numbersign" unicode="#" horiz-adv-x="708" 
d="M127 0q-9 0 -7 10l59 207h-138q-10 0 -8 10l8 26q3 8 9 8h141l54 195h-138q-10 0 -7 10l7 26q3 7 9 7h141l60 209q2 7 8 7h32q9 0 7 -10l-59 -206h178l59 209q3 7 9 7h31q10 0 7 -10l-58 -206h136q10 0 7 -10l-8 -26q-2 -7 -9 -7h-138l-54 -195h136q10 0 7 -10l-8 -27
q-4 -7 -9 -7h-138l-60 -210q-4 -7 -9 -7h-31q-10 0 -7 10l59 207h-178l-60 -210q-2 -7 -9 -7h-31zM239 261h178l54 195h-178z" />
    <glyph glyph-name="dollar" unicode="$" horiz-adv-x="577" 
d="M292 388q42 -10 85 -23t77.5 -35t56 -57t21.5 -89q0 -45 -16 -80t-45 -59t-69 -38t-88 -17v-79q0 -9 -8 -9h-30q-8 0 -8 9v79q-60 3 -111 27t-103 70q-6 5 -1 12l20 27q5 7 12 2q52 -44 101 -65.5t106 -22.5q39 0 73 9t59.5 27t40 45t14.5 63q0 41 -18 67t-47 42.5
t-65.5 26t-72.5 18.5q-43 10 -83.5 24t-71.5 36.5t-50 55.5t-19 83q0 45 16.5 79t46 57t69 36t84.5 16v73q0 9 8 9h30q8 0 8 -9v-73q56 -4 101 -23.5t96 -58.5q7 -5 2 -11l-20 -28q-5 -6 -12 -2q-48 38 -95 55t-101 18q-39 0 -72 -9t-57 -27t-37.5 -44t-13.5 -59
q0 -36 14 -60t39 -40.5t59 -27.5t75 -20z" />
    <glyph glyph-name="percent" unicode="%" horiz-adv-x="753" 
d="M300 467q0 -27 -10 -48.5t-26.5 -37t-39.5 -23.5t-48 -8t-47.5 8t-39 23.5t-26.5 37t-10 48.5v133q0 57 36 88t87 31q52 0 88 -31t36 -88v-133zM106 0q-5 0 -6.5 3t0.5 7l489 693q2 5 10 5h32q5 0 6.5 -3t-0.5 -7l-489 -693q-3 -5 -10 -5h-32zM94 469q0 -37 23.5 -58.5
t58.5 -21.5t59 21.5t24 58.5v128q0 39 -23.5 61.5t-59.5 22.5q-35 0 -58.5 -22.5t-23.5 -61.5v-128zM701 108q0 -27 -10 -48.5t-26.5 -37t-39 -23.5t-47.5 -8t-47.5 8t-39 23.5t-26.5 37t-10 48.5v133q0 57 36 88t87 31q52 0 87.5 -31t35.5 -88v-133zM496 110
q0 -37 23.5 -58.5t58.5 -21.5t59 21.5t24 58.5v128q0 39 -24 61.5t-59 22.5t-58.5 -22.5t-23.5 -61.5v-128z" />
    <glyph glyph-name="ampersand" unicode="&#x26;" horiz-adv-x="593" 
d="M438 88q-37 -45 -81 -72t-109 -27q-44 0 -81 13t-64 37.5t-42.5 60t-15.5 79.5q0 69 38 118.5t107 90.5q-45 56 -66 100t-21 86q0 33 12 61t34 48t53 31.5t69 11.5q37 0 67 -11t51 -31t32.5 -47t11.5 -60q0 -62 -43 -109t-125 -94q36 -45 79 -95.5t91 -106.5
q15 26 25.5 51t21.5 54q3 8 10 4l30 -12q8 -4 6 -12q-25 -72 -59 -127l102 -120q8 -10 -5 -10h-46q-6 0 -10 5zM98 179q0 -66 42.5 -103t110.5 -37q50 0 86.5 22t68.5 67q-55 64 -101 119t-83 101q-63 -35 -93.5 -76t-30.5 -93zM154 573q0 -37 20.5 -74.5t59.5 -85.5
q75 42 111.5 80.5t36.5 83.5t-28.5 73t-83.5 28q-56 0 -86 -29t-30 -76z" />
    <glyph glyph-name="quotesingle" unicode="'" horiz-adv-x="178" 
d="M104 520q0 -8 -9 -8h-26q-8 0 -8 9l11 186q0 8 9 8h37q8 0 8 -9z" />
    <glyph glyph-name="parenleft" unicode="(" horiz-adv-x="266" 
d="M200 -117q-8 0 -11 6q-65 108 -100.5 222.5t-35.5 244.5q0 129 35.5 244t100.5 222q3 6 11 6h37q5 0 6.5 -3t-0.5 -7q-66 -104 -102 -221.5t-36 -240.5q0 -124 36 -241t102 -221q5 -11 -6 -11h-37z" />
    <glyph glyph-name="parenright" unicode=")" horiz-adv-x="266" 
d="M29 -117q-11 0 -6 11q66 104 102 221t36 241q0 123 -36 240.5t-102 221.5q-2 4 -0.5 7t6.5 3h37q8 0 11 -6q65 -107 100.5 -222t35.5 -244q0 -130 -35.5 -244.5t-100.5 -222.5q-3 -6 -11 -6h-37z" />
    <glyph glyph-name="asterisk" unicode="*" horiz-adv-x="458" 
d="M109 392q-7 5 -2 12l83 115l-134 43q-9 4 -6 11l9 30q4 9 11 6l135 -44v142q0 8 9 8h31q8 0 8 -8v-142l135 43q8 3 11 -5l10 -29q2 -8 -6 -11l-135 -43l83 -115q5 -6 -1 -12l-25 -19q-6 -6 -12 2l-84 114l-83 -114q-4 -5 -11 -2z" />
    <glyph glyph-name="plus" unicode="+" horiz-adv-x="561" 
d="M488 359q8 0 8 -9v-33q0 -9 -8 -9h-182v-183q0 -9 -8 -9h-35q-8 0 -8 9v183h-182q-8 0 -8 9v33q0 9 8 9h182v182q0 9 8 9h35q8 0 8 -9v-182h182z" />
    <glyph glyph-name="comma" unicode="," horiz-adv-x="190" 
d="M71 -105q-2 -6 -9 -6h-30q-10 0 -7 9l48 180q2 7 9 7h40q10 0 7 -10z" />
    <glyph glyph-name="hyphen" unicode="-" horiz-adv-x="408" 
d="M80 280q-9 0 -9 8v33q0 8 9 8h248q9 0 9 -8v-33q0 -8 -9 -8h-248z" />
    <glyph glyph-name="period" unicode="." horiz-adv-x="189" 
d="M133 36q0 -17 -11 -28t-28 -11t-27.5 11t-10.5 28t10.5 28t27.5 11t28 -11t11 -28z" />
    <glyph glyph-name="slash" unicode="/" horiz-adv-x="403" 
d="M80 7q-1 -7 -9 -7h-38q-10 0 -6 10l298 698q3 7 10 7h37q9 0 5 -10z" />
    <glyph glyph-name="zero" unicode="0" horiz-adv-x="609" 
d="M538 219q0 -56 -18 -99t-49.5 -72t-74 -44t-91.5 -15q-50 0 -92.5 15t-74 44t-49.5 72t-18 99v276q0 57 18 100t49.5 72.5t74 44t92.5 14.5q49 0 91.5 -14.5t74 -44t49.5 -72.5t18 -100v-276zM124 218q0 -44 13.5 -77.5t38 -55.5t57.5 -33t72 -11t71.5 11t56.5 33
t37.5 55.5t13.5 77.5v275q0 46 -13.5 80t-37 56.5t-56.5 33.5t-72 11t-72.5 -11t-57.5 -33.5t-37.5 -56.5t-13.5 -80v-275z" />
    <glyph glyph-name="one" unicode="1" horiz-adv-x="337" 
d="M198 0q-8 0 -8 8v642l-139 -89q-7 -5 -11 2l-18 28q-4 7 3 12l167 108q5 4 13 4h30q8 0 8 -8v-699q0 -8 -8 -8h-37z" />
    <glyph glyph-name="two" unicode="2" horiz-adv-x="547" 
d="M50 0q-9 0 -9 8v25q0 6 4 10l176 185q46 49 83.5 91t64.5 79.5t42 72.5t15 70q0 24 -8 48t-26 43t-46 31t-68 12q-64 0 -109 -27.5t-80 -67.5q-5 -7 -12 0l-20 27q-4 5 0 12q39 45 92.5 76t128.5 31q48 0 85.5 -14.5t63.5 -39t39.5 -58t13.5 -72.5q0 -41 -14.5 -79
t-42 -78.5t-67 -85.5t-88.5 -98q-30 -32 -66.5 -70.5t-77.5 -80.5h368q8 0 8 -9v-33q0 -8 -8 -8h-442z" />
    <glyph glyph-name="three" unicode="3" horiz-adv-x="561" 
d="M507 215q0 -51 -17 -92.5t-47.5 -71t-74 -45.5t-96.5 -16q-40 0 -72.5 7.5t-60 21t-51.5 32.5t-46 43q-6 6 0 12l22 23q7 6 12 -2q19 -19 39 -35t43 -27.5t51 -18t63 -6.5q84 0 132.5 47t48.5 128q0 80 -48 125t-141 45q-14 0 -29.5 -1t-29.5 -3q-7 -2 -9 5l-8 16
q-3 5 2 12l155 169q17 18 39.5 41.5t39.5 40.5h-344q-9 0 -9 9v33q0 8 9 8h408q8 0 8 -8v-23q0 -5 -4 -11l-229 -248h13q54 1 96.5 -14t72.5 -42.5t46 -66.5t16 -87z" />
    <glyph glyph-name="four" unicode="4" horiz-adv-x="543" 
d="M385 0q-8 0 -8 8v176h-340q-8 0 -8 8v25q0 6 3 11l273 481q4 6 10 6h43q11 0 6 -10l-269 -472h282v166q0 8 8 8h37q8 0 8 -8v-166h73q9 0 9 -8v-33q0 -8 -9 -8h-73v-176q0 -8 -8 -8h-37z" />
    <glyph glyph-name="five" unicode="5" horiz-adv-x="570" 
d="M520 235q0 -55 -16.5 -100t-46.5 -77t-73.5 -49.5t-97.5 -17.5q-72 0 -125.5 26.5t-97.5 75.5q-4 7 1 12l24 25q5 5 12 -1q38 -42 82 -64.5t105 -22.5q85 0 132 51t47 141q0 94 -47.5 136.5t-126.5 42.5q-56 0 -95.5 -18t-71.5 -49q-6 -6 -11 -3l-33 12q-7 2 -7 9l13 343
q0 8 8 8h382q9 0 9 -8v-34q0 -8 -9 -8h-339l-9 -261q36 30 76 45t91 15q49 0 90 -14t71 -42.5t46.5 -71.5t16.5 -101z" />
    <glyph glyph-name="six" unicode="6" horiz-adv-x="581" 
d="M125 354q26 48 75.5 72t104.5 24q103 0 163.5 -58t60.5 -169q0 -53 -16.5 -96.5t-46.5 -74t-72 -47t-93 -16.5t-93.5 16t-73 46t-47 72t-16.5 95v282q0 54 18.5 96.5t50 71t72.5 43.5t87 15q62 0 111.5 -20.5t87.5 -54.5q6 -6 1 -12l-19 -26q-6 -6 -13 -2
q-32 29 -73 46.5t-95 17.5q-36 0 -68 -11.5t-55.5 -34t-37 -54.5t-13.5 -73v-148zM125 218q0 -84 47.5 -131t128.5 -47t127.5 48.5t46.5 133.5q0 88 -44.5 133t-127.5 45q-32 0 -64 -10t-57.5 -30.5t-41 -52t-15.5 -75.5v-14z" />
    <glyph glyph-name="seven" unicode="7" horiz-adv-x="510" 
d="M110 0q-4 0 -6 2.5t0 7.5l316 653h-386q-8 0 -8 9v35q0 8 8 8h446q8 0 8 -8v-21q0 -7 -2 -10l-323 -670q-3 -6 -10 -6h-43z" />
    <glyph glyph-name="eight" unicode="8" horiz-adv-x="602" 
d="M543 201q0 -48 -17 -87t-48.5 -66.5t-76 -43t-100.5 -15.5t-100.5 15.5t-76 43t-48.5 66.5t-17 87q0 60 35 108.5t103 67.5q-61 20 -89.5 63.5t-28.5 100.5q0 39 15.5 73t44 58.5t70 39t92.5 14.5t92.5 -14.5t70.5 -39t44.5 -58.5t15.5 -73q0 -57 -28.5 -100.5
t-89.5 -63.5q68 -19 102.5 -67.5t34.5 -108.5zM113 202q0 -34 12 -63.5t36 -51.5t59 -34.5t81 -12.5t81 12.5t59 34.5t36.5 51.5t12.5 63.5q0 32 -13 59.5t-38 47t-60 30.5t-78 11q-88 0 -138 -41.5t-50 -106.5zM132 540q0 -61 42 -101.5t127 -40.5t127 40.5t42 101.5
q0 64 -45.5 99.5t-123.5 35.5q-77 0 -123 -35.5t-46 -99.5z" />
    <glyph glyph-name="nine" unicode="9" horiz-adv-x="582" 
d="M53 492q0 53 16.5 96.5t46.5 74t72 47t93 16.5t93.5 -16t72.5 -46t47 -72t17 -94v-283q0 -54 -18.5 -96.5t-50 -71t-72.5 -43.5t-87 -15q-64 0 -114.5 27t-88.5 71q-5 6 0 12l20 26q5 8 12 1q32 -38 73 -62t98 -24q36 0 67.5 11.5t55.5 34t37.5 54.5t13.5 73v146
q-13 -24 -32.5 -41.5t-43.5 -29t-50.5 -17.5t-53.5 -6q-104 0 -164 57.5t-60 169.5zM107 493q0 -88 44 -133t129 -45q32 0 63.5 10t57 30.5t41 51.5t15.5 74v17q0 84 -48 130.5t-129 46.5t-127 -48t-46 -134z" />
    <glyph glyph-name="colon" unicode=":" horiz-adv-x="217" 
d="M147 472q0 -17 -10.5 -28t-27.5 -11t-28 11t-11 28q0 18 11 28.5t28 10.5t27.5 -10.5t10.5 -28.5zM147 36q0 -18 -10.5 -28.5t-27.5 -10.5t-28 10.5t-11 28.5q0 17 11 28t28 11t27.5 -11t10.5 -28z" />
    <glyph glyph-name="semicolon" unicode=";" horiz-adv-x="240" 
d="M58 -111q-10 0 -8 9l48 184q3 7 9 7h41q10 0 7 -10l-58 -183q-4 -7 -10 -7h-29zM166 472q0 -17 -11 -28t-28 -11t-28 11t-11 28t11 28t28 11t28 -11t11 -28z" />
    <glyph glyph-name="less" unicode="&#x3c;" horiz-adv-x="561" 
d="M483 110q0 -5 -3 -7t-7 1l-415 200q-6 3 -6 10v31q0 5 6 10l415 200q4 2 7 0.5t3 -6.5v-40q0 -9 -6 -10l-361 -170l361 -169q6 -3 6 -10v-40z" />
    <glyph glyph-name="equal" unicode="=" horiz-adv-x="561" 
d="M73 397q-8 0 -8 9v33q0 9 8 9h415q8 0 8 -9v-33q0 -9 -8 -9h-415zM73 217q-8 0 -8 9v33q0 9 8 9h415q8 0 8 -9v-33q0 -9 -8 -9h-415z" />
    <glyph glyph-name="greater" unicode="&#x3e;" horiz-adv-x="561" 
d="M88 104q-4 -3 -7 -1t-3 7v40q0 7 6 10l361 169l-361 170q-6 1 -6 10v40q0 5 3 6.5t7 -0.5l415 -200q6 -5 6 -10v-31q0 -7 -6 -10z" />
    <glyph glyph-name="question" unicode="?" horiz-adv-x="459" 
d="M191 160q-8 0 -8 8v64q0 38 13.5 65t34 48t44 39t44 38.5t34 46.5t13.5 63q0 28 -8 54t-25.5 46.5t-45.5 33t-68 12.5q-53 0 -91 -20.5t-68 -51.5q-6 -8 -11 1l-20 26q-3 7 2 12q29 32 76 56.5t113 24.5q45 0 81.5 -14t62.5 -39.5t40 -61t14 -79.5q0 -43 -13.5 -73
t-33.5 -52.5t-44 -41t-44 -38t-33.5 -44.5t-13.5 -60v-55q0 -8 -9 -8h-36zM248 36q0 -17 -11 -28t-28 -11t-27.5 11t-10.5 28t10.5 28t27.5 11t28 -11t11 -28z" />
    <glyph glyph-name="at" unicode="@" horiz-adv-x="936" 
d="M654 -60q-21 -12 -49 -21t-58.5 -16t-62.5 -10.5t-61 -3.5q-89 0 -156.5 26.5t-112.5 75t-68 117.5t-23 153v109q0 85 22.5 151.5t70.5 112t123.5 69t180.5 23.5q74 0 134.5 -13.5t109.5 -36.5t88 -55t70 -68q3 -5 3 -11v-295q0 -84 -34.5 -125.5t-98.5 -41.5
q-40 0 -73 19.5t-48 56.5q-19 -37 -57 -57.5t-88 -20.5q-38 0 -71.5 13.5t-58 38t-38.5 58.5t-14 74v82q0 80 48 128.5t131 48.5q47 0 95 -9.5t77 -22.5q6 -3 6 -9v-252q0 -51 27.5 -78t66.5 -27q46 1 65 31.5t19 87.5v294q-30 31 -66 58t-79.5 47t-96 31t-116.5 11
q-183 0 -267 -79t-84 -234v-109q0 -155 81 -241.5t235 -86.5q55 0 113 12.5t101 35.5q9 3 11 -5l7 -26q2 -7 -4 -10zM332 263q0 -34 10.5 -60t29 -44t43 -27.5t51.5 -9.5q50 0 86 26t41 66v243q-7 3 -21 6.5t-31.5 6.5t-37.5 5t-39 2q-61 0 -96.5 -36t-35.5 -97v-81z" />
    <glyph glyph-name="A" unicode="A" horiz-adv-x="602" 
d="M17 0q-9 0 -6 10l256 698q3 7 9 7h50q5 0 9 -7l257 -698q2 -10 -7 -10h-41q-7 0 -10 7l-73 202h-320l-73 -202q-4 -7 -9 -7h-42zM158 260h286l-141 391h-3z" />
    <glyph glyph-name="B" unicode="B" horiz-adv-x="627" 
d="M544 536q0 -57 -27 -96.5t-75 -56.5q64 -17 98 -64.5t34 -116.5q0 -96 -64 -149t-183 -53h-225q-8 0 -8 8v699q0 8 8 8h226q58 0 99 -14t67 -38t38 -56.5t12 -70.5zM328 50q94 0 142 39t48 113q0 69 -42.5 111.5t-134.5 42.5h-192v-306h179zM489 536q0 27 -8.5 50.5
t-27.5 41t-50 27.5t-75 10h-179v-259h192q69 0 108.5 33.5t39.5 96.5z" />
    <glyph glyph-name="C" unicode="C" horiz-adv-x="579" 
d="M546 69q-48 -42 -106.5 -61t-118.5 -19q-57 0 -103.5 16.5t-79 48t-50.5 76.5t-18 101v253q0 56 18 101t50.5 76.5t78 48t101.5 16.5q57 0 111.5 -18.5t100.5 -54.5q7 -4 2 -11l-20 -29q-5 -7 -12 -1q-40 30 -87 46t-96 16q-47 0 -83 -14t-60 -39.5t-36.5 -60
t-12.5 -76.5v-253q0 -42 12.5 -77t37 -60t60.5 -39t84 -14q54 0 104.5 18t92.5 53q7 6 12 -2l20 -29q5 -7 -2 -12z" />
    <glyph glyph-name="D" unicode="D" horiz-adv-x="663" 
d="M102 0q-8 0 -8 8v699q0 8 8 8h240q58 0 105 -17t79.5 -49.5t50 -79.5t17.5 -106v-214q0 -59 -17.5 -105.5t-50.5 -78.5t-79.5 -48.5t-104.5 -16.5h-240zM149 52h193q93 0 144 50t51 147v214q0 97 -51 149t-144 52h-193v-612z" />
    <glyph glyph-name="E" unicode="E" horiz-adv-x="570" 
d="M149 51h364q8 0 8 -8v-35q0 -8 -8 -8h-411q-8 0 -8 8v699q0 8 8 8h396q9 0 9 -8v-35q0 -8 -9 -8h-349v-274h328q8 0 8 -9v-34q0 -8 -8 -8h-328v-288z" />
    <glyph glyph-name="F" unicode="F" horiz-adv-x="551" 
d="M518 672q0 -8 -9 -8h-360v-288h328q8 0 8 -9v-34q0 -8 -8 -8h-328v-317q0 -8 -8 -8h-39q-8 0 -8 8v699q0 8 8 8h407q9 0 9 -8v-35z" />
    <glyph glyph-name="G" unicode="G" horiz-adv-x="639" 
d="M571 88q-48 -48 -110.5 -73t-134.5 -25q-58 0 -105.5 16.5t-81 48t-52 76.5t-18.5 101v252q0 57 18 101.5t51 76t79.5 48t103.5 16.5q62 0 122.5 -19t110.5 -57q8 -5 2 -12l-21 -28q-5 -7 -11 -2q-43 32 -95.5 49t-107.5 17q-95 0 -146 -51.5t-51 -139.5v-251
q0 -88 53 -139t149 -51q56 0 106 18t88 52v215h-190q-9 0 -9 8v35q0 8 9 8h236q9 0 9 -8v-272q0 -7 -4 -10z" />
    <glyph glyph-name="H" unicode="H" horiz-adv-x="677" 
d="M528 707q0 8 8 8h38q9 0 9 -8v-699q0 -8 -9 -8h-38q-8 0 -8 8v330h-379v-330q0 -8 -8 -8h-39q-8 0 -8 8v699q0 8 8 8h39q8 0 8 -8v-318h379v318z" />
    <glyph glyph-name="I" unicode="I" horiz-adv-x="243" 
d="M149 8q0 -8 -8 -8h-39q-8 0 -8 8v699q0 8 8 8h39q8 0 8 -8v-699z" />
    <glyph glyph-name="J" unicode="J" horiz-adv-x="497" 
d="M408 214q0 -112 -52 -168t-146 -56q-59 0 -104 20.5t-87 58.5q-6 4 -2 12l18 28q5 8 12 2q38 -32 76.5 -50.5t86.5 -18.5q71 0 107 40.5t36 131.5v493q0 8 8 8h39q8 0 8 -8v-493v0z" />
    <glyph glyph-name="K" unicode="K" horiz-adv-x="608" 
d="M102 0q-8 0 -8 8v699q0 8 8 8h39q8 0 8 -8v-367l361 370q7 5 11 5h51q5 0 7 -3t-2 -7l-305 -312l324 -383q8 -10 -5 -10h-51q-8 0 -10 5l-295 349l-86 -85v-261q0 -8 -8 -8h-39z" />
    <glyph glyph-name="L" unicode="L" horiz-adv-x="501" 
d="M102 0q-8 0 -8 8v699q0 8 8 8h39q8 0 8 -8v-656h332q8 0 8 -8v-35q0 -8 -8 -8h-379z" />
    <glyph glyph-name="M" unicode="M" horiz-adv-x="846" 
d="M102 0q-8 0 -8 8v699q0 8 8 8h49q7 0 10 -6l186 -330q18 -32 39 -72t36 -69h1q8 14 17.5 31.5t19 36t19.5 37t19 34.5l187 332q3 6 10 6h48q9 0 9 -8v-699q0 -8 -9 -8h-38q-9 0 -9 8v399q0 54 1 111.5t2 111.5l-1 1q-21 -41 -44 -83t-48 -87l-157 -283q-3 -5 -10 -5h-32
q-7 0 -10 5l-158 283l-92 170l-1 -1q1 -54 2 -112t1 -112v-398q0 -8 -8 -8h-39z" />
    <glyph glyph-name="N" unicode="N" horiz-adv-x="701" 
d="M102 0q-8 0 -8 8v699q0 8 8 8h44q7 0 10 -6l329 -510q17 -28 35 -57t34 -57l2 3q-2 63 -3 133t-1 133v353q0 8 9 8h38q8 0 8 -8v-699q0 -8 -8 -8h-44q-7 0 -10 5l-332 510q-17 26 -34 55t-32 55l-1 -1q0 -28 0.5 -60t1 -64.5t1 -64.5t0.5 -60v-367q0 -8 -9 -8h-38z" />
    <glyph glyph-name="O" unicode="O" horiz-adv-x="669" 
d="M600 235q0 -54 -19 -99.5t-53.5 -78t-83.5 -50.5t-109 -18q-61 0 -110 18t-83.5 50.5t-53.5 78t-19 99.5v239q0 57 18.5 103.5t53 79.5t84 51t110.5 18t110 -18t83.5 -51t53 -79.5t18.5 -103.5v-239zM124 235q0 -43 14.5 -79t42 -61.5t66.5 -39.5t88 -14t88 14t66 39.5
t41.5 61.5t14.5 79v239q0 92 -56 146t-154 54q-99 0 -155 -54t-56 -146v-239z" />
    <glyph glyph-name="P" unicode="P" horiz-adv-x="617" 
d="M333 715q118 0 181.5 -59.5t63.5 -165.5q0 -108 -63.5 -166.5t-181.5 -58.5h-184v-257q0 -8 -8 -8h-38q-9 0 -9 8v699q0 8 9 8h230zM327 316q98 0 147 44t49 130q0 85 -49 129.5t-147 44.5h-178v-348h178z" />
    <glyph glyph-name="Q" unicode="Q" horiz-adv-x="670" 
d="M581 -34q-7 -7 -12 0l-69 72q-32 -23 -74 -36t-91 -13q-61 0 -110.5 18.5t-84 51.5t-53 78.5t-18.5 99.5v237q0 57 18.5 103.5t53 79.5t84 51t110.5 18t110 -18t83.5 -51t53 -79.5t18.5 -103.5v-237q0 -102 -64 -168l66 -70q6 -6 0 -12zM124 237q0 -43 14.5 -79t42 -62
t66.5 -40.5t88 -14.5q38 0 69.5 10t57.5 27l-106 111q-5 7 0 12l21 21q7 7 12 0l108 -113q23 25 35.5 57.5t12.5 70.5v237q0 45 -14.5 82t-41.5 63.5t-66 40.5t-88 14t-88 -14t-66.5 -40.5t-42 -63.5t-14.5 -82v-237z" />
    <glyph glyph-name="R" unicode="R" horiz-adv-x="623" 
d="M527 0q-8 0 -11 5l-217 288h-150v-285q0 -8 -8 -8h-39q-8 0 -8 8v699q0 8 8 8h222q114 0 179 -55.5t65 -155.5q0 -90 -54.5 -144t-151.5 -63l219 -287q2 -4 0.5 -7t-6.5 -3h-48zM149 664v-320h176q91 0 139 40.5t48 118.5q0 79 -48 120t-139 41h-176z" />
    <glyph glyph-name="S" unicode="S" horiz-adv-x="599" 
d="M554 185q0 -49 -19 -86t-53 -61.5t-80 -36.5t-100 -12q-75 0 -132.5 23.5t-115.5 71.5q-6 6 -1 12l21 29q5 6 12 2q53 -43 104 -64t113 -22q41 0 76.5 9t62 27t41.5 45t15 63q0 33 -12 56.5t-37 41t-64 31t-92 25.5q-52 12 -96 29t-75.5 41.5t-49 58t-17.5 78.5
q0 46 19.5 80t53 56.5t78 33t93.5 10.5q69 0 124 -20t109 -60q6 -4 2 -12l-20 -28q-5 -8 -12 -3q-92 69 -209 71q-38 0 -71 -8t-57.5 -24t-39 -40.5t-14.5 -57.5q0 -32 13 -55.5t38 -41t61 -30.5t83 -24q60 -14 106 -31.5t77.5 -41.5t48 -56.5t16.5 -78.5z" />
    <glyph glyph-name="T" unicode="T" horiz-adv-x="545" 
d="M524 715q9 0 9 -8v-35q0 -8 -9 -8h-225v-656q0 -8 -9 -8h-38q-9 0 -9 8v656h-223q-8 0 -8 8v35q0 8 8 8h504z" />
    <glyph glyph-name="U" unicode="U" horiz-adv-x="681" 
d="M593 242q0 -56 -17.5 -102.5t-50 -80t-79.5 -52t-106 -18.5t-105.5 18.5t-79 52t-50 80t-17.5 102.5v465q0 8 9 8h39q8 0 8 -8v-462q0 -94 50.5 -149t145.5 -55t146 55t51 149v462q0 8 8 8h39q9 0 9 -8v-465v0z" />
    <glyph glyph-name="V" unicode="V" horiz-adv-x="614" 
d="M281 0q-7 0 -10 7l-262 698q-2 10 7 10h41q8 0 10 -7l239 -646h3l239 646q2 7 9 7h42q9 0 6 -10l-261 -698q-4 -7 -10 -7h-53z" />
    <glyph glyph-name="W" unicode="W" horiz-adv-x="941" 
d="M224 0q-7 0 -9 7l-200 698q-3 10 7 10h42q7 0 8 -7l121 -432q14 -52 27.5 -104t26.5 -104h1q15 51 31 106.5t32 107.5l130 413q2 8 9 8h41q7 0 9 -8l130 -413q16 -52 32 -107t31 -107h1q13 52 26.5 104t27.5 104l121 432q1 7 9 7h41q10 0 7 -10l-200 -698q-2 -7 -8 -7
h-47q-6 0 -9 7l-131 416q-16 51 -32 104.5t-28 100.5h-1q-13 -49 -27.5 -100t-31.5 -105l-132 -416q-4 -7 -9 -7h-46z" />
    <glyph glyph-name="X" unicode="X" horiz-adv-x="579" 
d="M557 10q2 -4 1 -7t-6 -3h-48q-7 0 -10 6l-204 311l-205 -311q-3 -6 -10 -6h-47q-5 0 -6.5 3t0.5 7l235 350l-224 345q-2 4 -0.5 7t6.5 3h47q6 0 9 -6l195 -305l194 305q3 6 10 6h46q5 0 6.5 -3t-0.5 -7l-223 -345z" />
    <glyph glyph-name="Y" unicode="Y" horiz-adv-x="550" 
d="M256 0q-9 0 -9 8v270l-238 427q-5 10 6 10h44q7 0 10 -6l206 -379l206 379q3 6 10 6h44q11 0 6 -10l-238 -427v-270q0 -8 -9 -8h-38z" />
    <glyph glyph-name="Z" unicode="Z" horiz-adv-x="569" 
d="M43 0q-9 0 -9 8v23q0 7 4 11l414 622h-394q-8 0 -8 8v35q0 8 8 8h459q8 0 8 -8v-24q0 -6 -3 -10l-413 -622h416q8 0 8 -8v-35q0 -8 -8 -8h-482z" />
    <glyph glyph-name="bracketleft" unicode="[" horiz-adv-x="262" 
d="M139 -68h84q8 0 8 -8v-33q0 -8 -8 -8h-128q-8 0 -8 8v929q0 8 8 8h128q8 0 8 -8v-33q0 -8 -8 -8h-84v-847z" />
    <glyph glyph-name="backslash" unicode="\" horiz-adv-x="403" 
d="M26 705q-4 10 5 10h37q7 0 10 -7l298 -698q4 -10 -6 -10h-38q-8 0 -9 7z" />
    <glyph glyph-name="bracketright" unicode="]" horiz-adv-x="262" 
d="M123 779h-84q-8 0 -8 8v33q0 8 8 8h128q8 0 8 -8v-929q0 -8 -8 -8h-128q-8 0 -8 8v33q0 8 8 8h84v847z" />
    <glyph glyph-name="asciicircum" unicode="^" horiz-adv-x="561" 
d="M56 573q-5 0 -7 3t2 8l202 233q5 5 10 5h35q7 0 10 -5l202 -233q4 -5 2 -8t-7 -3h-47q-7 0 -10 5l-167 196l-167 -196q-3 -5 -10 -5h-48z" />
    <glyph glyph-name="underscore" unicode="_" horiz-adv-x="576" 
d="M539 -52q0 -8 -8 -8h-486q-8 0 -8 8v33q0 8 8 8h486q8 0 8 -8v-33z" />
    <glyph glyph-name="grave" unicode="`" horiz-adv-x="164" 
d="M118.001 598q4.99902 0 7.49902 3t-0.5 8l-81.9951 133q-2.99902 5 -9.99902 5h-40.9971q-12 0 -5 -10l92.9941 -133q3 -6 9.99902 -6h27.999z" />
    <glyph glyph-name="a" unicode="a" horiz-adv-x="506" 
d="M65 474q33 23 79.5 37.5t103.5 14.5q94 0 142.5 -49t48.5 -140v-304q0 -7 -7 -10q-33 -13 -81.5 -23.5t-104.5 -10.5q-43 0 -81.5 10t-67 30.5t-45 50.5t-16.5 71q0 78 56.5 118t153.5 40q38 0 74.5 -5.5t65.5 -10.5v43q0 67 -32 104t-108 37q-45 0 -85 -12t-68 -29
q-6 -5 -11 2l-17 26q-5 7 0 10zM90 151q0 -27 11.5 -48t32.5 -36t49.5 -22.5t62.5 -7.5q42 0 78 7.5t62 16.5v186q-28 6 -65 10.5t-75 4.5q-78 0 -117 -28.5t-39 -82.5z" />
    <glyph glyph-name="b" unicode="b" horiz-adv-x="537" 
d="M126 486q30 18 66.5 29t77.5 11q97 0 155 -54t58 -160v-108q0 -56 -15.5 -96.5t-44 -67t-68 -39t-88.5 -12.5q-48 0 -96.5 9.5t-90.5 26.5q-7 1 -7 9v673q0 8 9 8h36q8 0 8 -8v-221zM266 37q77 0 120 39t43 128v108q0 88 -42 127t-121 39q-38 0 -74.5 -11.5t-65.5 -31.5
v-374q30 -11 66 -17.5t74 -6.5z" />
    <glyph glyph-name="c" unicode="c" horiz-adv-x="466" 
d="M436 50q-39 -30 -81.5 -45.5t-94.5 -15.5q-48 0 -86 14.5t-64.5 40t-40.5 60t-14 74.5v159q0 40 14 74.5t40.5 60t64.5 40t86 14.5q45 0 84.5 -13t76.5 -39q7 -6 3 -12l-17 -26q-6 -6 -12 -2q-62 43 -135 43q-37 0 -65 -11t-47.5 -29.5t-29.5 -44t-10 -55.5v-159
q0 -60 39.5 -100.5t112.5 -40.5q77 0 148 51q7 6 12 -1l17 -25q5 -8 -1 -12z" />
    <glyph glyph-name="d" unicode="d" horiz-adv-x="537" 
d="M411 707q0 8 8 8h36q9 0 9 -8v-673q0 -8 -7 -9q-42 -17 -90 -26.5t-96 -9.5q-49 0 -89 12.5t-68.5 39t-44 67t-15.5 96.5v108q0 106 58 160t155 54q41 0 77.5 -11t66.5 -29v221zM108 204q0 -90 43 -128.5t121 -38.5q38 0 74 6t65 17v375q-29 20 -65 31.5t-75 11.5
q-78 0 -120.5 -39t-42.5 -127v-108z" />
    <glyph glyph-name="e" unicode="e" horiz-adv-x="513" 
d="M464 238q0 -8 -9 -8h-345v-56q0 -33 12 -58.5t32.5 -43t48 -26.5t58.5 -9q57 0 96 20t67 44q8 5 12 -2l18 -23q6 -6 -1 -12q-35 -30 -82 -52.5t-111 -22.5q-40 0 -76.5 12t-65 35.5t-45.5 58t-17 79.5v158q0 48 16 84.5t43.5 60.5t65 36.5t80.5 12.5q42 0 79 -12.5
t64.5 -36.5t43.5 -60.5t16 -84.5v-94zM412 332q0 72 -42.5 108.5t-108.5 36.5q-69 0 -110 -36.5t-41 -108.5v-57h302v57z" />
    <glyph glyph-name="f" unicode="f" horiz-adv-x="311" 
d="M294 675q-14 2 -28.5 2.5t-25.5 0.5q-56 0 -84.5 -32.5t-28.5 -90.5v-42h160q8 0 8 -9v-31q0 -8 -8 -8h-160v-457q0 -8 -8 -8h-36q-9 0 -9 8v546q0 83 44 127.5t116 44.5q12 0 29 -1t31 -3q8 -1 8 -9v-30q0 -8 -8 -8z" />
    <glyph glyph-name="g" unicode="g" 
d="M463 -3q0 -44 -11.5 -80t-36.5 -62t-63 -40.5t-91 -14.5q-59 0 -105 20t-85 55q-6 4 -1 12l18 26q5 7 11 1q33 -29 72 -47.5t90 -18.5q78 0 114 39.5t35 113.5v50q-32 -15 -69.5 -24t-73.5 -9q-47 0 -86.5 12.5t-67.5 37.5t-43.5 62.5t-15.5 88.5v105q0 54 16 92t45 62.5
t69 36t87 11.5q48 0 97.5 -10t87.5 -27q7 -3 7 -10v-482zM108 219q0 -82 44.5 -117.5t117.5 -35.5q38 0 75 9.5t65 25.5v354q-28 10 -67.5 16t-72.5 6q-76 0 -119 -36t-43 -117v-105z" />
    <glyph glyph-name="h" unicode="h" horiz-adv-x="553" 
d="M127 493q32 15 68 24t76 9q48 0 87.5 -12.5t67 -38t43 -65.5t15.5 -94v-308q0 -8 -8 -8h-36q-9 0 -9 8v307q0 87 -42 124.5t-121 37.5q-38 0 -74.5 -9t-66.5 -24v-436q0 -8 -8 -8h-36q-9 0 -9 8v699q0 8 9 8h36q8 0 8 -8v-214v0z" />
    <glyph glyph-name="i" unicode="i" horiz-adv-x="201" 
d="M82 0q-8 0 -8 8v498q0 9 8 9h37q8 0 8 -9v-498q0 -8 -8 -8h-37zM136 656q0 -15 -10 -25t-25 -10q-16 0 -26 10t-10 25q0 16 10 26t26 10q15 0 25 -10t10 -26z" />
    <glyph glyph-name="j" unicode="j" horiz-adv-x="209" 
d="M135 -27q0 -90 -36.5 -132t-99.5 -42q-13 0 -25.5 1t-24.5 3q-8 1 -8 10v31q0 9 8 8q12 -2 24 -3t21 -1q42 0 65 28t23 97v533q0 9 9 9h36q8 0 8 -9v-533zM145 656q0 -15 -10 -25t-26 -10q-15 0 -25.5 10t-10.5 25q0 16 10.5 26t25.5 10q16 0 26 -10t10 -26z" />
    <glyph glyph-name="k" unicode="k" horiz-adv-x="484" 
d="M423 0q-7 0 -11 5l-217 252l-68 -60v-189q0 -8 -8 -8h-36q-9 0 -9 8v699q0 8 9 8h36q8 0 8 -8v-445l272 249q3 4 10 4h46q5 0 6.5 -3t-2.5 -7l-228 -212l242 -283q8 -10 -4 -10h-46z" />
    <glyph glyph-name="l" unicode="l" horiz-adv-x="278" 
d="M264 -7q-13 -2 -29 -3t-28 -1q-64 0 -100.5 42t-36.5 132v544q0 8 8 8h36q9 0 9 -8v-547q0 -66 23 -94t65 -28q10 0 24 1t28 3q8 0 8 -8v-31q0 -9 -7 -10z" />
    <glyph glyph-name="m" unicode="m" horiz-adv-x="809" 
d="M383 476q35 23 73 36.5t84 13.5q90 0 145 -50.5t55 -145.5v-322q0 -8 -9 -8h-36q-8 0 -8 8v324q0 69 -38 107.5t-110 38.5q-38 0 -70.5 -11.5t-57.5 -28.5q11 -22 17.5 -48.5t6.5 -58.5v-323q0 -8 -9 -8h-36q-8 0 -8 8v324q0 69 -32.5 107.5t-104.5 38.5q-35 0 -64 -7
t-56 -18v-445q0 -8 -8 -8h-36q-9 0 -9 8v469q0 8 7 11q38 17 79 27.5t86 10.5q46 0 80 -13t59 -37z" />
    <glyph glyph-name="n" unicode="n" horiz-adv-x="551" 
d="M81 0q-9 0 -9 8v469q0 7 7 10q42 18 88.5 28.5t97.5 10.5q100 0 158.5 -50.5t58.5 -157.5v-310q0 -8 -8 -8h-36q-9 0 -9 8v308q0 85 -42.5 123t-121.5 38q-38 0 -74.5 -6.5t-65.5 -17.5v-445q0 -8 -8 -8h-36z" />
    <glyph glyph-name="o" unicode="o" 
d="M481 181q0 -42 -14 -77t-41.5 -60.5t-67 -40t-90.5 -14.5t-90.5 14.5t-66.5 40t-41.5 60.5t-14.5 77v152q0 41 14.5 76.5t41.5 61.5t66.5 40.5t90.5 14.5t90.5 -14.5t67 -40.5t41.5 -61.5t14 -76.5v-152zM109 181q0 -63 40 -103.5t119 -40.5q80 0 120 41t40 103v152
q0 62 -40 103t-120 41q-79 0 -119 -40.5t-40 -103.5v-152z" />
    <glyph glyph-name="p" unicode="p" 
d="M78 490q42 17 90.5 26.5t97.5 9.5t88.5 -12.5t68 -39t44 -67t15.5 -96.5v-108q0 -106 -58 -160t-156 -54q-40 0 -77 11t-66 29v-211q0 -8 -8 -8h-36q-9 0 -9 8v662q0 7 6 10zM265 37q79 0 121 39t42 127v108q0 89 -43 128t-120 39q-38 0 -74 -6.5t-66 -17.5v-373
q29 -20 65.5 -32t74.5 -12z" />
    <glyph glyph-name="q" unicode="q" horiz-adv-x="537" 
d="M54 311q0 56 15.5 96.5t44 67t68.5 39t89 12.5q48 0 96 -9.5t90 -26.5q7 -1 7 -10v-662q0 -8 -9 -8h-36q-8 0 -8 8v211q-29 -18 -65.5 -29t-77.5 -11q-98 0 -156 54t-58 160v108zM108 203q0 -88 42.5 -127t120.5 -39q39 0 75 11.5t65 31.5v375q-29 11 -65 17t-74 6
q-78 0 -121 -38.5t-43 -128.5v-108z" />
    <glyph glyph-name="r" unicode="r" horiz-adv-x="375" 
d="M81 0q-9 0 -9 8v472q0 7 7 10q37 17 81 26.5t88 9.5q25 0 50.5 -2.5t51.5 -6.5q8 -1 8 -9v-31q0 -9 -9 -7q-23 4 -47.5 6t-47.5 2q-35 0 -68.5 -6.5t-60.5 -17.5v-446q0 -8 -8 -8h-36z" />
    <glyph glyph-name="s" unicode="s" horiz-adv-x="467" 
d="M430 139q0 -69 -52 -109.5t-143 -40.5q-108 0 -193 65q-7 4 -3 11l17 28q5 8 12 2q38 -28 79.5 -43t88.5 -15q62 0 101 25.5t39 74.5q0 27 -12.5 44t-32.5 27.5t-45 17t-50 11.5q-29 6 -62.5 15t-61.5 26.5t-46.5 44t-18.5 66.5q0 34 15 59.5t40 42.5t58.5 26t71.5 9
q52 0 94 -13t81 -35q7 -5 3 -12l-16 -27q-4 -8 -12 -3q-32 19 -71 30t-81 11q-59 0 -95 -23t-36 -65q0 -26 12.5 -43t33 -28.5t47 -19t54.5 -13.5q32 -7 65 -15.5t59.5 -24.5t43 -41t16.5 -65z" />
    <glyph glyph-name="t" unicode="t" horiz-adv-x="310" 
d="M123 161q0 -57 28 -89.5t83 -32.5q10 0 25.5 0.5t29.5 1.5q8 2 8 -8v-32q0 -8 -8 -9q-14 -2 -30 -2.5t-27 -0.5q-74 0 -118 43t-44 127v476q0 8 8 8h32q7 0 9 -8l3 -122h153q8 0 8 -9v-31q0 -8 -8 -8h-152v-304v0z" />
    <glyph glyph-name="u" unicode="u" horiz-adv-x="544" 
d="M463 515q8 0 8 -9v-468q0 -7 -6 -10q-41 -18 -87 -28.5t-96 -10.5q-49 0 -88.5 12.5t-67 38t-42.5 65t-15 92.5v309q0 9 8 9h36q9 0 9 -9v-308q0 -84 41.5 -122.5t118.5 -38.5q37 0 72 7t64 18v444q0 9 9 9h36z" />
    <glyph glyph-name="v" unicode="v" horiz-adv-x="485" 
d="M218 0q-7 0 -9 7l-191 498q-4 10 7 10h39q7 0 9 -7l116 -312q13 -34 25.5 -69t26.5 -69h1q12 34 25 69t26 69l116 312q2 7 10 7h39q9 0 7 -10l-191 -498q-4 -7 -10 -7h-46z" />
    <glyph glyph-name="w" unicode="w" horiz-adv-x="746" 
d="M184 0q-6 0 -9 7l-155 498q-2 10 7 10h38q8 0 9 -7l99 -322q10 -31 17.5 -61.5t15.5 -61.5h1q8 29 16 58.5t16 55.5l105 321q2 7 9 7h41q7 0 9 -7l105 -321q8 -26 16 -55.5t16 -58.5h1q3 11 7.5 27t9 33.5t9 34t7.5 28.5l99 322q1 7 9 7h38q9 0 6 -10l-154 -498
q-4 -7 -9 -7h-45q-6 0 -9 7l-112 348q-6 19 -11.5 40.5t-11.5 42.5h-1q-6 -21 -11.5 -42.5t-11.5 -40.5l-113 -348q-2 -7 -8 -7h-45v0z" />
    <glyph glyph-name="x" unicode="x" horiz-adv-x="475" 
d="M455 10q3 -4 1.5 -7t-6.5 -3h-45q-7 0 -10 5l-157 219l-158 -219q-3 -5 -10 -5h-45q-5 0 -6.5 3t1.5 7l185 252l-174 243q-2 4 -1 7t6 3h44q7 0 10 -6l148 -209l147 209q3 6 10 6h44q5 0 6.5 -3t-1.5 -7l-174 -243z" />
    <glyph glyph-name="y" unicode="y" horiz-adv-x="545" 
d="M418 506q0 9 9 9h36q8 0 8 -9v-509q0 -45 -12 -81t-36.5 -62t-62 -40t-89.5 -14q-60 0 -105.5 20t-83.5 54q-6 6 -1 12l19 26q5 7 11 1q32 -26 70.5 -45t89.5 -20q76 1 112.5 39.5t35.5 112.5v49q-31 -14 -67 -22.5t-74 -8.5q-44 0 -82 12t-66 36t-44.5 60.5t-16.5 86.5
v293q0 9 8 9h36q9 0 9 -9v-291q0 -39 12 -67t33.5 -46t51 -26.5t65.5 -8.5q38 0 71.5 8.5t62.5 24.5v406z" />
    <glyph glyph-name="z" unicode="z" horiz-adv-x="456" 
d="M39 0q-8 0 -8 8v19q0 6 3 11l310 429h-290q-8 0 -8 8v31q0 9 8 9h355q8 0 8 -9v-17q0 -6 -3 -10l-311 -431h313q9 0 9 -9v-31q0 -8 -9 -8h-377z" />
    <glyph glyph-name="braceleft" unicode="{" horiz-adv-x="267" 
d="M211 -117q-56 1 -80.5 28.5t-24.5 89.5v223q0 49 -13 74t-46 32q-8 1 -8 9v34q0 8 8 9q33 7 46 32t13 74v223q0 61 25 89t79 29h16q8 0 8 -8v-33q0 -8 -8 -8h-13q-31 -1 -44 -18t-13 -54v-227q0 -52 -18.5 -84.5t-51.5 -40.5q33 -8 51.5 -40.5t18.5 -84.5v-227
q0 -40 14 -55.5t44 -16.5h12q8 0 8 -8v-33q0 -8 -8 -8h-15z" />
    <glyph glyph-name="bar" unicode="|" horiz-adv-x="224" 
d="M95 -139q-8 0 -8 8v984q0 8 8 8h34q8 0 8 -8v-984q0 -8 -8 -8h-34z" />
    <glyph glyph-name="braceright" unicode="}" horiz-adv-x="267" 
d="M41 -117q-8 0 -8 8v33q0 8 8 8h12q30 1 44 16.5t14 55.5v227q0 52 18.5 84.5t51.5 40.5q-33 8 -51.5 40.5t-18.5 84.5v227q0 37 -13 54t-44 18h-13q-8 0 -8 8v33q0 8 8 8h16q54 -1 79 -29t25 -89v-223q0 -49 13 -74t46 -32q8 -1 8 -9v-34q0 -8 -8 -9q-33 -7 -46 -32
t-13 -74v-223q0 -62 -24.5 -89.5t-80.5 -28.5h-15z" />
    <glyph glyph-name="asciitilde" unicode="~" horiz-adv-x="561" 
d="M485 342q-20 -21 -45 -33.5t-62 -12.5q-28 0 -52.5 8t-48.5 16q-26 9 -48.5 15t-40.5 6q-23 0 -41.5 -7.5t-32.5 -20.5q-7 -6 -13 -1l-22 20q-7 5 -1 11q20 21 44.5 33t60.5 12q26 0 51.5 -7.5t51.5 -16.5q26 -8 46.5 -14.5t40.5 -6.5q45 0 76 29q7 4 12 0l23 -19
q7 -7 1 -11z" />
    <glyph glyph-name="exclamdown" unicode="&#xa1;" horiz-adv-x="216" 
d="M124 361q9 0 9 -8l3 -373v-166q0 -8 -9 -8h-39q-8 0 -8 8v166l3 373q0 8 8 8h33zM68 486q0 17 11.5 28.5t28.5 11.5t28 -11.5t11 -28.5t-11 -28.5t-28 -11.5t-28.5 11.5t-11.5 28.5z" />
    <glyph glyph-name="cent" unicode="&#xa2;" horiz-adv-x="499" 
d="M446 62q5 -8 -2 -12q-36 -28 -74.5 -43t-85.5 -17v-67q0 -8 -8 -8h-23q-9 0 -9 8v68q-42 3 -75.5 19t-57 40.5t-35.5 57t-12 70.5v159q0 37 12.5 70t35.5 57.5t56.5 40.5t75.5 19v72q0 8 9 8h23q8 0 8 -8v-71q41 -2 76.5 -15t69.5 -36q7 -6 3 -12l-17 -26q-5 -6 -12 -2
q-62 43 -135 43q-37 0 -65 -11t-47.5 -29.5t-29.5 -44t-10 -55.5v-159q0 -60 39.5 -100.5t112.5 -40.5q78 0 148 52q8 5 12 -2z" />
    <glyph glyph-name="sterling" unicode="&#xa3;" horiz-adv-x="544" 
d="M58 0q-8 0 -8 8v30q0 8 8 8q35 3 50.5 31t15.5 76v204h-66q-8 0 -8 9v29q0 8 8 8h66v140q0 39 12.5 72.5t36.5 58t59 38.5t79 14q51 0 95.5 -16t77.5 -44q6 -4 1 -12l-17 -23q-5 -8 -11 -2q-32 23 -68.5 36.5t-77.5 13.5q-35 0 -61 -10.5t-43 -29t-26 -43t-9 -52.5v-141
h216q9 0 9 -8v-29q0 -9 -9 -9h-216v-205q0 -37 -9 -64.5t-32 -41.5h356q8 0 8 -8v-30q0 -8 -8 -8h-429z" />
    <glyph glyph-name="currency" unicode="&#xa4;" horiz-adv-x="636" 
d="M474 156q-31 -25 -70 -38.5t-86 -13.5t-86 13.5t-69 38.5l-50 -50q-6 -6 -13 0l-20 21q-6 6 0 12l50 50q-25 30 -38.5 69.5t-13.5 86.5q0 46 13.5 85t38.5 70l-50 50q-6 6 0 12l20 20q7 7 13 0l50 -49q30 25 69.5 38.5t85.5 13.5q47 0 86 -13.5t70 -38.5l49 49q6 6 13 0
l20 -20q8 -6 0 -12l-49 -50q24 -31 37.5 -70t13.5 -85t-13.5 -85.5t-37.5 -70.5l49 -50q8 -6 0 -12l-20 -21q-7 -7 -13 0zM125 345q0 -44 14.5 -80t40 -61.5t61 -39.5t77.5 -14t78 14.5t62 40t40 61.5t14 79q0 42 -15 78t-41 61.5t-61 40t-77 14.5t-77.5 -14.5t-61 -40
t-40 -61t-14.5 -78.5z" />
    <glyph glyph-name="yen" unicode="&#xa5;" horiz-adv-x="564" 
d="M531 715q11 0 6 -10l-211 -394h114q8 0 8 -9v-25q0 -9 -8 -9h-132v-77h132q8 0 8 -8v-26q0 -8 -8 -8h-132v-141q0 -8 -8 -8h-37q-8 0 -8 8v141h-131q-8 0 -8 8v26q0 8 8 8h131v77h-131q-8 0 -8 9v25q0 9 8 9h114l-211 394q-5 10 6 10h42q7 0 10 -6l197 -379l196 379
q3 6 11 6h42z" />
    <glyph glyph-name="brokenbar" unicode="&#xa6;" horiz-adv-x="228" 
d="M97 435q-8 0 -8 8v410q0 8 8 8h34q8 0 8 -8v-410q0 -8 -8 -8h-34zM97 -139q-8 0 -8 8v410q0 8 8 8h34q8 0 8 -8v-410q0 -8 -8 -8h-34z" />
    <glyph glyph-name="section" unicode="&#xa7;" horiz-adv-x="506" 
d="M435 -18q0 -38 -14 -68.5t-38.5 -52.5t-58.5 -33.5t-74 -11.5q-54 0 -102 22.5t-84 62.5q-5 7 0 12l20 25q5 5 12 -1q29 -29 65 -50t89 -21q62 0 98 31.5t36 83.5q0 31 -13 52t-34.5 36.5t-49 27t-57.5 22.5q-32 12 -64 25t-57 32t-40.5 46.5t-15.5 68.5q0 60 35 95
t97 48q-18 10 -36 23t-32.5 31t-23.5 40t-9 50q0 36 14.5 64t38.5 46.5t56 28t67 9.5q42 0 79.5 -13t74.5 -36q8 -5 3 -11l-17 -25q-4 -7 -12 -2q-29 17 -59.5 28t-68.5 11q-58 0 -91 -27t-33 -73q0 -28 12.5 -48.5t32.5 -36t46.5 -28t55.5 -24.5q32 -14 63.5 -29
t56.5 -35.5t40.5 -49t15.5 -68.5q0 -51 -28 -89.5t-79 -51.5q36 -19 59.5 -52.5t23.5 -83.5zM105 293q0 -30 13.5 -51t39 -37.5t62.5 -30.5t85 -29q47 6 75 35t28 77q0 28 -11 48t-33 36.5t-53.5 31t-72.5 32.5q-57 -3 -95 -32t-38 -80z" />
    <glyph glyph-name="dieresis" unicode="&#xa8;" horiz-adv-x="252" 
d="M75 656q0 -16 -9.5 -25t-25.5 -9q-15 0 -24.5 9t-9.5 25q0 17 9.5 26t24.5 9q16 0 25.5 -9t9.5 -26zM255 656q0 -16 -9.5 -25t-24.5 -9t-25 9t-10 25q0 17 10 26t25 9t24.5 -9t9.5 -26z" />
    <glyph glyph-name="copyright" unicode="&#xa9;" horiz-adv-x="842" 
d="M784 354q0 -87 -28.5 -155t-78 -114.5t-115 -71t-140.5 -24.5t-141.5 24.5t-116 71t-78 114.5t-28.5 155q0 88 28.5 157t78 117t116 73t141.5 25t140.5 -25t115 -73t78 -117t28.5 -157zM89 354q0 -82 26.5 -144.5t71.5 -105t105.5 -64t129.5 -21.5q68 0 128 21.5t105 64
t71.5 105t26.5 144.5q0 85 -26.5 149t-71.5 107t-105 64.5t-128 21.5t-128.5 -22t-106 -65t-72 -107t-26.5 -148zM550 206q-23 -23 -55.5 -38t-75.5 -15q-31 0 -57 10t-45 27.5t-29.5 41.5t-10.5 53v138q0 29 10.5 53t29.5 41.5t44.5 27.5t55.5 10q42 0 73 -15t52 -37
q5 -6 1 -12l-15 -18q-6 -6 -12 -1q-17 18 -40 30.5t-58 11.5q-44 0 -71.5 -26.5t-27.5 -64.5v-138q0 -38 27.5 -64.5t72.5 -26.5q35 0 62 12.5t45 29.5q6 5 12 -2l12 -18q4 -8 0 -10z" />
    <glyph glyph-name="ordfeminine" unicode="&#xaa;" horiz-adv-x="506" 
d="M65 474q33 23 79.5 37.5t103.5 14.5q94 0 142.5 -49t48.5 -140v-304q0 -7 -7 -10q-33 -13 -81.5 -23.5t-104.5 -10.5q-43 0 -81.5 10t-67 30.5t-45 50.5t-16.5 71q0 78 56.5 118t153.5 40q38 0 74.5 -5.5t65.5 -10.5v43q0 67 -32 104t-108 37q-45 0 -85 -12t-68 -29
q-6 -5 -11 2l-17 26q-5 7 0 10zM90 151q0 -27 11.5 -48t32.5 -36t49.5 -22.5t62.5 -7.5q42 0 78 7.5t62 16.5v186q-28 6 -65 10.5t-75 4.5q-78 0 -117 -28.5t-39 -82.5z" />
    <glyph glyph-name="guillemotleft" unicode="&#xab;" horiz-adv-x="491" 
d="M192 71q-2 0 -5 1t-5 4l-141 209q-3 6 0 12l141 209q2 3 5 4t5 1h40q5 0 6.5 -3t-1.5 -7l-142 -210l142 -210q3 -4 1.5 -7t-6.5 -3h-40zM398 71q-2 0 -5 1t-5 4l-141 209q-3 6 0 12l141 209q2 3 5 4t5 1h40q5 0 6.5 -3t-1.5 -7l-142 -210l142 -210q3 -4 1.5 -7t-6.5 -3
h-40z" />
    <glyph glyph-name="logicalnot" unicode="&#xac;" horiz-adv-x="561" 
d="M452 202q-9 0 -9 8v148h-373q-8 0 -8 8v34q0 8 8 8h415q8 0 8 -8v-190q0 -8 -8 -8h-33z" />
    <glyph glyph-name="registered" unicode="&#xae;" horiz-adv-x="526" 
d="M471 518q0 -50 -16.5 -88.5t-45 -65t-66 -40.5t-80.5 -14t-80.5 14t-66 40.5t-45 65t-16.5 88.5q0 49 16.5 87.5t45 65.5t66 41t80.5 14t80.5 -14t66 -41t45 -65.5t16.5 -87.5zM81 518q0 -45 14 -79t39 -57t58.5 -35t71.5 -12q37 0 70 12t58 35t39 57t14 79t-14 79
t-39 57.5t-58 35t-70 11.5q-38 0 -71.5 -11.5t-58.5 -35t-39 -57.5t-14 -79zM204 421q-8 0 -8 8v185q0 8 8 8h69q32 0 51.5 -15.5t19.5 -46.5q0 -27 -15.5 -42t-42.5 -17l56 -70q7 -10 -5 -10h-11q-8 0 -10 5l-59 74h-37v-71q0 -8 -8 -8h-8zM220 523h52q47 0 47 37
q0 38 -47 38h-52v-75z" />
    <glyph glyph-name="macron" unicode="&#xaf;" horiz-adv-x="265" 
d="M0 656q0 9 8 9h242q8 0 8 -9v-26q0 -9 -8 -9h-242q-8 0 -8 9v26z" />
    <glyph glyph-name="degree" unicode="&#xb0;" horiz-adv-x="342" 
d="M294 604q0 -57 -35 -89.5t-87 -32.5q-54 0 -88.5 32.5t-34.5 89.5q0 58 34.5 90t88.5 32q52 0 87 -32t35 -90zM88 603q0 -43 24.5 -64t59.5 -21t59 21t24 64t-24 64.5t-59 21.5t-59.5 -21.5t-24.5 -64.5z" />
    <glyph glyph-name="plusminus" unicode="&#xb1;" horiz-adv-x="561" 
d="M263 179q-8 0 -8 8v177h-182q-8 0 -8 9v33q0 9 8 9h182v175q0 9 8 9h35q8 0 8 -9v-175h182q8 0 8 -9v-33q0 -9 -8 -9h-182v-177q0 -8 -8 -8h-35zM73 59q-8 0 -8 9v33q0 9 8 9h415q8 0 8 -9v-33q0 -9 -8 -9h-415z" />
    <glyph glyph-name="two.sups" unicode="&#xb2;" horiz-adv-x="313" 
d="M38 410q-9 0 -9 8v17q0 7 4 11l94 95q48 51 77 88.5t29 75.5q0 28 -20 44.5t-57 16.5q-32 0 -54.5 -14t-39.5 -31q-6 -6 -12 0l-11 15q-4 7 0 12q19 20 48.5 37.5t69.5 17.5q57 0 85.5 -29t28.5 -68q0 -47 -31 -90.5t-89 -101.5l-65 -67h186q8 0 8 -8v-21q0 -8 -8 -8
h-234z" />
    <glyph glyph-name="three.sups" unicode="&#xb3;" horiz-adv-x="316" 
d="M281 530q0 -27 -9.5 -49.5t-26 -39.5t-39 -26.5t-49.5 -9.5q-43 0 -74 16.5t-54 42.5q-5 7 -1 12l13 14q5 5 11 0q43 -48 104 -48q39 0 63.5 26t24.5 66q0 33 -22 57t-67 24q-21 0 -36 -3q-9 0 -10 5l-4 9q-3 7 2 12l84 94q7 8 14.5 15.5t13.5 15.5h-167q-8 0 -8 8v19
q0 8 8 8h214q8 0 8 -8v-11q0 -5 -5 -10l-115 -128q5 1 9.5 1h9.5q50 0 79 -32t29 -80z" />
    <glyph glyph-name="acute" unicode="&#xb4;" horiz-adv-x="186" 
d="M11 598q-5 0 -7.5 3t0.5 8l82 133q3 5 10 5h41q12 0 5 -10l-93 -133q-3 -6 -10 -6h-28z" />
    <glyph glyph-name="paragraph" unicode="&#xb6;" horiz-adv-x="619" 
d="M236 -139q-8 0 -8 8v449q-48 0 -84.5 16t-62 43t-38.5 63t-13 76q0 41 13.5 77t40 63t65.5 43t89 16h278q9 0 9 -8v-838q0 -8 -9 -8h-33q-9 0 -9 8v796h-196v-796q0 -8 -9 -8h-33z" />
    <glyph glyph-name="periodcentered" unicode="&#xb7;" horiz-adv-x="216" 
d="M146 309q0 -17 -11 -28t-28 -11t-27.5 11t-10.5 28t10.5 28t27.5 11t28 -11t11 -28z" />
    <glyph glyph-name="cedilla" unicode="&#xb8;" horiz-adv-x="172" 
d="M176 -125q0 -37 -28.5 -58t-76.5 -21q-14 0 -29.5 2t-29.5 7q-7 3 -7 10v17q0 9 10 7q14 -5 27 -6.5t24 -1.5q30 0 48 12t18 35q0 22 -17 32.5t-57 11.5q-8 0 -10 5q-3 5 0 9l23 61q3 6 10 6h18q11 0 7 -9l-19 -49q42 -2 65.5 -19.5t23.5 -50.5z" />
    <glyph glyph-name="one.sups" unicode="&#xb9;" horiz-adv-x="202" 
d="M115 411q-8 0 -8 8v336l-65 -45q-7 -7 -12 2l-10 14q-4 7 3 11l83 59q4 3 10 3h21q8 0 8 -8v-372q0 -8 -8 -8h-22z" />
    <glyph glyph-name="guillemotright" unicode="&#xbb;" horiz-adv-x="491" 
d="M53 71q-5 0 -6.5 3t1.5 7l142 210l-142 210q-3 4 -1.5 7t6.5 3h40q2 0 5 -1t5 -4l141 -209q3 -6 0 -12l-141 -209q-2 -3 -5 -4t-5 -1h-40zM259 71q-5 0 -6.5 3t1.5 7l142 210l-142 210q-3 4 -1.5 7t6.5 3h40q2 0 5 -1t5 -4l141 -209q3 -6 0 -12l-141 -209q-2 -3 -5 -4
t-5 -1h-40z" />
    <glyph glyph-name="onequarter" unicode="&#xbc;" horiz-adv-x="799" 
d="M106 5q-3 -5 -10 -5h-25q-5 0 -6.5 3t1.5 7l556 700q3 5 10 5h25q5 0 6.5 -3t-1.5 -7zM698 0q-8 0 -8 8v85h-182q-8 0 -8 8v13q0 4 3 10l145 258q3 6 9 6h22q13 0 6 -10l-138 -248h143v84q0 9 8 9h21q9 0 9 -9v-84h32q8 0 8 -8v-21q0 -8 -8 -8h-32v-85q0 -8 -9 -8h-21z
M132 327q-8 0 -8 8v336l-65 -45q-7 -7 -12 2l-10 14q-4 7 3 11l83 59q4 3 10 3h21q8 0 8 -8v-372q0 -8 -8 -8h-22z" />
    <glyph glyph-name="onehalf" unicode="&#xbd;" horiz-adv-x="839" 
d="M113 5q-3 -5 -10 -5h-25q-5 0 -6.5 3t1.5 7l556 700q3 5 10 5h25q5 0 6.5 -3t-1.5 -7zM556 0q-9 0 -9 8v17q0 7 4 11l94 95q48 51 77 88.5t29 75.5q0 28 -20 44.5t-57 16.5q-32 0 -54.5 -14t-39.5 -31q-6 -6 -12 0l-11 15q-4 7 0 12q19 20 48.5 37.5t69.5 17.5
q57 0 85.5 -29t28.5 -68q0 -47 -31 -90.5t-89 -101.5l-65 -67h186q8 0 8 -8v-21q0 -8 -8 -8h-234zM130 327q-8 0 -8 8v336l-65 -45q-7 -7 -12 2l-10 14q-4 7 3 11l83 59q4 3 10 3h21q8 0 8 -8v-372q0 -8 -8 -8h-22z" />
    <glyph glyph-name="threequarters" unicode="&#xbe;" horiz-adv-x="859" 
d="M179 5q-3 -5 -10 -5h-25q-5 0 -6.5 3t1.5 7l556 700q3 5 10 5h25q5 0 6.5 -3t-1.5 -7zM756 0q-8 0 -8 8v85h-182q-8 0 -8 8v13q0 4 3 10l145 258q3 6 9 6h22q13 0 6 -10l-138 -248h143v84q0 9 8 9h21q9 0 9 -9v-84h32q8 0 8 -8v-21q0 -8 -8 -8h-32v-85q0 -8 -9 -8h-21z
M295 447q0 -27 -9.5 -49.5t-26 -39.5t-39 -26.5t-49.5 -9.5q-43 0 -74 16.5t-54 42.5q-5 7 -1 12l13 14q5 5 11 0q43 -48 104 -48q39 0 63.5 26t24.5 66q0 33 -22 57t-67 24q-21 0 -36 -3q-9 0 -10 5l-4 9q-3 7 2 12l84 94q7 8 14.5 15.5t13.5 15.5h-167q-8 0 -8 8v19
q0 8 8 8h214q8 0 8 -8v-11q0 -5 -5 -10l-115 -128q5 1 9.5 1h9.5q50 0 79 -32t29 -80z" />
    <glyph glyph-name="questiondown" unicode="&#xbf;" horiz-adv-x="454" 
d="M265 364q8 0 8 -8v-64q0 -38 -13.5 -65t-34 -48t-44 -39t-44 -38.5t-34 -46.5t-13.5 -63q0 -28 8 -54t25.5 -46.5t45.5 -33t68 -12.5q53 0 91 20.5t68 51.5q6 8 11 -1l20 -26q3 -7 -2 -12q-29 -32 -76 -56.5t-113 -24.5q-45 0 -81.5 14t-62.5 39.5t-40 61t-14 79.5
q0 43 13.5 73t33.5 52.5t44 41t44 38t33.5 44.5t13.5 60v55q0 8 9 8h36zM208 488q0 17 11 28t28 11t27.5 -11t10.5 -28t-10.5 -28t-27.5 -11t-28 11t-11 28z" />
    <glyph glyph-name="Agrave" unicode="&#xc0;" horiz-adv-x="602" 
d="M17 0q-9 0 -6 10l256 698q3 7 9 7h50q5 0 9 -7l257 -698q2 -10 -7 -10h-41q-7 0 -10 7l-73 202h-320l-73 -202q-4 -7 -9 -7h-42zM158 260h286l-141 391h-3zM292.004 792q5 -5 11 -5h31.998q4.99902 0 6.49902 3t-1.5 8l-105.993 133q-4 5 -9.99902 5h-44.998
q-12.999 0 -4.99902 -10z" />
    <glyph glyph-name="Aacute" unicode="&#xc1;" horiz-adv-x="602" 
d="M17 0q-9 0 -6 10l256 698q3 7 9 7h50q5 0 9 -7l257 -698q2 -10 -7 -10h-41q-7 0 -10 7l-73 202h-320l-73 -202q-4 -7 -9 -7h-42zM158 260h286l-141 391h-3zM308 792q-5 -5 -11 -5h-32q-5 0 -6.5 3t1.5 8l106 133q4 5 10 5h45q13 0 5 -10z" />
    <glyph glyph-name="Acircumflex" unicode="&#xc2;" horiz-adv-x="602" 
d="M17 0q-9 0 -6 10l256 698q3 7 9 7h50q5 0 9 -7l257 -698q2 -10 -7 -10h-41q-7 0 -10 7l-73 202h-320l-73 -202q-4 -7 -9 -7h-42zM158 260h286l-141 391h-3zM151 787q-13 0 -4 11l127 133q4 5 10 5h34q7 0 11 -5l127 -133q4 -5 2 -8t-7 -3h-37q-4 0 -11 5l-102 103
l-102 -103q-5 -5 -11 -5h-37z" />
    <glyph glyph-name="Atilde" unicode="&#xc3;" horiz-adv-x="602" 
d="M17 0q-9 0 -6 10l256 698q3 7 9 7h50q5 0 9 -7l257 -698q2 -10 -7 -10h-41q-7 0 -10 7l-73 202h-320l-73 -202q-4 -7 -9 -7h-42zM158 260h286l-141 391h-3zM445 858q-7 -22 -27 -42t-48 -20q-17 0 -34.5 7t-34.5 17q-17 9 -32 16t-31 7q-17 0 -27 -10.5t-18 -24.5
q-4 -8 -11 -4l-21 11q-7 4 -4 12q8 21 27 40t48 19q20 0 37.5 -8t34.5 -16q15 -8 30.5 -15.5t30.5 -7.5t25 9.5t18 26.5q4 7 11 4l21 -12q7 -3 5 -9z" />
    <glyph glyph-name="Adieresis" unicode="&#xc4;" horiz-adv-x="602" 
d="M17 0q-9 0 -6 10l256 698q3 7 9 7h50q5 0 9 -7l257 -698q2 -10 -7 -10h-41q-7 0 -10 7l-73 202h-320l-73 -202q-4 -7 -9 -7h-42zM158 260h286l-141 391h-3zM236 863q0 -16 -10 -25.5t-26 -9.5t-25.5 9.5t-9.5 25.5t9.5 26t25.5 10t26 -10t10 -26zM437 863
q0 -16 -10 -25.5t-26 -9.5t-26 9.5t-10 25.5t10 26t26 10t26 -10t10 -26z" />
    <glyph glyph-name="Aring" unicode="&#xc5;" horiz-adv-x="602" 
d="M17 0q-9 0 -6 10l256 698q3 7 9 7h50q5 0 9 -7l257 -698q2 -10 -7 -10h-41q-7 0 -10 7l-73 202h-320l-73 -202q-4 -7 -9 -7h-42zM158 260h286l-141 391h-3zM402 859q0 -46 -28 -71.5t-73 -25.5t-74 26t-29 71t29 71.5t74 26.5t73 -26.5t28 -71.5zM234 859q0 -29 18 -46
t49 -17t48 17t17 46t-17 46t-48 17t-49 -17t-18 -46z" />
    <glyph glyph-name="AE" unicode="&#xc6;" horiz-adv-x="846" 
d="M464 51h320q9 0 9 -8v-35q0 -8 -9 -8h-366q-9 0 -9 8v199h-240l-105 -201q-3 -6 -10 -6h-42q-11 0 -6 10l369 699q3 6 10 6h391q8 0 8 -8v-35q0 -8 -8 -8h-312v-276h293q9 0 9 -8v-35q0 -8 -9 -8h-293v-286zM194 258h215v382l1 26z" />
    <glyph glyph-name="Ccedilla" unicode="&#xc7;" horiz-adv-x="579" 
d="M546 69q-45 -38 -99 -57.5t-110 -21.5l-18 -46q42 -2 66.5 -19t24.5 -50q0 -38 -29 -59t-78 -21q-32 0 -60 9q-7 3 -7 10v17q0 10 10 7q14 -5 27 -6.5t25 -1.5q31 0 49 12t18 35q1 22 -16.5 32.5t-59.5 11.5q-8 0 -10 5q-3 5 0 9l21 55q-53 3 -95.5 21t-72.5 49t-46 74
t-16 97v253q0 56 18 101t50.5 76.5t78 48t101.5 16.5q57 0 111.5 -18.5t100.5 -54.5q7 -4 2 -11l-20 -29q-5 -7 -12 -1q-40 30 -87 46t-96 16q-47 0 -83 -14t-60 -39.5t-36.5 -60t-12.5 -76.5v-253q0 -42 12.5 -77t37 -60t60.5 -39t84 -14q54 0 104.5 18t92.5 53q7 6 12 -2
l20 -29q5 -7 -2 -12z" />
    <glyph glyph-name="Egrave" unicode="&#xc8;" horiz-adv-x="570" 
d="M149 51h364q8 0 8 -8v-35q0 -8 -8 -8h-411q-8 0 -8 8v699q0 8 8 8h396q9 0 9 -8v-35q0 -8 -9 -8h-349v-274h328q8 0 8 -9v-34q0 -8 -8 -8h-328v-288zM182 926q-8 10 5 10h45q6 0 10 -5l106 -133q3 -5 1.5 -8t-6.5 -3h-32q-6 0 -11 5z" />
    <glyph glyph-name="Eacute" unicode="&#xc9;" horiz-adv-x="570" 
d="M149 51h364q8 0 8 -8v-35q0 -8 -8 -8h-411q-8 0 -8 8v699q0 8 8 8h396q9 0 9 -8v-35q0 -8 -9 -8h-349v-274h328q8 0 8 -9v-34q0 -8 -8 -8h-328v-288zM309 792q-5 -5 -11 -5h-32q-5 0 -6.5 3t1.5 8l106 133q4 5 10 5h45q13 0 5 -10z" />
    <glyph glyph-name="Ecircumflex" unicode="&#xca;" horiz-adv-x="570" 
d="M149 51h364q8 0 8 -8v-35q0 -8 -8 -8h-411q-8 0 -8 8v699q0 8 8 8h396q9 0 9 -8v-35q0 -8 -9 -8h-349v-274h328q8 0 8 -9v-34q0 -8 -8 -8h-328v-288zM152 787q-13 0 -4 11l127 133q4 5 10 5h34q7 0 11 -5l127 -133q4 -5 2 -8t-7 -3h-37q-4 0 -11 5l-102 103l-102 -103
q-5 -5 -11 -5h-37z" />
    <glyph glyph-name="Edieresis" unicode="&#xcb;" horiz-adv-x="570" 
d="M149 51h364q8 0 8 -8v-35q0 -8 -8 -8h-411q-8 0 -8 8v699q0 8 8 8h396q9 0 9 -8v-35q0 -8 -9 -8h-349v-274h328q8 0 8 -9v-34q0 -8 -8 -8h-328v-288zM243 863q0 -16 -10 -25.5t-26 -9.5t-25.5 9.5t-9.5 25.5t9.5 26t25.5 10t26 -10t10 -26zM444 863q0 -16 -10 -25.5
t-26 -9.5t-26 9.5t-10 25.5t10 26t26 10t26 -10t10 -26z" />
    <glyph glyph-name="Igrave" unicode="&#xcc;" horiz-adv-x="243" 
d="M149 8q0 -8 -8 -8h-39q-8 0 -8 8v699q0 8 8 8h39q8 0 8 -8v-699zM-5 926q-8 10 5 10h45q6 0 10 -5l106 -133q3 -5 1.5 -8t-6.5 -3h-32q-6 0 -11 5z" />
    <glyph glyph-name="Iacute" unicode="&#xcd;" horiz-adv-x="243" 
d="M148 8q0 -8 -8 -8h-39q-8 0 -8 8v699q0 8 8 8h39q8 0 8 -8v-699zM128 792q-5 -5 -11 -5h-32q-5 0 -6.5 3t1.5 8l106 133q4 5 10 5h45q13 0 5 -10z" />
    <glyph glyph-name="Icircumflex" unicode="&#xce;" horiz-adv-x="243" 
d="M-3 787q-12 0 -5 11l101 133q3 5 10 5h33q7 0 10 -5l108 -133q6 -11 -5 -11h-35q-7 0 -10 6l-85 103l-78 -103q-3 -6 -10 -6h-34zM149 8q0 -8 -8 -8h-39q-8 0 -8 8v699q0 8 8 8h39q8 0 8 -8v-699z" />
    <glyph glyph-name="Idieresis" unicode="&#xcf;" horiz-adv-x="243" 
d="M103 0q-9 0 -9 8v699q0 8 9 8h38q8 0 8 -8v-699q0 -8 -8 -8h-38zM73 863q0 -16 -10 -25.5t-25 -9.5q-16 0 -26 9.5t-10 25.5t10 26t26 10q15 0 25 -10t10 -26zM242 863q0 -16 -9.5 -25.5t-26.5 -9.5q-16 0 -25.5 9.5t-9.5 25.5t9.5 26t25.5 10q17 0 26.5 -10t9.5 -26z
" />
    <glyph glyph-name="Eth" unicode="&#xd0;" horiz-adv-x="680" 
d="M359 715q58 0 105 -17t79.5 -49.5t50 -79.5t17.5 -106v-214q0 -59 -17.5 -105.5t-50.5 -78.5t-79.5 -48.5t-104.5 -16.5h-240q-8 0 -8 8v345h-90q-9 0 -9 8v24q0 9 9 9h90v313q0 8 8 8h240zM359 52q92 0 143.5 50t51.5 147v214q0 97 -51.5 149t-143.5 52h-193v-270h186
q8 0 8 -9v-24q0 -8 -8 -8h-186v-301h193z" />
    <glyph glyph-name="Ntilde" unicode="&#xd1;" horiz-adv-x="701" 
d="M102 0q-8 0 -8 8v699q0 8 8 8h44q7 0 10 -6l329 -510q17 -28 35 -57t34 -57l2 3q-2 63 -3 133t-1 133v353q0 8 9 8h38q8 0 8 -8v-699q0 -8 -8 -8h-44q-7 0 -10 5l-332 510q-17 26 -34 55t-32 55l-1 -1q0 -28 0.5 -60t1 -64.5t1 -64.5t0.5 -60v-367q0 -8 -9 -8h-38z
M495 858q-7 -22 -27 -42t-48 -20q-17 0 -34.5 7t-34.5 17q-17 9 -32 16t-31 7q-17 0 -27 -10.5t-18 -24.5q-4 -8 -11 -4l-21 11q-7 4 -4 12q8 21 27 40t48 19q20 0 37.5 -8t34.5 -16q15 -8 30.5 -15.5t30.5 -7.5t25 9.5t18 26.5q4 7 11 4l21 -12q7 -3 5 -9z" />
    <glyph glyph-name="Ograve" unicode="&#xd2;" horiz-adv-x="669" 
d="M600 235q0 -54 -19 -99.5t-53.5 -78t-83.5 -50.5t-109 -18q-61 0 -110 18t-83.5 50.5t-53.5 78t-19 99.5v239q0 57 18.5 103.5t53 79.5t84 51t110.5 18t110 -18t83.5 -51t53 -79.5t18.5 -103.5v-239zM124 235q0 -43 14.5 -79t42 -61.5t66.5 -39.5t88 -14t88 14t66 39.5
t41.5 61.5t14.5 79v239q0 92 -56 146t-154 54q-99 0 -155 -54t-56 -146v-239zM217 926q-8 10 5 10h45q6 0 10 -5l106 -133q3 -5 1.5 -8t-6.5 -3h-32q-6 0 -11 5z" />
    <glyph glyph-name="Oacute" unicode="&#xd3;" horiz-adv-x="669" 
d="M600 235q0 -54 -19 -99.5t-53.5 -78t-83.5 -50.5t-109 -18q-61 0 -110 18t-83.5 50.5t-53.5 78t-19 99.5v239q0 57 18.5 103.5t53 79.5t84 51t110.5 18t110 -18t83.5 -51t53 -79.5t18.5 -103.5v-239zM124 235q0 -43 14.5 -79t42 -61.5t66.5 -39.5t88 -14t88 14t66 39.5
t41.5 61.5t14.5 79v239q0 92 -56 146t-154 54q-99 0 -155 -54t-56 -146v-239zM335 792q-5 -5 -11 -5h-32q-5 0 -6.5 3t1.5 8l106 133q4 5 10 5h45q13 0 5 -10z" />
    <glyph glyph-name="Ocircumflex" unicode="&#xd4;" horiz-adv-x="669" 
d="M600 235q0 -54 -19 -99.5t-53.5 -78t-83.5 -50.5t-109 -18q-61 0 -110 18t-83.5 50.5t-53.5 78t-19 99.5v239q0 57 18.5 103.5t53 79.5t84 51t110.5 18t110 -18t83.5 -51t53 -79.5t18.5 -103.5v-239zM124 235q0 -43 14.5 -79t42 -61.5t66.5 -39.5t88 -14t88 14t66 39.5
t41.5 61.5t14.5 79v239q0 92 -56 146t-154 54q-99 0 -155 -54t-56 -146v-239zM185 787q-13 0 -4 11l127 133q4 5 10 5h34q7 0 11 -5l127 -133q4 -5 2 -8t-7 -3h-37q-4 0 -11 5l-102 103l-102 -103q-5 -5 -11 -5h-37z" />
    <glyph glyph-name="Otilde" unicode="&#xd5;" horiz-adv-x="669" 
d="M600 235q0 -54 -19 -99.5t-53.5 -78t-83.5 -50.5t-109 -18q-61 0 -110 18t-83.5 50.5t-53.5 78t-19 99.5v239q0 57 18.5 103.5t53 79.5t84 51t110.5 18t110 -18t83.5 -51t53 -79.5t18.5 -103.5v-239zM124 235q0 -43 14.5 -79t42 -61.5t66.5 -39.5t88 -14t88 14t66 39.5
t41.5 61.5t14.5 79v239q0 92 -56 146t-154 54q-99 0 -155 -54t-56 -146v-239zM479 858q-7 -22 -27 -42t-48 -20q-17 0 -34.5 7t-34.5 17q-17 9 -32 16t-31 7q-17 0 -27 -10.5t-18 -24.5q-4 -8 -11 -4l-21 11q-7 4 -4 12q8 21 27 40t48 19q20 0 37.5 -8t34.5 -16
q15 -8 30.5 -15.5t30.5 -7.5t25 9.5t18 26.5q4 7 11 4l21 -12q7 -3 5 -9z" />
    <glyph glyph-name="Odieresis" unicode="&#xd6;" horiz-adv-x="669" 
d="M600 235q0 -54 -19 -99.5t-53.5 -78t-83.5 -50.5t-109 -18q-61 0 -110 18t-83.5 50.5t-53.5 78t-19 99.5v239q0 57 18.5 103.5t53 79.5t84 51t110.5 18t110 -18t83.5 -51t53 -79.5t18.5 -103.5v-239zM124 235q0 -43 14.5 -79t42 -61.5t66.5 -39.5t88 -14t88 14t66 39.5
t41.5 61.5t14.5 79v239q0 92 -56 146t-154 54q-99 0 -155 -54t-56 -146v-239zM270 863q0 -16 -10 -25.5t-26 -9.5t-25.5 9.5t-9.5 25.5t9.5 26t25.5 10t26 -10t10 -26zM471 863q0 -16 -10 -25.5t-26 -9.5t-26 9.5t-10 25.5t10 26t26 10t26 -10t10 -26z" />
    <glyph glyph-name="multiply" unicode="&#xd7;" horiz-adv-x="561" 
d="M112 126q-7 -5 -13 0l-23 24q-6 6 0 12l170 170l-170 169q-6 6 0 12l23 23q6 6 13 0l169 -169l169 169q6 6 13 0l23 -23q6 -6 0 -12l-169 -169l169 -170q6 -6 0 -12l-23 -24q-6 -5 -13 0l-169 170z" />
    <glyph glyph-name="Oslash" unicode="&#xd8;" horiz-adv-x="680" 
d="M115 -53q-13 0 -7 11l47 90q-42 33 -64 80.5t-22 107.5v238q0 57 19 103.5t54 79.5t85 51t113 18q44 0 81.5 -9.5t68.5 -26.5l37 71q1 6 9 6h32q11 0 6 -10l-48 -91q42 -33 63.5 -82t21.5 -110v-238q0 -54 -19 -99.5t-54.5 -78t-85.5 -50.5t-112 -18q-43 0 -79.5 9
t-67.5 26l-37 -71q-3 -7 -10 -7h-31zM126 236q0 -84 57 -136l282 542q-53 31 -125 31q-100 0 -157 -54t-57 -145v-238zM218 73q25 -14 55.5 -22t66.5 -8q49 0 89 14t67.5 39.5t42.5 61t15 78.5v238q0 43 -14.5 78t-40.5 60z" />
    <glyph glyph-name="Ugrave" unicode="&#xd9;" horiz-adv-x="681" 
d="M593 242q0 -56 -17.5 -102.5t-50 -80t-79.5 -52t-106 -18.5t-105.5 18.5t-79 52t-50 80t-17.5 102.5v465q0 8 9 8h39q8 0 8 -8v-462q0 -94 50.5 -149t145.5 -55t146 55t51 149v462q0 8 8 8h39q9 0 9 -8v-465v0zM214 926q-8 10 5 10h45q6 0 10 -5l106 -133q3 -5 1.5 -8
t-6.5 -3h-32q-6 0 -11 5z" />
    <glyph glyph-name="Uacute" unicode="&#xda;" horiz-adv-x="681" 
d="M593 242q0 -56 -17.5 -102.5t-50 -80t-79.5 -52t-106 -18.5t-105.5 18.5t-79 52t-50 80t-17.5 102.5v465q0 8 9 8h39q8 0 8 -8v-462q0 -94 50.5 -149t145.5 -55t146 55t51 149v462q0 8 8 8h39q9 0 9 -8v-465v0zM342 792q-5 -5 -11 -5h-32q-5 0 -6.5 3t1.5 8l106 133
q4 5 10 5h45q13 0 5 -10z" />
    <glyph glyph-name="Ucircumflex" unicode="&#xdb;" horiz-adv-x="681" 
d="M593 242q0 -56 -17.5 -102.5t-50 -80t-79.5 -52t-106 -18.5t-105.5 18.5t-79 52t-50 80t-17.5 102.5v465q0 8 9 8h39q8 0 8 -8v-462q0 -94 50.5 -149t145.5 -55t146 55t51 149v462q0 8 8 8h39q9 0 9 -8v-465v0zM191 787q-13 0 -4 11l127 133q4 5 10 5h34q7 0 11 -5
l127 -133q4 -5 2 -8t-7 -3h-37q-4 0 -11 5l-102 103l-102 -103q-5 -5 -11 -5h-37z" />
    <glyph glyph-name="Udieresis" unicode="&#xdc;" horiz-adv-x="681" 
d="M593 242q0 -56 -17.5 -102.5t-50 -80t-79.5 -52t-106 -18.5t-105.5 18.5t-79 52t-50 80t-17.5 102.5v465q0 8 9 8h39q8 0 8 -8v-462q0 -94 50.5 -149t145.5 -55t146 55t51 149v462q0 8 8 8h39q9 0 9 -8v-465v0zM276 863q0 -16 -10 -25.5t-26 -9.5t-25.5 9.5t-9.5 25.5
t9.5 26t25.5 10t26 -10t10 -26zM477 863q0 -16 -10 -25.5t-26 -9.5t-26 9.5t-10 25.5t10 26t26 10t26 -10t10 -26z" />
    <glyph glyph-name="Yacute" unicode="&#xdd;" horiz-adv-x="550" 
d="M256 0q-9 0 -9 8v270l-238 427q-5 10 6 10h44q7 0 10 -6l206 -379l206 379q3 6 10 6h44q11 0 6 -10l-238 -427v-270q0 -8 -9 -8h-38zM275 792q-5 -5 -11 -5h-32q-5 0 -6.5 3t1.5 8l106 133q4 5 10 5h45q13 0 5 -10z" />
    <glyph glyph-name="Thorn" unicode="&#xde;" horiz-adv-x="632" 
d="M102 0q-8 0 -8 8v699q0 8 8 8h40q8 0 8 -8v-111h182q118 0 182.5 -59.5t64.5 -164.5q0 -107 -64.5 -165.5t-182.5 -58.5h-182v-140q0 -8 -8 -8h-40zM150 200h180q97 0 144.5 44.5t47.5 127.5q0 84 -49 127.5t-143 43.5h-180v-343z" />
    <glyph glyph-name="germandbls" unicode="&#xdf;" horiz-adv-x="546" 
d="M471 534q0 -56 -24 -96t-72 -58q66 -20 95 -67.5t29 -113.5q0 -49 -15.5 -87t-44 -64.5t-68.5 -40t-89 -13.5q-22 0 -50 4.5t-54 15.5q-6 1 -6 9v34q0 10 9 6q23 -8 49.5 -13t46.5 -5q79 0 124 39.5t45 116.5q0 31 -8.5 59t-28 48.5t-50 32.5t-73.5 12h-98q-8 0 -8 8v32
q0 8 8 8h97q36 0 61.5 11.5t41 30t22.5 42.5t7 49q0 145 -147 145q-70 0 -106.5 -39t-36.5 -117v-515q0 -8 -8 -8h-36q-9 0 -9 8v515q0 101 54 152t142 51q91 0 146 -48.5t55 -143.5z" />
    <glyph glyph-name="agrave" unicode="&#xe0;" horiz-adv-x="506" 
d="M65 474q33 23 79.5 37.5t103.5 14.5q94 0 142.5 -49t48.5 -140v-304q0 -7 -7 -10q-33 -13 -81.5 -23.5t-104.5 -10.5q-43 0 -81.5 10t-67 30.5t-45 50.5t-16.5 71q0 78 56.5 118t153.5 40q38 0 74.5 -5.5t65.5 -10.5v43q0 67 -32 104t-108 37q-45 0 -85 -12t-68 -29
q-6 -5 -11 2l-17 26q-5 7 0 10zM90 151q0 -27 11.5 -48t32.5 -36t49.5 -22.5t62.5 -7.5q42 0 78 7.5t62 16.5v186q-28 6 -65 10.5t-75 4.5q-78 0 -117 -28.5t-39 -82.5zM291.001 598q4.99902 0 7.49902 3t-0.5 8l-81.9951 133q-2.99902 5 -9.99902 5h-40.9971q-12 0 -5 -10
l92.9941 -133q3 -6 9.99902 -6h27.999z" />
    <glyph glyph-name="aacute" unicode="&#xe1;" horiz-adv-x="506" 
d="M65 474q33 23 79.5 37.5t103.5 14.5q94 0 142.5 -49t48.5 -140v-304q0 -7 -7 -10q-33 -13 -81.5 -23.5t-104.5 -10.5q-43 0 -81.5 10t-67 30.5t-45 50.5t-16.5 71q0 78 56.5 118t153.5 40q38 0 74.5 -5.5t65.5 -10.5v43q0 67 -32 104t-108 37q-45 0 -85 -12t-68 -29
q-6 -5 -11 2l-17 26q-5 7 0 10zM90 151q0 -27 11.5 -48t32.5 -36t49.5 -22.5t62.5 -7.5q42 0 78 7.5t62 16.5v186q-28 6 -65 10.5t-75 4.5q-78 0 -117 -28.5t-39 -82.5zM204 598q-5 0 -7.5 3t0.5 8l82 133q3 5 10 5h41q12 0 5 -10l-93 -133q-3 -6 -10 -6h-28z" />
    <glyph glyph-name="acircumflex" unicode="&#xe2;" horiz-adv-x="506" 
d="M65 474q33 23 79.5 37.5t103.5 14.5q94 0 142.5 -49t48.5 -140v-304q0 -7 -7 -10q-33 -13 -81.5 -23.5t-104.5 -10.5q-43 0 -81.5 10t-67 30.5t-45 50.5t-16.5 71q0 78 56.5 118t153.5 40q38 0 74.5 -5.5t65.5 -10.5v43q0 67 -32 104t-108 37q-45 0 -85 -12t-68 -29
q-6 -5 -11 2l-17 26q-5 7 0 10zM90 151q0 -27 11.5 -48t32.5 -36t49.5 -22.5t62.5 -7.5q42 0 78 7.5t62 16.5v186q-28 6 -65 10.5t-75 4.5q-78 0 -117 -28.5t-39 -82.5zM117 598q-11 0 -5 11l114 133q5 5 10 5h28q7 0 10 -5l113 -133q8 -11 -4 -11h-34q-7 0 -10 5l-89 106
l-89 -106q-5 -5 -11 -5h-33z" />
    <glyph glyph-name="atilde" unicode="&#xe3;" horiz-adv-x="506" 
d="M65 474q33 23 79.5 37.5t103.5 14.5q94 0 142.5 -49t48.5 -140v-304q0 -7 -7 -10q-33 -13 -81.5 -23.5t-104.5 -10.5q-43 0 -81.5 10t-67 30.5t-45 50.5t-16.5 71q0 78 56.5 118t153.5 40q38 0 74.5 -5.5t65.5 -10.5v43q0 67 -32 104t-108 37q-45 0 -85 -12t-68 -29
q-6 -5 -11 2l-17 26q-5 7 0 10zM90 151q0 -27 11.5 -48t32.5 -36t49.5 -22.5t62.5 -7.5q42 0 78 7.5t62 16.5v186q-28 6 -65 10.5t-75 4.5q-78 0 -117 -28.5t-39 -82.5zM394 677q-7 -22 -26.5 -42t-48.5 -20q-17 0 -34.5 7.5t-34.5 16.5t-31.5 16t-31.5 7t-27.5 -10
t-17.5 -25q-2 -5 -5 -5t-6 1l-21 12q-7 4 -4 11q8 21 27.5 40t48.5 19q19 0 36.5 -7.5t34.5 -16.5q15 -8 30.5 -15.5t31.5 -7.5q26 0 43 36q3 9 11 4l21 -11q7 -5 4 -10z" />
    <glyph glyph-name="adieresis" unicode="&#xe4;" horiz-adv-x="506" 
d="M65 474q33 23 79.5 37.5t103.5 14.5q94 0 142.5 -49t48.5 -140v-304q0 -7 -7 -10q-33 -13 -81.5 -23.5t-104.5 -10.5q-43 0 -81.5 10t-67 30.5t-45 50.5t-16.5 71q0 78 56.5 118t153.5 40q38 0 74.5 -5.5t65.5 -10.5v43q0 67 -32 104t-108 37q-45 0 -85 -12t-68 -29
q-6 -5 -11 2l-17 26q-5 7 0 10zM90 151q0 -27 11.5 -48t32.5 -36t49.5 -22.5t62.5 -7.5q42 0 78 7.5t62 16.5v186q-28 6 -65 10.5t-75 4.5q-78 0 -117 -28.5t-39 -82.5zM195 656q0 -16 -9.5 -25t-25.5 -9q-15 0 -24.5 9t-9.5 25q0 17 9.5 26t24.5 9q16 0 25.5 -9t9.5 -26z
M375 656q0 -16 -9.5 -25t-24.5 -9t-25 9t-10 25q0 17 10 26t25 9t24.5 -9t9.5 -26z" />
    <glyph glyph-name="aring" unicode="&#xe5;" horiz-adv-x="506" 
d="M65 474q33 23 79.5 37.5t103.5 14.5q94 0 142.5 -49t48.5 -140v-304q0 -7 -7 -10q-33 -13 -81.5 -23.5t-104.5 -10.5q-43 0 -81.5 10t-67 30.5t-45 50.5t-16.5 71q0 78 56.5 118t153.5 40q38 0 74.5 -5.5t65.5 -10.5v43q0 67 -32 104t-108 37q-45 0 -85 -12t-68 -29
q-6 -5 -11 2l-17 26q-5 7 0 10zM90 151q0 -27 11.5 -48t32.5 -36t49.5 -22.5t62.5 -7.5q42 0 78 7.5t62 16.5v186q-28 6 -65 10.5t-75 4.5q-78 0 -117 -28.5t-39 -82.5zM350 671q0 -45 -28 -70.5t-72 -25.5q-45 0 -73.5 26t-28.5 71t28.5 70.5t73.5 25.5q44 0 72 -26t28 -71
zM184 671q0 -27 18.5 -44.5t47.5 -17.5t47 17.5t18 44.5q0 29 -18 46t-47 17t-47.5 -17t-18.5 -46z" />
    <glyph glyph-name="ae" unicode="&#xe6;" horiz-adv-x="828" 
d="M572 -10q-48 0 -85 17t-62 43q-32 -25 -79.5 -43t-104.5 -18q-42 0 -79 10.5t-65 31t-44.5 51t-16.5 69.5q0 38 14.5 66.5t41.5 48t64.5 29.5t83.5 10q38 0 74 -5t64 -10v53q0 64 -33.5 99t-103.5 35q-45 0 -85 -12t-69 -29q-6 -5 -11 2l-15 25q-4 8 2 12q33 22 79.5 36
t100.5 14q63 0 102.5 -24.5t62.5 -70.5q23 46 68.5 70.5t104.5 24.5q41 0 77 -12t63 -36t42.5 -59t15.5 -81v-87q0 -8 -9 -8h-339v-73q0 -66 39.5 -98t102.5 -32q57 0 97 19t68 45q8 6 12 -1l20 -24q5 -7 -1 -11q-33 -32 -82 -54.5t-115 -22.5zM89 152q0 -27 11.5 -48.5
t32 -36.5t48 -22.5t59.5 -7.5q48 0 87.5 15.5t67.5 35.5q-8 17 -12.5 37t-4.5 41v79q-27 5 -62.5 10t-71.5 5q-77 0 -116 -28.5t-39 -79.5zM431 286h296v48q0 69 -41 106t-107 37t-107 -36.5t-41 -107.5v-47z" />
    <glyph glyph-name="ccedilla" unicode="&#xe7;" horiz-adv-x="466" 
d="M436 50q-37 -28 -76 -43.5t-86 -17.5l-17 -44q42 -2 65.5 -19.5t23.5 -50.5q0 -37 -28.5 -58t-76.5 -21q-14 0 -29.5 2t-29.5 7q-7 3 -7 10v17q0 9 10 7q14 -5 27 -6.5t24 -1.5q30 0 48 12t18 35q0 22 -17 32.5t-57 11.5q-8 0 -10 5q-3 5 0 9l20 54q-43 3 -77 19
t-57.5 40.5t-36 57.5t-12.5 71v159q0 40 14 74.5t40.5 60t64.5 40t86 14.5q45 0 84.5 -13t76.5 -39q7 -6 3 -12l-17 -26q-6 -6 -12 -2q-62 43 -135 43q-37 0 -65 -11t-47.5 -29.5t-29.5 -44t-10 -55.5v-159q0 -60 39.5 -100.5t112.5 -40.5q77 0 148 51q7 6 12 -1l17 -25
q5 -8 -1 -12z" />
    <glyph glyph-name="egrave" unicode="&#xe8;" horiz-adv-x="513" 
d="M464 238q0 -8 -9 -8h-345v-56q0 -33 12 -58.5t32.5 -43t48 -26.5t58.5 -9q57 0 96 20t67 44q8 5 12 -2l18 -23q6 -6 -1 -12q-35 -30 -82 -52.5t-111 -22.5q-40 0 -76.5 12t-65 35.5t-45.5 58t-17 79.5v158q0 48 16 84.5t43.5 60.5t65 36.5t80.5 12.5q42 0 79 -12.5
t64.5 -36.5t43.5 -60.5t16 -84.5v-94zM412 332q0 72 -42.5 108.5t-108.5 36.5q-69 0 -110 -36.5t-41 -108.5v-57h302v57zM263 598q-7 0 -10 6l-93 133q-7 10 5 10h41q7 0 10 -5l82 -133q3 -5 0.5 -8t-7.5 -3h-28z" />
    <glyph glyph-name="eacute" unicode="&#xe9;" horiz-adv-x="513" 
d="M464 238q0 -8 -9 -8h-345v-56q0 -33 12 -58.5t32.5 -43t48 -26.5t58.5 -9q57 0 96 20t67 44q8 5 12 -2l18 -23q6 -6 -1 -12q-35 -30 -82 -52.5t-111 -22.5q-40 0 -76.5 12t-65 35.5t-45.5 58t-17 79.5v158q0 48 16 84.5t43.5 60.5t65 36.5t80.5 12.5q42 0 79 -12.5
t64.5 -36.5t43.5 -60.5t16 -84.5v-94zM412 332q0 72 -42.5 108.5t-108.5 36.5q-69 0 -110 -36.5t-41 -108.5v-57h302v57zM214 598q-5 0 -7.5 3t0.5 8l82 133q3 5 10 5h41q12 0 5 -10l-93 -133q-3 -6 -10 -6h-28z" />
    <glyph glyph-name="ecircumflex" unicode="&#xea;" horiz-adv-x="513" 
d="M464 238q0 -8 -9 -8h-345v-56q0 -33 12 -58.5t32.5 -43t48 -26.5t58.5 -9q57 0 96 20t67 44q8 5 12 -2l18 -23q6 -6 -1 -12q-35 -30 -82 -52.5t-111 -22.5q-40 0 -76.5 12t-65 35.5t-45.5 58t-17 79.5v158q0 48 16 84.5t43.5 60.5t65 36.5t80.5 12.5q42 0 79 -12.5
t64.5 -36.5t43.5 -60.5t16 -84.5v-94zM412 332q0 72 -42.5 108.5t-108.5 36.5q-69 0 -110 -36.5t-41 -108.5v-57h302v57zM127 598q-11 0 -5 11l114 133q5 5 10 5h28q7 0 10 -5l113 -133q8 -11 -4 -11h-34q-7 0 -10 5l-89 106l-89 -106q-5 -5 -11 -5h-33z" />
    <glyph glyph-name="edieresis" unicode="&#xeb;" horiz-adv-x="513" 
d="M464 238q0 -8 -9 -8h-345v-56q0 -33 12 -58.5t32.5 -43t48 -26.5t58.5 -9q57 0 96 20t67 44q8 5 12 -2l18 -23q6 -6 -1 -12q-35 -30 -82 -52.5t-111 -22.5q-40 0 -76.5 12t-65 35.5t-45.5 58t-17 79.5v158q0 48 16 84.5t43.5 60.5t65 36.5t80.5 12.5q42 0 79 -12.5
t64.5 -36.5t43.5 -60.5t16 -84.5v-94zM412 332q0 72 -42.5 108.5t-108.5 36.5q-69 0 -110 -36.5t-41 -108.5v-57h302v57zM205 656q0 -16 -9.5 -25t-25.5 -9q-15 0 -24.5 9t-9.5 25q0 17 9.5 26t24.5 9q16 0 25.5 -9t9.5 -26zM385 656q0 -16 -9.5 -25t-24.5 -9t-25 9t-10 25
q0 17 10 26t25 9t24.5 -9t9.5 -26z" />
    <glyph glyph-name="igrave" unicode="&#xec;" horiz-adv-x="201" 
d="M83 0q-9 0 -9 8v498q0 9 9 9h36q8 0 8 -9v-498q0 -8 -8 -8h-36zM104 598q-7 0 -10 6l-93 133q-7 10 5 10h41q7 0 10 -5l82 -133q3 -5 0.5 -8t-7.5 -3h-28z" />
    <glyph glyph-name="iacute" unicode="&#xed;" horiz-adv-x="201" 
d="M83 0q-9 0 -9 8v498q0 9 9 9h36q8 0 8 -9v-498q0 -8 -8 -8h-36zM72 598q-5 0 -7.5 3t0.5 8l82 133q3 5 10 5h41q12 0 5 -10l-93 -133q-3 -6 -10 -6h-28z" />
    <glyph glyph-name="icircumflex" unicode="&#xee;" horiz-adv-x="201" 
d="M82 0q-8 0 -8 8v498q0 9 8 9h36q9 0 9 -9v-498q0 -8 -9 -8h-36zM-17 598q-12 0 -5 11l97 133q3 5 10 5h30q6 0 11 -5l98 -133q5 -11 -6 -11h-32q-7 0 -10 6l-76 108l-75 -108q-4 -6 -10 -6h-32z" />
    <glyph glyph-name="idieresis" unicode="&#xef;" horiz-adv-x="201" 
d="M82 0q-8 0 -8 8v498q0 9 8 9h36q9 0 9 -9v-498q0 -8 -9 -8h-36zM68 656q0 -14 -9.5 -24t-24.5 -10t-24.5 10t-9.5 24q0 15 9.5 25t24.5 10t24.5 -10t9.5 -25zM200 656q0 -14 -10 -24t-25 -10t-24 10t-9 24q0 15 9 25t24 10t25 -10t10 -25z" />
    <glyph glyph-name="eth" unicode="&#xf0;" horiz-adv-x="542" 
d="M372 642q48 -45 75.5 -113t28.5 -171v-177q0 -42 -14 -77t-41 -60.5t-66 -40t-90 -14.5q-50 0 -89.5 14.5t-66.5 40t-41 60.5t-14 77v125q0 41 14 76.5t41 61t65.5 40t86.5 14.5q57 0 98 -19.5t65 -54.5q-6 65 -29.5 110.5t-61.5 77.5l-105 -80q-7 -4 -12 1l-11 15
q-6 5 1 12l97 74q-30 19 -65.5 31t-74.5 20q-8 2 -7 9l1 29q1 8 10 8q50 -8 94.5 -24t82.5 -42l80 61q7 5 11 -2l11 -15q5 -7 -1 -12zM108 181q0 -63 39.5 -103.5t117.5 -40.5q79 0 118.5 41t39.5 103v125q1 64 -39 104.5t-119 40.5q-39 0 -68.5 -11t-49 -30.5t-29.5 -46
t-10 -57.5v-125z" />
    <glyph glyph-name="ntilde" unicode="&#xf1;" horiz-adv-x="551" 
d="M81 0q-9 0 -9 8v469q0 7 7 10q42 18 88.5 28.5t97.5 10.5q100 0 158.5 -50.5t58.5 -157.5v-310q0 -8 -8 -8h-36q-9 0 -9 8v308q0 85 -42.5 123t-121.5 38q-38 0 -74.5 -6.5t-65.5 -17.5v-445q0 -8 -8 -8h-36zM410 677q-7 -22 -26.5 -42t-48.5 -20q-17 0 -34.5 7.5
t-34.5 16.5t-31.5 16t-31.5 7t-27.5 -10t-17.5 -25q-2 -5 -5 -5t-6 1l-21 12q-7 4 -4 11q8 21 27.5 40t48.5 19q19 0 36.5 -7.5t34.5 -16.5q15 -8 30.5 -15.5t31.5 -7.5q26 0 43 36q3 9 11 4l21 -11q7 -5 4 -10z" />
    <glyph glyph-name="ograve" unicode="&#xf2;" 
d="M481 181q0 -42 -14 -77t-41.5 -60.5t-67 -40t-90.5 -14.5t-90.5 14.5t-66.5 40t-41.5 60.5t-14.5 77v152q0 41 14.5 76.5t41.5 61.5t66.5 40.5t90.5 14.5t90.5 -14.5t67 -40.5t41.5 -61.5t14 -76.5v-152zM109 181q0 -63 40 -103.5t119 -40.5q80 0 120 41t40 103v152
q0 62 -40 103t-120 41q-79 0 -119 -40.5t-40 -103.5v-152zM271 598q-7 0 -10 6l-93 133q-7 10 5 10h41q7 0 10 -5l82 -133q3 -5 0.5 -8t-7.5 -3h-28z" />
    <glyph glyph-name="oacute" unicode="&#xf3;" 
d="M481 181q0 -42 -14 -77t-41.5 -60.5t-67 -40t-90.5 -14.5t-90.5 14.5t-66.5 40t-41.5 60.5t-14.5 77v152q0 41 14.5 76.5t41.5 61.5t66.5 40.5t90.5 14.5t90.5 -14.5t67 -40.5t41.5 -61.5t14 -76.5v-152zM109 181q0 -63 40 -103.5t119 -40.5q80 0 120 41t40 103v152
q0 62 -40 103t-120 41q-79 0 -119 -40.5t-40 -103.5v-152zM222 598q-5 0 -7.5 3t0.5 8l82 133q3 5 10 5h41q12 0 5 -10l-93 -133q-3 -6 -10 -6h-28z" />
    <glyph glyph-name="ocircumflex" unicode="&#xf4;" 
d="M481 181q0 -42 -14 -77t-41.5 -60.5t-67 -40t-90.5 -14.5t-90.5 14.5t-66.5 40t-41.5 60.5t-14.5 77v152q0 41 14.5 76.5t41.5 61.5t66.5 40.5t90.5 14.5t90.5 -14.5t67 -40.5t41.5 -61.5t14 -76.5v-152zM109 181q0 -63 40 -103.5t119 -40.5q80 0 120 41t40 103v152
q0 62 -40 103t-120 41q-79 0 -119 -40.5t-40 -103.5v-152zM135 598q-11 0 -5 11l114 133q5 5 10 5h28q7 0 10 -5l113 -133q8 -11 -4 -11h-34q-7 0 -10 5l-89 106l-89 -106q-5 -5 -11 -5h-33z" />
    <glyph glyph-name="otilde" unicode="&#xf5;" 
d="M481 181q0 -42 -14 -77t-41.5 -60.5t-67 -40t-90.5 -14.5t-90.5 14.5t-66.5 40t-41.5 60.5t-14.5 77v152q0 41 14.5 76.5t41.5 61.5t66.5 40.5t90.5 14.5t90.5 -14.5t67 -40.5t41.5 -61.5t14 -76.5v-152zM109 181q0 -63 40 -103.5t119 -40.5q80 0 120 41t40 103v152
q0 62 -40 103t-120 41q-79 0 -119 -40.5t-40 -103.5v-152zM412 677q-7 -22 -26.5 -42t-48.5 -20q-17 0 -34.5 7.5t-34.5 16.5t-31.5 16t-31.5 7t-27.5 -10t-17.5 -25q-2 -5 -5 -5t-6 1l-21 12q-7 4 -4 11q8 21 27.5 40t48.5 19q19 0 36.5 -7.5t34.5 -16.5q15 -8 30.5 -15.5
t31.5 -7.5q26 0 43 36q3 9 11 4l21 -11q7 -5 4 -10z" />
    <glyph glyph-name="odieresis" unicode="&#xf6;" 
d="M481 181q0 -42 -14 -77t-41.5 -60.5t-67 -40t-90.5 -14.5t-90.5 14.5t-66.5 40t-41.5 60.5t-14.5 77v152q0 41 14.5 76.5t41.5 61.5t66.5 40.5t90.5 14.5t90.5 -14.5t67 -40.5t41.5 -61.5t14 -76.5v-152zM109 181q0 -63 40 -103.5t119 -40.5q80 0 120 41t40 103v152
q0 62 -40 103t-120 41q-79 0 -119 -40.5t-40 -103.5v-152zM213 656q0 -16 -9.5 -25t-25.5 -9q-15 0 -24.5 9t-9.5 25q0 17 9.5 26t24.5 9q16 0 25.5 -9t9.5 -26zM393 656q0 -16 -9.5 -25t-24.5 -9t-25 9t-10 25q0 17 10 26t25 9t24.5 -9t9.5 -26z" />
    <glyph glyph-name="divide" unicode="&#xf7;" horiz-adv-x="561" 
d="M73 309q-8 0 -8 8v34q0 8 8 8h415q8 0 8 -8v-34q0 -8 -8 -8h-415zM320 161q0 -17 -11 -28t-28 -11t-28 11t-11 28t11 28t28 11t28 -11t11 -28zM320 499q0 -17 -11 -28t-28 -11t-28 11t-11 28t11 28t28 11t28 -11t11 -28z" />
    <glyph glyph-name="oslash" unicode="&#xf8;" 
d="M65 -55q-11 0 -6 11l53 87q-57 52 -57 138v152q0 41 14.5 76.5t41.5 61.5t66.5 40.5t90.5 14.5q68 0 116 -28l46 76q4 6 10 6h32q10 0 5 -11l-57 -94q30 -26 45.5 -62.5t15.5 -79.5v-152q0 -42 -14 -77t-41.5 -60.5t-67 -40t-90.5 -14.5q-72 0 -120 31l-42 -69
q-3 -6 -10 -6h-31zM109 181q0 -55 30 -89l221 363q-18 11 -40.5 16.5t-51.5 5.5q-80 0 -119.5 -41t-39.5 -103v-152zM268 37q80 0 120 41t40 103v152q0 57 -35 94l-221 -364q18 -12 42 -19t54 -7z" />
    <glyph glyph-name="ugrave" unicode="&#xf9;" horiz-adv-x="544" 
d="M463 515q8 0 8 -9v-468q0 -7 -6 -10q-41 -18 -87 -28.5t-96 -10.5q-49 0 -88.5 12.5t-67 38t-42.5 65t-15 92.5v309q0 9 8 9h36q9 0 9 -9v-308q0 -84 41.5 -122.5t118.5 -38.5q37 0 72 7t64 18v444q0 9 9 9h36zM302.001 598q4.99902 0 7.49902 3t-0.5 8l-81.9951 133
q-2.99902 5 -9.99902 5h-40.9971q-12 0 -5 -10l92.9941 -133q3 -6 9.99902 -6h27.999z" />
    <glyph glyph-name="uacute" unicode="&#xfa;" horiz-adv-x="544" 
d="M463 515q8 0 8 -9v-468q0 -7 -6 -10q-41 -18 -87 -28.5t-96 -10.5q-49 0 -88.5 12.5t-67 38t-42.5 65t-15 92.5v309q0 9 8 9h36q9 0 9 -9v-308q0 -84 41.5 -122.5t118.5 -38.5q37 0 72 7t64 18v444q0 9 9 9h36zM225 598q-5 0 -7.5 3t0.5 8l82 133q3 5 10 5h41q12 0 5 -10
l-93 -133q-3 -6 -10 -6h-28z" />
    <glyph glyph-name="ucircumflex" unicode="&#xfb;" horiz-adv-x="544" 
d="M463 515q8 0 8 -9v-468q0 -7 -6 -10q-41 -18 -87 -28.5t-96 -10.5q-49 0 -88.5 12.5t-67 38t-42.5 65t-15 92.5v309q0 9 8 9h36q9 0 9 -9v-308q0 -84 41.5 -122.5t118.5 -38.5q37 0 72 7t64 18v444q0 9 9 9h36zM138 598q-11 0 -5 11l114 133q5 5 10 5h28q7 0 10 -5
l113 -133q8 -11 -4 -11h-34q-7 0 -10 5l-89 106l-89 -106q-5 -5 -11 -5h-33z" />
    <glyph glyph-name="udieresis" unicode="&#xfc;" horiz-adv-x="544" 
d="M463 515q8 0 8 -9v-468q0 -7 -6 -10q-41 -18 -87 -28.5t-96 -10.5q-49 0 -88.5 12.5t-67 38t-42.5 65t-15 92.5v309q0 9 8 9h36q9 0 9 -9v-308q0 -84 41.5 -122.5t118.5 -38.5q37 0 72 7t64 18v444q0 9 9 9h36zM216 656q0 -16 -9.5 -25t-25.5 -9q-15 0 -24.5 9t-9.5 25
q0 17 9.5 26t24.5 9q16 0 25.5 -9t9.5 -26zM396 656q0 -16 -9.5 -25t-24.5 -9t-25 9t-10 25q0 17 10 26t25 9t24.5 -9t9.5 -26z" />
    <glyph glyph-name="yacute" unicode="&#xfd;" horiz-adv-x="545" 
d="M418 506q0 9 9 9h36q8 0 8 -9v-509q0 -45 -12 -81t-36.5 -62t-62 -40t-89.5 -14q-60 0 -105.5 20t-83.5 54q-6 6 -1 12l19 26q5 7 11 1q32 -26 70.5 -45t89.5 -20q76 1 112.5 39.5t35.5 112.5v49q-31 -14 -67 -22.5t-74 -8.5q-44 0 -82 12t-66 36t-44.5 60.5t-16.5 86.5
v293q0 9 8 9h36q9 0 9 -9v-291q0 -39 12 -67t33.5 -46t51 -26.5t65.5 -8.5q38 0 71.5 8.5t62.5 24.5v406zM227 598q-5 0 -7.5 3t0.5 8l82 133q3 5 10 5h41q12 0 5 -10l-93 -133q-3 -6 -10 -6h-28z" />
    <glyph glyph-name="thorn" unicode="&#xfe;" horiz-adv-x="538" 
d="M127 497q32 14 70 21.5t74 7.5q46 0 84.5 -12t67 -36t44.5 -61t16 -87v-146q0 -48 -16 -84.5t-44.5 -61t-67.5 -37t-85 -12.5q-35 0 -73 8.5t-70 22.5v-202q0 -8 -8 -8h-36q-9 0 -9 8v886q0 8 9 8h36q8 0 8 -8v-207zM267 37q72 0 117.5 36t45.5 114v140q0 79 -44.5 115.5
t-119.5 35.5q-36 -1 -73 -8.5t-66 -20.5v-381q31 -14 68 -22.5t72 -8.5z" />
    <glyph glyph-name="ydieresis" unicode="&#xff;" horiz-adv-x="545" 
d="M418 506q0 9 9 9h36q8 0 8 -9v-509q0 -45 -12 -81t-36.5 -62t-62 -40t-89.5 -14q-60 0 -105.5 20t-83.5 54q-6 6 -1 12l19 26q5 7 11 1q32 -26 70.5 -45t89.5 -20q76 1 112.5 39.5t35.5 112.5v49q-31 -14 -67 -22.5t-74 -8.5q-44 0 -82 12t-66 36t-44.5 60.5t-16.5 86.5
v293q0 9 8 9h36q9 0 9 -9v-291q0 -39 12 -67t33.5 -46t51 -26.5t65.5 -8.5q38 0 71.5 8.5t62.5 24.5v406zM218 656q0 -16 -9.5 -25t-25.5 -9q-15 0 -24.5 9t-9.5 25q0 17 9.5 26t24.5 9q16 0 25.5 -9t9.5 -26zM398 656q0 -16 -9.5 -25t-24.5 -9t-25 9t-10 25q0 17 10 26
t25 9t24.5 -9t9.5 -26z" />
    <glyph glyph-name="Amacron" unicode="&#x100;" horiz-adv-x="602" 
d="M17 0q-9 0 -6 10l256 698q3 7 9 7h50q5 0 9 -7l257 -698q2 -10 -7 -10h-41q-7 0 -10 7l-73 202h-320l-73 -202q-4 -7 -9 -7h-42zM158 260h286l-141 391h-3zM170 812q-9 0 -9 9v28q0 9 9 9h261q8 0 8 -9v-28q0 -9 -8 -9h-261z" />
    <glyph glyph-name="amacron" unicode="&#x101;" horiz-adv-x="506" 
d="M65 474q33 23 79.5 37.5t103.5 14.5q94 0 142.5 -49t48.5 -140v-304q0 -7 -7 -10q-33 -13 -81.5 -23.5t-104.5 -10.5q-43 0 -81.5 10t-67 30.5t-45 50.5t-16.5 71q0 78 56.5 118t153.5 40q38 0 74.5 -5.5t65.5 -10.5v43q0 67 -32 104t-108 37q-45 0 -85 -12t-68 -29
q-6 -5 -11 2l-17 26q-5 7 0 10zM90 151q0 -27 11.5 -48t32.5 -36t49.5 -22.5t62.5 -7.5q42 0 78 7.5t62 16.5v186q-28 6 -65 10.5t-75 4.5q-78 0 -117 -28.5t-39 -82.5zM121 656q0 9 8 9h242q8 0 8 -9v-26q0 -9 -8 -9h-242q-8 0 -8 9v26z" />
    <glyph glyph-name="Abreve" unicode="&#x102;" horiz-adv-x="602" 
d="M17 0q-9 0 -6 10l256 698q3 7 9 7h50q5 0 9 -7l257 -698q2 -10 -7 -10h-41q-7 0 -10 7l-73 202h-320l-73 -202q-4 -7 -9 -7h-42zM158 260h286l-141 391h-3zM457 910q-8 -61 -47.5 -100.5t-108.5 -39.5t-108.5 39.5t-47.5 100.5q-1 7 7 9l27 7q9 1 10 -7q7 -48 34.5 -76
t77.5 -28t77.5 28t33.5 76q3 8 10 7l28 -7q8 -2 7 -9z" />
    <glyph glyph-name="abreve" unicode="&#x103;" horiz-adv-x="506" 
d="M65 474q33 23 79.5 37.5t103.5 14.5q94 0 142.5 -49t48.5 -140v-304q0 -7 -7 -10q-33 -13 -81.5 -23.5t-104.5 -10.5q-43 0 -81.5 10t-67 30.5t-45 50.5t-16.5 71q0 78 56.5 118t153.5 40q38 0 74.5 -5.5t65.5 -10.5v43q0 67 -32 104t-108 37q-45 0 -85 -12t-68 -29
q-6 -5 -11 2l-17 26q-5 7 0 10zM90 151q0 -27 11.5 -48t32.5 -36t49.5 -22.5t62.5 -7.5q42 0 78 7.5t62 16.5v186q-28 6 -65 10.5t-75 4.5q-78 0 -117 -28.5t-39 -82.5zM400 724q-7 -60 -45 -98t-104 -38q-65 0 -103 38t-45 97q-1 8 7 10l26 3q7 1 10 -7q7 -45 32.5 -72
t72.5 -27t73 27t33 72q1 8 10 7l25 -3q10 0 8 -9z" />
    <glyph glyph-name="Aogonek" unicode="&#x104;" horiz-adv-x="602" 
d="M612 -182q-36 -17 -78 -17q-38 0 -60.5 20t-22.5 55q0 36 26.5 71t64.5 56h-2q-9 8 -13 22l-66 184h-320l-73 -202q-4 -7 -9 -7h-42q-9 0 -6 10l256 698q3 7 9 7h50q5 0 9 -7l257 -699q2 -10 -5 -10q-43 -24 -65.5 -54.5t-22.5 -53.5t11.5 -32.5t32.5 -9.5q15 0 29 2.5
t26 8.5q10 3 11 -5l7 -26q2 -8 -4 -11zM300 651q-35 -99 -70.5 -196t-71.5 -196h286l-141 392h-3z" />
    <glyph glyph-name="aogonek" unicode="&#x105;" horiz-adv-x="506" 
d="M439 34q0 -7 -6 -10q-24 -11 -45.5 -26.5t-37.5 -34t-25.5 -37.5t-9.5 -35q0 -43 47 -43q13 0 26.5 2.5t25.5 9.5q9 3 11 -6l7 -24q3 -8 -5 -11q-15 -8 -33.5 -13t-41.5 -5q-38 0 -60 19t-22 59q0 29 21 63.5t58 60.5q-23 -6 -49 -10t-54 -4q-43 0 -81 10t-66.5 30
t-45 50.5t-16.5 72.5q0 77 56 117t153 40q39 0 75 -5.5t65 -11.5v47q0 65 -32 101.5t-108 36.5q-46 0 -86 -12t-68 -29q-7 -4 -12 2l-17 26q-5 7 2 12q34 22 80.5 36t103.5 14q94 0 142 -49t48 -137v-306zM90 152q0 -27 11.5 -48.5t32.5 -36.5t49.5 -22.5t62.5 -7.5
q43 0 78.5 7t61.5 16v188q-27 6 -64.5 10t-75.5 4q-78 0 -117 -28.5t-39 -81.5z" />
    <glyph glyph-name="Cacute" unicode="&#x106;" horiz-adv-x="579" 
d="M546 69q-48 -42 -106.5 -61t-118.5 -19q-57 0 -103.5 16.5t-79 48t-50.5 76.5t-18 101v253q0 56 18 101t50.5 76.5t78 48t101.5 16.5q57 0 111.5 -18.5t100.5 -54.5q7 -4 2 -11l-20 -29q-5 -7 -12 -1q-40 30 -87 46t-96 16q-47 0 -83 -14t-60 -39.5t-36.5 -60
t-12.5 -76.5v-253q0 -42 12.5 -77t37 -60t60.5 -39t84 -14q54 0 104.5 18t92.5 53q7 6 12 -2l20 -29q5 -7 -2 -12zM326 792q-5 -5 -11 -5h-32q-5 0 -6.5 3t1.5 8l106 133q4 5 10 5h45q13 0 5 -10z" />
    <glyph glyph-name="cacute" unicode="&#x107;" horiz-adv-x="466" 
d="M436 50q-39 -30 -81.5 -45.5t-94.5 -15.5q-48 0 -86 14.5t-64.5 40t-40.5 60t-14 74.5v159q0 40 14 74.5t40.5 60t64.5 40t86 14.5q45 0 84.5 -13t76.5 -39q7 -6 3 -12l-17 -26q-6 -6 -12 -2q-62 43 -135 43q-37 0 -65 -11t-47.5 -29.5t-29.5 -44t-10 -55.5v-159
q0 -60 39.5 -100.5t112.5 -40.5q77 0 148 51q7 6 12 -1l17 -25q5 -8 -1 -12zM208 598q-5 0 -7.5 3t0.5 8l82 133q3 5 10 5h41q12 0 5 -10l-93 -133q-3 -6 -10 -6h-28z" />
    <glyph glyph-name="Cdotaccent" unicode="&#x10a;" horiz-adv-x="579" 
d="M546 69q-48 -42 -106.5 -61t-118.5 -19q-57 0 -103.5 16.5t-79 48t-50.5 76.5t-18 101v253q0 56 18 101t50.5 76.5t78 48t101.5 16.5q57 0 111.5 -18.5t100.5 -54.5q7 -4 2 -11l-20 -29q-5 -7 -12 -1q-40 30 -87 46t-96 16q-47 0 -83 -14t-60 -39.5t-36.5 -60
t-12.5 -76.5v-253q0 -42 12.5 -77t37 -60t60.5 -39t84 -14q54 0 104.5 18t92.5 53q7 6 12 -2l20 -29q5 -7 -2 -12zM358 861q0 -17 -11 -28.5t-28 -11.5t-28.5 11.5t-11.5 28.5t11.5 28t28.5 11t28 -11t11 -28z" />
    <glyph glyph-name="cdotaccent" unicode="&#x10b;" horiz-adv-x="466" 
d="M436 50q-39 -30 -81.5 -45.5t-94.5 -15.5q-48 0 -86 14.5t-64.5 40t-40.5 60t-14 74.5v159q0 40 14 74.5t40.5 60t64.5 40t86 14.5q45 0 84.5 -13t76.5 -39q7 -6 3 -12l-17 -26q-6 -6 -12 -2q-62 43 -135 43q-37 0 -65 -11t-47.5 -29.5t-29.5 -44t-10 -55.5v-159
q0 -60 39.5 -100.5t112.5 -40.5q77 0 148 51q7 6 12 -1l17 -25q5 -8 -1 -12zM291 656q0 -16 -10.5 -26t-26.5 -10t-26.5 10t-10.5 26q0 17 10.5 27t26.5 10t26.5 -10t10.5 -27z" />
    <glyph glyph-name="Ccaron" unicode="&#x10c;" horiz-adv-x="579" 
d="M546 69q-48 -42 -106.5 -61t-118.5 -19q-57 0 -103.5 16.5t-79 48t-50.5 76.5t-18 101v253q0 56 18 101t50.5 76.5t78 48t101.5 16.5q57 0 111.5 -18.5t100.5 -54.5q7 -4 2 -11l-20 -29q-5 -7 -12 -1q-40 30 -87 46t-96 16q-47 0 -83 -14t-60 -39.5t-36.5 -60
t-12.5 -76.5v-253q0 -42 12.5 -77t37 -60t60.5 -39t84 -14q54 0 104.5 18t92.5 53q7 6 12 -2l20 -29q5 -7 -2 -12zM205 936q6 0 11 -5l102 -103l102 103q7 5 11 5h37q5 0 7 -3t-2 -8l-127 -133q-4 -5 -11 -5h-34q-6 0 -10 5l-127 133q-9 11 4 11h37z" />
    <glyph glyph-name="ccaron" unicode="&#x10d;" horiz-adv-x="466" 
d="M436 50q-39 -30 -81.5 -45.5t-94.5 -15.5q-48 0 -86 14.5t-64.5 40t-40.5 60t-14 74.5v159q0 40 14 74.5t40.5 60t64.5 40t86 14.5q45 0 84.5 -13t76.5 -39q7 -6 3 -12l-17 -26q-6 -6 -12 -2q-62 43 -135 43q-37 0 -65 -11t-47.5 -29.5t-29.5 -44t-10 -55.5v-159
q0 -60 39.5 -100.5t112.5 -40.5q77 0 148 51q7 6 12 -1l17 -25q5 -8 -1 -12zM157 748q6 0 11 -5l89 -106l89 106q3 5 10 5h34q12 0 4 -11l-113 -133q-3 -5 -10 -5h-28q-5 0 -10 5l-114 133q-6 11 5 11h33z" />
    <glyph glyph-name="Dcaron" unicode="&#x10e;" horiz-adv-x="663" 
d="M102 0q-8 0 -8 8v699q0 8 8 8h240q58 0 105 -17t79.5 -49.5t50 -79.5t17.5 -106v-214q0 -59 -17.5 -105.5t-50.5 -78.5t-79.5 -48.5t-104.5 -16.5h-240zM149 52h193q93 0 144 50t51 147v214q0 97 -51 149t-144 52h-193v-612zM211 936q6 0 11 -5l102 -103l102 103
q7 5 11 5h37q5 0 7 -3t-2 -8l-127 -133q-4 -5 -11 -5h-34q-6 0 -10 5l-127 133q-9 11 4 11h37z" />
    <glyph glyph-name="dcaron" unicode="&#x10f;" horiz-adv-x="557" 
d="M267 526q41 0 77.5 -11t66.5 -29v221q0 8 8 8h36q9 0 9 -8v-673q0 -8 -7 -9q-42 -17 -90 -26.5t-96 -9.5q-49 0 -89 12.5t-68.5 39t-44 67t-15.5 96.5v108q0 106 58 160t155 54zM552 708q3 7 10 7h32q9 0 7 -10l-46 -144q-2 -7 -9 -7h-22q-10 0 -8 10zM108 204
q0 -90 43 -128.5t121 -38.5q38 0 74 6.5t65 17.5v374q-29 20 -65 31.5t-75 11.5q-78 0 -120.5 -39t-42.5 -127v-108z" />
    <glyph glyph-name="Dcroat" unicode="&#x110;" horiz-adv-x="680" 
d="M359 715q58 0 105 -17t79.5 -49.5t50 -79.5t17.5 -106v-214q0 -59 -17.5 -105.5t-50.5 -78.5t-79.5 -48.5t-104.5 -16.5h-240q-8 0 -8 8v345h-90q-9 0 -9 8v24q0 9 9 9h90v313q0 8 8 8h240zM359 52q92 0 143.5 50t51.5 147v214q0 97 -51.5 149t-143.5 52h-193v-270h186
q8 0 8 -9v-24q0 -8 -8 -8h-186v-301h193z" />
    <glyph glyph-name="dcroat" unicode="&#x111;" horiz-adv-x="537" 
d="M537 635q8 0 8 -8v-22q0 -9 -8 -9h-73v-562q0 -8 -7 -9q-42 -17 -90 -26.5t-96 -9.5q-49 0 -89 12.5t-68.5 39t-44 67t-15.5 96.5v102q0 106 58 160t155 54q41 0 77.5 -11t66.5 -29v116h-162q-8 0 -8 9v22q0 8 8 8h162v72q0 8 8 8h36q9 0 9 -8v-72h73zM108 204
q0 -90 43 -128.5t121 -38.5q38 0 74 6.5t65 17.5v368q-29 20 -65 31.5t-75 11.5q-78 0 -120.5 -39.5t-42.5 -126.5v-102z" />
    <glyph glyph-name="Emacron" unicode="&#x112;" horiz-adv-x="570" 
d="M149 51h364q8 0 8 -8v-35q0 -8 -8 -8h-411q-8 0 -8 8v699q0 8 8 8h396q9 0 9 -8v-35q0 -8 -9 -8h-349v-274h328q8 0 8 -9v-34q0 -8 -8 -8h-328v-288zM171 812q-9 0 -9 9v28q0 9 9 9h261q8 0 8 -9v-28q0 -9 -8 -9h-261z" />
    <glyph glyph-name="emacron" unicode="&#x113;" horiz-adv-x="513" 
d="M464 238q0 -8 -9 -8h-345v-56q0 -33 12 -58.5t32.5 -43t48 -26.5t58.5 -9q57 0 96 20t67 44q8 5 12 -2l18 -23q6 -6 -1 -12q-35 -30 -82 -52.5t-111 -22.5q-40 0 -76.5 12t-65 35.5t-45.5 58t-17 79.5v158q0 48 16 84.5t43.5 60.5t65 36.5t80.5 12.5q42 0 79 -12.5
t64.5 -36.5t43.5 -60.5t16 -84.5v-94zM412 332q0 72 -42.5 108.5t-108.5 36.5q-69 0 -110 -36.5t-41 -108.5v-57h302v57zM131 656q0 9 8 9h242q8 0 8 -9v-26q0 -9 -8 -9h-242q-8 0 -8 9v26z" />
    <glyph glyph-name="Edotaccent" unicode="&#x116;" horiz-adv-x="570" 
d="M149 51h364q8 0 8 -8v-35q0 -8 -8 -8h-411q-8 0 -8 8v699q0 8 8 8h396q9 0 9 -8v-35q0 -8 -9 -8h-349v-274h328q8 0 8 -9v-34q0 -8 -8 -8h-328v-288zM341 861q0 -17 -11 -28.5t-28 -11.5t-28.5 11.5t-11.5 28.5t11.5 28t28.5 11t28 -11t11 -28z" />
    <glyph glyph-name="edotaccent" unicode="&#x117;" horiz-adv-x="513" 
d="M464 238q0 -8 -9 -8h-345v-56q0 -33 12 -58.5t32.5 -43t48 -26.5t58.5 -9q57 0 96 20t67 44q8 5 12 -2l18 -23q6 -6 -1 -12q-35 -30 -82 -52.5t-111 -22.5q-40 0 -76.5 12t-65 35.5t-45.5 58t-17 79.5v158q0 48 16 84.5t43.5 60.5t65 36.5t80.5 12.5q42 0 79 -12.5
t64.5 -36.5t43.5 -60.5t16 -84.5v-94zM412 332q0 72 -42.5 108.5t-108.5 36.5q-69 0 -110 -36.5t-41 -108.5v-57h302v57zM297 656q0 -16 -10.5 -26t-26.5 -10t-26.5 10t-10.5 26q0 17 10.5 27t26.5 10t26.5 -10t10.5 -27z" />
    <glyph glyph-name="Eogonek" unicode="&#x118;" horiz-adv-x="570" 
d="M476 -152q15 0 26.5 3t25.5 9q9 3 10 -5l7 -26q2 -7 -5 -11q-14 -7 -34.5 -12t-40.5 -5q-39 0 -61.5 20t-22.5 55q0 36 25.5 70t64.5 54h-369q-8 0 -8 8v699q0 8 8 8h396q8 0 8 -8v-35q0 -8 -8 -8h-349v-275h327q9 0 9 -8v-34q0 -9 -9 -9h-327v-287h364q8 0 8 -8v-36
q0 -7 -6 -10q-15 -9 -30 -20t-28 -25t-21 -30t-8 -34q0 -40 48 -40z" />
    <glyph glyph-name="eogonek" unicode="&#x119;" horiz-adv-x="511" 
d="M402 -180q-17 -9 -36 -14.5t-42 -5.5q-37 0 -59 19.5t-22 57.5q0 31 19 62.5t52 59.5q-26 -9 -52 -9q-41 0 -78 12t-65.5 35.5t-45.5 57.5t-17 79v160q0 47 16 83t43.5 60t65 36.5t79.5 12.5q43 0 80 -12.5t64 -36.5t42.5 -60t15.5 -83v-95q0 -9 -8 -9h-344v-56
q0 -33 12 -58t32 -42.5t47.5 -26.5t59.5 -9q54 0 94 19.5t68 43.5q6 6 11 -1l19 -23q5 -6 -1 -12q-13 -11 -29.5 -22t-33.5 -22q-51 -33 -75.5 -68.5t-24.5 -61.5q0 -44 44 -44q28 0 51 13q9 5 11 -4l10 -25q3 -6 -3 -11zM110 275h301v59q0 71 -43 107.5t-109 36.5
q-67 0 -108 -36.5t-41 -108.5v-58z" />
    <glyph glyph-name="Ecaron" unicode="&#x11a;" horiz-adv-x="570" 
d="M149 51h364q8 0 8 -8v-35q0 -8 -8 -8h-411q-8 0 -8 8v699q0 8 8 8h396q9 0 9 -8v-35q0 -8 -9 -8h-349v-274h328q8 0 8 -9v-34q0 -8 -8 -8h-328v-288zM188 936q6 0 11 -5l102 -103l102 103q7 5 11 5h37q5 0 7 -3t-2 -8l-127 -133q-4 -5 -11 -5h-34q-6 0 -10 5l-127 133
q-9 11 4 11h37z" />
    <glyph glyph-name="ecaron" unicode="&#x11b;" horiz-adv-x="513" 
d="M464 238q0 -8 -9 -8h-345v-56q0 -33 12 -58.5t32.5 -43t48 -26.5t58.5 -9q57 0 96 20t67 44q8 5 12 -2l18 -23q6 -6 -1 -12q-35 -30 -82 -52.5t-111 -22.5q-40 0 -76.5 12t-65 35.5t-45.5 58t-17 79.5v158q0 48 16 84.5t43.5 60.5t65 36.5t80.5 12.5q42 0 79 -12.5
t64.5 -36.5t43.5 -60.5t16 -84.5v-94zM412 332q0 72 -42.5 108.5t-108.5 36.5q-69 0 -110 -36.5t-41 -108.5v-57h302v57zM163 748q6 0 11 -5l89 -106l89 106q3 5 10 5h34q12 0 4 -11l-113 -133q-3 -5 -10 -5h-28q-5 0 -10 5l-114 133q-6 11 5 11h33z" />
    <glyph glyph-name="Gbreve" unicode="&#x11e;" horiz-adv-x="639" 
d="M571 88q-48 -48 -110.5 -73t-134.5 -25q-58 0 -105.5 16.5t-81 48t-52 76.5t-18.5 101v252q0 57 18 101.5t51 76t79.5 48t103.5 16.5q62 0 122.5 -19t110.5 -57q8 -5 2 -12l-21 -28q-5 -7 -11 -2q-43 32 -95.5 49t-107.5 17q-95 0 -146 -51.5t-51 -139.5v-251
q0 -88 53 -139t149 -51q56 0 106 18t88 52v215h-190q-9 0 -9 8v35q0 8 9 8h236q9 0 9 -8v-272q0 -7 -4 -10zM477 910q-8 -61 -47.5 -100.5t-108.5 -39.5t-108.5 39.5t-47.5 100.5q-1 7 7 9l27 7q9 1 10 -7q7 -48 34.5 -76t77.5 -28t77.5 28t33.5 76q3 8 10 7l28 -7
q8 -2 7 -9z" />
    <glyph glyph-name="gbreve" unicode="&#x11f;" 
d="M463 -3q0 -44 -11.5 -80t-36.5 -62t-63 -40.5t-91 -14.5q-59 0 -105 20t-85 55q-6 4 -1 12l18 26q5 7 11 1q33 -29 72 -47.5t90 -18.5q78 0 114 39.5t35 113.5v50q-32 -15 -69.5 -24t-73.5 -9q-47 0 -86.5 12.5t-67.5 37.5t-43.5 62.5t-15.5 88.5v105q0 54 16 92t45 62.5
t69 36t87 11.5q48 0 97.5 -10t87.5 -27q7 -3 7 -10v-482zM108 219q0 -82 44.5 -117.5t117.5 -35.5q38 0 75 9.5t65 25.5v354q-28 10 -67.5 16t-72.5 6q-76 0 -119 -36t-43 -117v-105zM418 724q-7 -60 -45 -98t-104 -38q-65 0 -103 38t-45 97q-1 8 7 10l26 3q7 1 10 -7
q7 -45 32.5 -72t72.5 -27t73 27t33 72q1 8 10 7l25 -3q10 0 8 -9z" />
    <glyph glyph-name="Gdotaccent" unicode="&#x120;" horiz-adv-x="639" 
d="M571 88q-48 -48 -110.5 -73t-134.5 -25q-58 0 -105.5 16.5t-81 48t-52 76.5t-18.5 101v252q0 57 18 101.5t51 76t79.5 48t103.5 16.5q62 0 122.5 -19t110.5 -57q8 -5 2 -12l-21 -28q-5 -7 -11 -2q-43 32 -95.5 49t-107.5 17q-95 0 -146 -51.5t-51 -139.5v-251
q0 -88 53 -139t149 -51q56 0 106 18t88 52v215h-190q-9 0 -9 8v35q0 8 9 8h236q9 0 9 -8v-272q0 -7 -4 -10zM360 861q0 -17 -11 -28.5t-28 -11.5t-28.5 11.5t-11.5 28.5t11.5 28t28.5 11t28 -11t11 -28z" />
    <glyph glyph-name="gdotaccent" unicode="&#x121;" 
d="M463 -3q0 -44 -11.5 -80t-36.5 -62t-63 -40.5t-91 -14.5q-59 0 -105 20t-85 55q-6 4 -1 12l18 26q5 7 11 1q33 -29 72 -47.5t90 -18.5q78 0 114 39.5t35 113.5v50q-32 -15 -69.5 -24t-73.5 -9q-47 0 -86.5 12.5t-67.5 37.5t-43.5 62.5t-15.5 88.5v105q0 54 16 92t45 62.5
t69 36t87 11.5q48 0 97.5 -10t87.5 -27q7 -3 7 -10v-482zM108 219q0 -82 44.5 -117.5t117.5 -35.5q38 0 75 9.5t65 25.5v354q-28 10 -67.5 16t-72.5 6q-76 0 -119 -36t-43 -117v-105zM305 656q0 -16 -10.5 -26t-26.5 -10t-26.5 10t-10.5 26q0 17 10.5 27t26.5 10t26.5 -10
t10.5 -27z" />
    <glyph glyph-name="uni0122" unicode="&#x122;" horiz-adv-x="639" 
d="M571 88q-48 -48 -110.5 -73t-134.5 -25q-58 0 -105.5 16.5t-81 48t-52 76.5t-18.5 101v252q0 57 18 101.5t51 76t79.5 48t103.5 16.5q62 0 122.5 -19t110.5 -57q8 -5 2 -12l-21 -28q-5 -7 -11 -2q-43 32 -95.5 49t-107.5 17q-95 0 -146 -51.5t-51 -139.5v-251
q0 -88 53 -139t149 -51q56 0 106 18t88 52v215h-190q-9 0 -9 8v35q0 8 9 8h236q9 0 9 -8v-272q0 -7 -4 -10zM269 -235q-10 0 -8 9l39 144q3 7 9 7h36q8 0 7 -9l-49 -144q-4 -7 -9 -7h-25z" />
    <glyph glyph-name="uni0123" unicode="&#x123;" 
d="M463 -3q0 -44 -11.5 -80t-36.5 -62t-63 -40.5t-91 -14.5q-59 0 -105 20t-85 55q-6 4 -1 12l18 26q5 7 11 1q33 -29 72 -47.5t90 -18.5q78 0 114 39.5t35 113.5v50q-32 -15 -69.5 -24t-73.5 -9q-47 0 -86.5 12.5t-67.5 37.5t-43.5 62.5t-15.5 88.5v105q0 54 16 92t45 62.5
t69 36t87 11.5q48 0 97.5 -10t87.5 -27q7 -3 7 -10v-482zM108 219q0 -82 44.5 -117.5t117.5 -35.5q38 0 75 9.5t65 25.5v354q-28 10 -67.5 16t-72.5 6q-76 0 -119 -36t-43 -117v-105zM240 598q-10 0 -7 10l51 144q3 7 10 7h23q10 0 7 -10l-41 -143q-2 -8 -8 -8h-35z" />
    <glyph glyph-name="Hbar" unicode="&#x126;" horiz-adv-x="683" 
d="M651 600q9 0 9 -8v-24q0 -9 -9 -9h-65v-551q0 -8 -8 -8h-39q-8 0 -8 8v331h-379v-331q0 -8 -8 -8h-38q-9 0 -9 8v551h-64q-9 0 -9 9v24q0 8 9 8h64v107q0 8 9 8h38q8 0 8 -8v-107h379v107q0 8 8 8h39q8 0 8 -8v-107h65zM531 389v170h-379v-170h379z" />
    <glyph glyph-name="hbar" unicode="&#x127;" horiz-adv-x="553" 
d="M127 487q32 14 68 23t75 9q48 0 87.5 -12.5t67.5 -38t43.5 -65t15.5 -93.5v-302q0 -8 -8 -8h-37q-8 0 -8 8v300q0 87 -42.5 125t-120.5 38q-39 0 -75 -9.5t-66 -24.5v-429q0 -8 -8 -8h-37q-8 0 -8 8v588h-73q-8 0 -8 9v22q0 8 8 8h73v72q0 8 8 8h37q8 0 8 -8v-72h162
q8 0 8 -8v-22q0 -9 -8 -9h-162v-109v0z" />
    <glyph glyph-name="Imacron" unicode="&#x12a;" horiz-adv-x="244" 
d="M-2 875q0 9 8 9h232q8 0 8 -9v-28q0 -8 -8 -8h-232q-8 0 -8 8v28zM150 8q0 -8 -9 -8h-38q-9 0 -9 8v699q0 8 9 8h38q9 0 9 -8v-699z" />
    <glyph glyph-name="imacron" unicode="&#x12b;" horiz-adv-x="201" 
d="M7 619q-8 0 -8 8v27q0 8 8 8h187q8 0 8 -8v-27q0 -8 -8 -8h-187zM83 0q-9 0 -9 8v498q0 9 9 9h36q8 0 8 -9v-498q0 -8 -8 -8h-36z" />
    <glyph glyph-name="Iogonek" unicode="&#x12e;" horiz-adv-x="243" 
d="M133 -151q11 0 24 2.5t25 7.5q8 2 11 -6l6 -26q3 -8 -4 -10q-31 -16 -72 -16q-39 0 -62 21t-23 59q0 32 16.5 64.5t43.5 55.5q-2 2 -3 4.5t-1 7.5v694q0 8 8 8h39q8 0 8 -8v-699q0 -9 -6 -10q-27 -23 -42 -52t-15 -53q0 -44 47 -44z" />
    <glyph glyph-name="iogonek" unicode="&#x12f;" horiz-adv-x="201" 
d="M184 -177q-38 -22 -82 -22q-42 0 -65.5 21t-23.5 64q0 31 18.5 61.5t49.5 54.5l-1 1q-6 1 -6 9v494q0 9 9 9h36q8 0 8 -9v-498q0 -9 -7 -10q-33 -27 -47 -53t-14 -48q0 -49 52 -49q11 0 27 3.5t32 12.5q9 3 10 -5l8 -25q2 -8 -4 -11zM137 656q0 -16 -10 -26t-26 -10
t-26 10t-10 26q0 17 10 27t26 10t26 -10t10 -27z" />
    <glyph glyph-name="Idotaccent" unicode="&#x130;" horiz-adv-x="243" 
d="M149 8q0 -8 -8 -8h-39q-8 0 -8 8v699q0 8 8 8h39q8 0 8 -8v-699zM161 861q0 -17 -11 -28.5t-28 -11.5t-28.5 11.5t-11.5 28.5t11.5 28t28.5 11t28 -11t11 -28z" />
    <glyph glyph-name="dotlessi" unicode="&#x131;" horiz-adv-x="201" 
d="M83 0q-9 0 -9 8v498q0 9 9 9h36q8 0 8 -9v-498q0 -8 -8 -8h-36z" />
    <glyph glyph-name="IJ" unicode="&#x132;" horiz-adv-x="751" 
d="M149 8q0 -8 -8 -8h-39q-8 0 -8 8v699q0 8 8 8h39q8 0 8 -8v-699zM662 214q0 -112 -52 -168t-146 -56q-59 0 -104 20.5t-87 58.5q-6 4 -2 12l18 28q5 8 12 2q38 -32 76.5 -50.5t86.5 -18.5q71 0 107 40.5t36 131.5v493q0 8 8 8h39q8 0 8 -8v-493v0z" />
    <glyph glyph-name="ij" unicode="&#x133;" horiz-adv-x="473" 
d="M82 0q-8 0 -8 8v498q0 9 8 9h37q8 0 8 -9v-498q0 -8 -8 -8h-37zM136 656q0 -15 -10 -25t-25 -10q-16 0 -26 10t-10 25q0 16 10 26t26 10q15 0 25 -10t10 -26zM399 -27q0 -90 -36.5 -132t-99.5 -42q-13 0 -25.5 1t-24.5 3q-8 1 -8 10v31q0 9 8 8q12 -2 24 -3t21 -1
q42 0 65 28t23 97v533q0 9 9 9h36q8 0 8 -9v-533zM409 656q0 -15 -10 -25t-26 -10q-15 0 -25.5 10t-10.5 25q0 16 10.5 26t25.5 10q16 0 26 -10t10 -26z" />
    <glyph glyph-name="uni0136" unicode="&#x136;" horiz-adv-x="608" 
d="M102 0q-8 0 -8 8v699q0 8 8 8h39q8 0 8 -8v-367l361 370q7 5 11 5h51q5 0 7 -3t-2 -7l-305 -312l324 -383q8 -10 -5 -10h-51q-8 0 -10 5l-295 349l-86 -85v-261q0 -8 -8 -8h-39zM257 -235q-10 0 -8 9l39 144q3 7 9 7h36q8 0 7 -9l-49 -144q-4 -7 -9 -7h-25z" />
    <glyph glyph-name="uni0137" unicode="&#x137;" horiz-adv-x="484" 
d="M423 0q-7 0 -11 5l-217 252l-68 -60v-189q0 -8 -8 -8h-36q-9 0 -9 8v699q0 8 9 8h36q8 0 8 -8v-445l272 249q3 4 10 4h46q5 0 6.5 -3t-2.5 -7l-228 -212l242 -283q8 -10 -4 -10h-46zM215 -235q-10 0 -8 10l37 144q2 7 9 7h32q10 0 7 -10l-45 -144q-4 -7 -10 -7h-22z" />
    <glyph glyph-name="Lacute" unicode="&#x139;" horiz-adv-x="501" 
d="M101 0q-8 0 -8 8v699q0 8 8 8h39q8 0 8 -8v-656h332q8 0 8 -8v-35q0 -8 -8 -8h-379zM136 792q-5 -5 -11 -5h-32q-5 0 -6.5 3t1.5 8l106 133q4 5 10 5h45q13 0 5 -10z" />
    <glyph glyph-name="lacute" unicode="&#x13a;" horiz-adv-x="278" 
d="M263 -7q-13 -2 -29 -3t-28 -1q-64 0 -100.5 42t-36.5 132v544q0 8 8 8h36q9 0 9 -8v-547q0 -66 23 -94t65 -28q10 0 24 1t28 3q8 0 8 -8v-31q0 -9 -7 -10zM112 792q-5 -5 -11 -5h-32q-5 0 -6.5 3t1.5 8l106 133q4 5 10 5h45q13 0 5 -10z" />
    <glyph glyph-name="uni013B" unicode="&#x13b;" horiz-adv-x="501" 
d="M102 0q-8 0 -8 8v699q0 8 8 8h39q8 0 8 -8v-656h332q8 0 8 -8v-35q0 -8 -8 -8h-379zM208 -235q-10 0 -8 9l39 144q3 7 9 7h36q8 0 7 -9l-49 -144q-4 -7 -9 -7h-25z" />
    <glyph glyph-name="uni013C" unicode="&#x13c;" horiz-adv-x="278" 
d="M264 -7q-13 -2 -29 -3t-28 -1q-64 0 -100.5 42t-36.5 132v544q0 8 8 8h36q9 0 9 -8v-547q0 -66 23 -94t65 -28q10 0 24 1t28 3q8 0 8 -8v-31q0 -9 -7 -10zM139 -235q-10 0 -8 10l37 144q2 7 9 7h32q10 0 7 -10l-45 -144q-4 -7 -10 -7h-22z" />
    <glyph glyph-name="Lcaron" unicode="&#x13d;" horiz-adv-x="501" 
d="M305 541q-10 0 -8 10l42 157q2 7 9 7h36q9 0 7 -10l-50 -157q-4 -7 -9 -7h-27zM102 0q-8 0 -8 8v699q0 8 8 8h39q8 0 8 -8v-656h332q8 0 8 -8v-35q0 -8 -8 -8h-379z" />
    <glyph glyph-name="lcaron" unicode="&#x13e;" horiz-adv-x="290" 
d="M262 -7q-12 -2 -27.5 -3t-27.5 -1q-64 0 -100.5 42t-36.5 132v544q0 8 9 8h36q8 0 8 -8v-547q0 -66 23.5 -94t65.5 -28q9 0 22.5 1t26.5 3q9 0 9 -8v-31q0 -8 -8 -10zM216 564q-11 0 -7 9l39 135q1 7 9 7h33q9 0 6 -10l-48 -135q-2 -6 -9 -6h-23z" />
    <glyph glyph-name="Ldot" unicode="&#x13f;" horiz-adv-x="501" 
d="M102 0q-8 0 -8 8v699q0 8 8 8h39q8 0 8 -8v-656h332q8 0 8 -8v-35q0 -8 -8 -8h-379zM355 354q0 -17 -11 -28t-28 -11t-27.5 11t-10.5 28t10.5 28t27.5 11t28 -11t11 -28z" />
    <glyph glyph-name="ldot" unicode="&#x140;" horiz-adv-x="296" 
d="M262 -7q-12 -2 -27.5 -3t-27.5 -1q-64 0 -100.5 42t-36.5 132v544q0 8 8 8h37q8 0 8 -8v-547q0 -66 23.5 -94t65.5 -28q9 0 22 1t27 3q9 0 9 -8v-31q0 -8 -8 -10zM280 345q0 -16 -9.5 -26t-26.5 -10t-27 10t-10 26q0 17 10 27t27 10t26.5 -10t9.5 -27z" />
    <glyph glyph-name="Lslash" unicode="&#x141;" horiz-adv-x="512" 
d="M160 51h331q8 0 8 -8v-35q0 -8 -8 -8h-378q-8 0 -8 8v285l-79 -52q-5 -3 -8 -1.5t-3 6.5v35q0 5 6 10l84 55v361q0 8 8 8h38q9 0 9 -8v-325l152 101q11 7 11 -5v-35q0 -6 -6 -10l-157 -104v-278z" />
    <glyph glyph-name="lslash" unicode="&#x142;" horiz-adv-x="351" 
d="M303 -7q-12 -2 -27 -3t-28 -1q-64 0 -100.5 42t-36.5 132v123l-75 -54q-5 -4 -7.5 -1.5t-2.5 7.5v33q0 5 5 10l80 58v368q0 8 9 8h36q8 0 8 -8v-331l132 96q5 3 7.5 1t2.5 -7v-33q0 -7 -5 -10l-137 -99v-164q0 -66 23.5 -94t65.5 -28q10 0 23 1t26 3q9 0 9 -8v-31
q0 -8 -8 -10z" />
    <glyph glyph-name="Nacute" unicode="&#x143;" horiz-adv-x="701" 
d="M102 0q-8 0 -8 8v699q0 8 8 8h44q7 0 10 -6l329 -510q17 -28 35 -57t34 -57l2 3q-2 63 -3 133t-1 133v353q0 8 9 8h38q8 0 8 -8v-699q0 -8 -8 -8h-44q-7 0 -10 5l-332 510q-17 26 -34 55t-32 55l-1 -1q0 -28 0.5 -60t1 -64.5t1 -64.5t0.5 -60v-367q0 -8 -9 -8h-38z
M358 792q-5 -5 -11 -5h-32q-5 0 -6.5 3t1.5 8l106 133q4 5 10 5h45q13 0 5 -10z" />
    <glyph glyph-name="nacute" unicode="&#x144;" horiz-adv-x="551" 
d="M81 0q-9 0 -9 8v469q0 7 7 10q42 18 88.5 28.5t97.5 10.5q100 0 158.5 -50.5t58.5 -157.5v-310q0 -8 -8 -8h-36q-9 0 -9 8v308q0 85 -42.5 123t-121.5 38q-38 0 -74.5 -6.5t-65.5 -17.5v-445q0 -8 -8 -8h-36zM222 598q-5 0 -7.5 3t0.5 8l82 133q3 5 10 5h41q12 0 5 -10
l-93 -133q-3 -6 -10 -6h-28z" />
    <glyph glyph-name="uni0145" unicode="&#x145;" horiz-adv-x="701" 
d="M102 0q-8 0 -8 8v699q0 8 8 8h44q7 0 10 -6l329 -510q17 -28 35 -57t34 -57l2 3q-2 63 -3 133t-1 133v353q0 8 9 8h38q8 0 8 -8v-699q0 -8 -8 -8h-44q-7 0 -10 5l-332 510q-17 26 -34 55t-32 55l-1 -1q0 -28 0.5 -60t1 -64.5t1 -64.5t0.5 -60v-367q0 -8 -9 -8h-38z
M302 -235q-10 0 -8 9l39 144q3 7 9 7h36q8 0 7 -9l-49 -144q-4 -7 -9 -7h-25z" />
    <glyph glyph-name="uni0146" unicode="&#x146;" horiz-adv-x="551" 
d="M81 0q-9 0 -9 8v469q0 7 7 10q42 18 88.5 28.5t97.5 10.5q100 0 158.5 -50.5t58.5 -157.5v-310q0 -8 -8 -8h-36q-9 0 -9 8v308q0 85 -42.5 123t-121.5 38q-38 0 -74.5 -6.5t-65.5 -17.5v-445q0 -8 -8 -8h-36zM230 -235q-10 0 -8 10l37 144q2 7 9 7h32q10 0 7 -10
l-45 -144q-4 -7 -10 -7h-22z" />
    <glyph glyph-name="Ncaron" unicode="&#x147;" horiz-adv-x="701" 
d="M102 0q-8 0 -8 8v699q0 8 8 8h44q7 0 10 -6l329 -510q17 -28 35 -57t34 -57l2 3q-2 63 -3 133t-1 133v353q0 8 9 8h38q8 0 8 -8v-699q0 -8 -8 -8h-44q-7 0 -10 5l-332 510q-17 26 -34 55t-32 55l-1 -1q0 -28 0.5 -60t1 -64.5t1 -64.5t0.5 -60v-367q0 -8 -9 -8h-38z
M237 936q6 0 11 -5l102 -103l102 103q7 5 11 5h37q5 0 7 -3t-2 -8l-127 -133q-4 -5 -11 -5h-34q-6 0 -10 5l-127 133q-9 11 4 11h37z" />
    <glyph glyph-name="ncaron" unicode="&#x148;" horiz-adv-x="551" 
d="M81 0q-9 0 -9 8v469q0 7 7 10q42 18 88.5 28.5t97.5 10.5q100 0 158.5 -50.5t58.5 -157.5v-310q0 -8 -8 -8h-36q-9 0 -9 8v308q0 85 -42.5 123t-121.5 38q-38 0 -74.5 -6.5t-65.5 -17.5v-445q0 -8 -8 -8h-36zM141 748.036q-11 0 -5 -10.999l114 -132.992
q5 -4.99902 10 -4.99902h28q7 0 10 4.99902l113 132.992q8 10.999 -4 10.999h-34q-7 0 -10 -4.99902l-89 -105.994l-89 105.994q-5 4.99902 -11 4.99902h-33z" />
    <glyph glyph-name="Eng" unicode="&#x14a;" horiz-adv-x="701" 
d="M552 707q0 8 9 8h38q8 0 8 -8v-714q0 -53 -7.5 -89.5t-24 -59.5t-42 -33.5t-61.5 -10.5q-10 0 -21.5 0.5t-22.5 2.5q-8 2 -8 9v33q0 8 9 8q11 -2 21 -2.5t16 -0.5q50 0 68.5 34t19.5 111l-325 495q-20 32 -41.5 67t-40.5 68l-1 -3q1 -42 2 -87.5t1 -87.5v-439q0 -8 -9 -8
h-38q-8 0 -8 8v699q0 8 8 8h44q7 0 10 -6l303 -473l48 -76t47 -76l2 3q-2 49 -3 101.5t-1 101.5v417z" />
    <glyph glyph-name="eng" unicode="&#x14b;" horiz-adv-x="551" 
d="M482 -24q0 -94 -35.5 -135t-98.5 -41q-13 0 -25 1t-24 3q-8 1 -8 10v30q0 9 8 9q12 -2 24 -3t20 -1q41 0 63.5 29t22.5 98v340q0 85 -42.5 123t-121.5 38q-38 0 -74.5 -6.5t-65.5 -17.5v-445q0 -8 -8 -8h-36q-9 0 -9 8v469q0 5 6 10q42 18 89 28.5t98 10.5
q100 0 158.5 -50.5t58.5 -157.5v-342v0z" />
    <glyph glyph-name="Omacron" unicode="&#x14c;" horiz-adv-x="669" 
d="M600 235q0 -54 -19 -99.5t-53.5 -78t-83.5 -50.5t-109 -18q-61 0 -110 18t-83.5 50.5t-53.5 78t-19 99.5v239q0 57 18.5 103.5t53 79.5t84 51t110.5 18t110 -18t83.5 -51t53 -79.5t18.5 -103.5v-239zM124 235q0 -43 14.5 -79t42 -61.5t66.5 -39.5t88 -14t88 14t66 39.5
t41.5 61.5t14.5 79v239q0 92 -56 146t-154 54q-99 0 -155 -54t-56 -146v-239zM204 812q-9 0 -9 9v28q0 9 9 9h261q8 0 8 -9v-28q0 -9 -8 -9h-261z" />
    <glyph glyph-name="omacron" unicode="&#x14d;" 
d="M481 181q0 -42 -14 -77t-41.5 -60.5t-67 -40t-90.5 -14.5t-90.5 14.5t-66.5 40t-41.5 60.5t-14.5 77v152q0 41 14.5 76.5t41.5 61.5t66.5 40.5t90.5 14.5t90.5 -14.5t67 -40.5t41.5 -61.5t14 -76.5v-152zM109 181q0 -63 40 -103.5t119 -40.5q80 0 120 41t40 103v152
q0 62 -40 103t-120 41q-79 0 -119 -40.5t-40 -103.5v-152zM139 656q0 9 8 9h242q8 0 8 -9v-26q0 -9 -8 -9h-242q-8 0 -8 9v26z" />
    <glyph glyph-name="Ohungarumlaut" unicode="&#x150;" horiz-adv-x="669" 
d="M600 235q0 -54 -19 -99.5t-53.5 -78t-83.5 -50.5t-109 -18q-61 0 -110 18t-83.5 50.5t-53.5 78t-19 99.5v239q0 57 18.5 103.5t53 79.5t84 51t110.5 18t110 -18t83.5 -51t53 -79.5t18.5 -103.5v-239zM124 235q0 -43 14.5 -79t42 -61.5t66.5 -39.5t88 -14t88 14t66 39.5
t41.5 61.5t14.5 79v239q0 92 -56 146t-154 54q-99 0 -155 -54t-56 -146v-239zM208 787q-12 0 -5 11l105 133q3 5 10 5h44q12 0 5 -10l-117 -134q-3 -5 -10 -5h-32zM378 787q-12 0 -5 11l107 133q3 5 11 5h44q12 0 5 -10l-120 -134q-4 -5 -11 -5h-31z" />
    <glyph glyph-name="ohungarumlaut" unicode="&#x151;" 
d="M481 181q0 -42 -14 -77t-41.5 -60.5t-67 -40t-90.5 -14.5t-90.5 14.5t-66.5 40t-41.5 60.5t-14.5 77v152q0 41 14.5 76.5t41.5 61.5t66.5 40.5t90.5 14.5t90.5 -14.5t67 -40.5t41.5 -61.5t14 -76.5v-152zM109 181q0 -63 40 -103.5t119 -40.5q80 0 120 41t40 103v152
q0 62 -40 103t-120 41q-79 0 -119 -40.5t-40 -103.5v-152zM174 598q-12 0 -6 11l74 133q3 5 10 5h34q12 0 5 -10l-83 -133q-5 -6 -11 -6h-23zM304 598q-13 0 -7 11l79 133q3 5 10 5h34q5 0 6.5 -2.5t-1.5 -7.5l-88 -133q-3 -6 -10 -6h-23z" />
    <glyph glyph-name="OE" unicode="&#x152;" horiz-adv-x="991" 
d="M532 0q-9 0 -9 8v81q-30 -46 -81.5 -73t-113.5 -27q-55 0 -102 17t-82 49t-55 79t-20 106v231q0 61 20 108.5t54.5 80t82 49.5t102.5 17q62 0 114 -27t81 -75v83q0 8 9 8h387q9 0 9 -8v-36q0 -8 -9 -8h-340v-274h319q8 0 8 -8v-36q0 -8 -8 -8h-319v-285h355q8 0 8 -8v-36
q0 -8 -8 -8h-402zM125 240q0 -47 15.5 -84t42.5 -63t64 -39.5t81 -13.5q42 0 77.5 13.5t61.5 39t40.5 61t14.5 80.5v243q0 47 -14.5 84t-40 62.5t-61.5 38.5t-78 13q-44 0 -81.5 -13.5t-64.5 -39t-42 -64t-15 -87.5v-231z" />
    <glyph glyph-name="oe" unicode="&#x153;" horiz-adv-x="884" 
d="M632 -11q-56 0 -104.5 24.5t-74.5 72.5q-23 -45 -69.5 -71t-115.5 -26q-51 0 -90.5 14.5t-66.5 40t-41.5 60.5t-14.5 77v152q0 41 14.5 76.5t41.5 61.5t66.5 40.5t90.5 14.5q68 0 115 -27t71 -71q25 49 72 73.5t106 24.5q42 0 79 -12.5t64.5 -36.5t43.5 -60.5t16 -84.5
v-94q0 -8 -8 -8h-346v-56q0 -33 12 -58t32.5 -42.5t48 -26.5t59.5 -9q56 0 95 20t67 45q7 6 12 -2l19 -24q6 -6 -1 -12q-35 -30 -82.5 -53t-110.5 -23zM109 181q0 -63 40 -103.5t119 -40.5q80 0 120 40t40 104v152q0 62 -40 103t-120 41q-79 0 -119 -40.5t-40 -103.5v-152z
M481 275h302v57q0 72 -42 108.5t-109 36.5q-68 0 -109.5 -36.5t-41.5 -108.5v-57z" />
    <glyph glyph-name="Racute" unicode="&#x154;" horiz-adv-x="623" 
d="M527 0q-8 0 -11 5l-217 288h-150v-285q0 -8 -8 -8h-39q-8 0 -8 8v699q0 8 8 8h222q114 0 179 -55.5t65 -155.5q0 -90 -54.5 -144t-151.5 -63l219 -287q2 -4 0.5 -7t-6.5 -3h-48zM149 664v-320h176q91 0 139 40.5t48 118.5q0 79 -48 120t-139 41h-176zM307 792
q-5 -5 -11 -5h-32q-5 0 -6.5 3t1.5 8l106 133q4 5 10 5h45q13 0 5 -10z" />
    <glyph glyph-name="racute" unicode="&#x155;" horiz-adv-x="375" 
d="M81 0q-9 0 -9 8v472q0 7 7 10q37 17 81 26.5t88 9.5q25 0 50.5 -2.5t51.5 -6.5q8 -1 8 -9v-31q0 -9 -9 -7q-23 4 -47.5 6t-47.5 2q-35 0 -68.5 -6.5t-60.5 -17.5v-446q0 -8 -8 -8h-36zM172 598q-5 0 -7.5 3t0.5 8l82 133q3 5 10 5h41q12 0 5 -10l-93 -133q-3 -6 -10 -6
h-28z" />
    <glyph glyph-name="uni0156" unicode="&#x156;" horiz-adv-x="623" 
d="M527 0q-8 0 -11 5l-217 288h-150v-285q0 -8 -8 -8h-39q-8 0 -8 8v699q0 8 8 8h222q114 0 179 -55.5t65 -155.5q0 -90 -54.5 -144t-151.5 -63l219 -287q2 -4 0.5 -7t-6.5 -3h-48zM149 664v-320h176q91 0 139 40.5t48 118.5q0 79 -48 120t-139 41h-176zM264 -235
q-10 0 -8 9l39 144q3 7 9 7h36q8 0 7 -9l-49 -144q-4 -7 -9 -7h-25z" />
    <glyph glyph-name="uni0157" unicode="&#x157;" horiz-adv-x="375" 
d="M81 0q-9 0 -9 8v472q0 7 7 10q37 17 81 26.5t88 9.5q25 0 50.5 -2.5t51.5 -6.5q8 -1 8 -9v-31q0 -9 -9 -7q-23 4 -47.5 6t-47.5 2q-35 0 -68.5 -6.5t-60.5 -17.5v-446q0 -8 -8 -8h-36zM58 -235q-10 0 -8 10l37 144q2 7 9 7h32q10 0 7 -10l-45 -144q-4 -7 -10 -7h-22z" />
    <glyph glyph-name="Rcaron" unicode="&#x158;" horiz-adv-x="623" 
d="M527 0q-8 0 -11 5l-217 288h-150v-285q0 -8 -8 -8h-39q-8 0 -8 8v699q0 8 8 8h222q114 0 179 -55.5t65 -155.5q0 -90 -54.5 -144t-151.5 -63l219 -287q2 -4 0.5 -7t-6.5 -3h-48zM149 664v-320h176q91 0 139 40.5t48 118.5q0 79 -48 120t-139 41h-176zM186 936q6 0 11 -5
l102 -103l102 103q7 5 11 5h37q5 0 7 -3t-2 -8l-127 -133q-4 -5 -11 -5h-34q-6 0 -10 5l-127 133q-9 11 4 11h37z" />
    <glyph glyph-name="rcaron" unicode="&#x159;" horiz-adv-x="375" 
d="M81 0q-9 0 -9 8v472q0 7 7 10q37 17 81 26.5t88 9.5q25 0 50.5 -2.5t51.5 -6.5q8 -1 8 -9v-31q0 -9 -9 -7q-23 4 -47.5 6t-47.5 2q-35 0 -68.5 -6.5t-60.5 -17.5v-446q0 -8 -8 -8h-36zM89 748.036q-11 0 -5 -10.999l114 -132.992q5 -4.99902 10 -4.99902h28
q7 0 10 4.99902l113 132.992q8 10.999 -4 10.999h-34q-7 0 -10 -4.99902l-89 -105.994l-89 105.994q-5 4.99902 -11 4.99902h-33z" />
    <glyph glyph-name="Sacute" unicode="&#x15a;" horiz-adv-x="599" 
d="M554 185q0 -49 -19 -86t-53 -61.5t-80 -36.5t-100 -12q-75 0 -132.5 23.5t-115.5 71.5q-6 6 -1 12l21 29q5 6 12 2q53 -43 104 -64t113 -22q41 0 76.5 9t62 27t41.5 45t15 63q0 33 -12 56.5t-37 41t-64 31t-92 25.5q-52 12 -96 29t-75.5 41.5t-49 58t-17.5 78.5
q0 46 19.5 80t53 56.5t78 33t93.5 10.5q69 0 124 -20t109 -60q6 -4 2 -12l-20 -28q-5 -8 -12 -3q-92 69 -209 71q-38 0 -71 -8t-57.5 -24t-39 -40.5t-14.5 -57.5q0 -32 13 -55.5t38 -41t61 -30.5t83 -24q60 -14 106 -31.5t77.5 -41.5t48 -56.5t16.5 -78.5zM305 792
q-5 -5 -11 -5h-32q-5 0 -6.5 3t1.5 8l106 133q4 5 10 5h45q13 0 5 -10z" />
    <glyph glyph-name="sacute" unicode="&#x15b;" horiz-adv-x="467" 
d="M430 139q0 -69 -52 -109.5t-143 -40.5q-108 0 -193 65q-7 4 -3 11l17 28q5 8 12 2q38 -28 79.5 -43t88.5 -15q62 0 101 25.5t39 74.5q0 27 -12.5 44t-32.5 27.5t-45 17t-50 11.5q-29 6 -62.5 15t-61.5 26.5t-46.5 44t-18.5 66.5q0 34 15 59.5t40 42.5t58.5 26t71.5 9
q52 0 94 -13t81 -35q7 -5 3 -12l-16 -27q-4 -8 -12 -3q-32 19 -71 30t-81 11q-59 0 -95 -23t-36 -65q0 -26 12.5 -43t33 -28.5t47 -19t54.5 -13.5q32 -7 65 -15.5t59.5 -24.5t43 -41t16.5 -65zM194 598q-5 0 -7.5 3t0.5 8l82 133q3 5 10 5h41q12 0 5 -10l-93 -133
q-3 -6 -10 -6h-28z" />
    <glyph glyph-name="Scedilla" unicode="&#x15e;" horiz-adv-x="599" 
d="M554 185q0 -45 -16.5 -80t-45.5 -59t-69.5 -38t-88.5 -17l-19 -47q42 -2 66.5 -19t24.5 -50q0 -38 -29 -59t-78 -21q-32 0 -60 9q-7 3 -7 10v17q0 10 10 7q14 -5 27 -6.5t25 -1.5q31 0 49 12t18 35q1 22 -16.5 32.5t-59.5 11.5q-8 0 -10 5q-3 5 0 9l21 55
q-73 1 -129 23.5t-113 70.5q-6 6 -1 12l21 29q5 6 12 2q53 -43 104 -63.5t113 -21.5q41 0 76.5 8.5t62 26.5t41.5 45t15 63q0 33 -12 56.5t-37 41t-64 31t-92 25.5q-52 12 -96 29t-75.5 41.5t-49 58t-17.5 78.5q0 46 19.5 80t53 56.5t78 33t93.5 10.5q69 0 124 -20t109 -60
q6 -4 2 -12l-20 -28q-5 -8 -12 -3q-92 69 -209 71q-38 0 -71 -8t-57.5 -24t-39 -40.5t-14.5 -57.5q0 -32 13 -55.5t38 -41t61 -30.5t83 -24q60 -14 106 -31.5t77.5 -41.5t48 -56.5t16.5 -78.5z" />
    <glyph glyph-name="scedilla" unicode="&#x15f;" horiz-adv-x="467" 
d="M430 139q0 -64 -47 -103.5t-126 -45.5l-17 -45q42 -2 65.5 -19.5t23.5 -50.5q0 -37 -28.5 -58t-76.5 -21q-14 0 -29.5 2t-29.5 7q-7 3 -7 10v17q0 9 10 7q14 -5 27 -6.5t24 -1.5q30 0 48 12t18 35q0 22 -17 32.5t-57 11.5q-8 0 -10 5q-3 5 0 9l20 53q-51 2 -95 18t-84 47
q-7 4 -3 11l17 28q5 8 12 2q38 -28 79.5 -43t88.5 -15q62 0 101 25.5t39 74.5q0 27 -12.5 44t-32.5 27.5t-45 17t-50 11.5q-29 6 -62.5 15t-61.5 26.5t-46.5 44t-18.5 66.5q0 34 15 59.5t40 42.5t58.5 26t71.5 9q52 0 94 -13t81 -35q7 -5 3 -12l-16 -27q-4 -8 -12 -3
q-32 19 -71 30t-81 11q-59 0 -95 -23t-36 -65q0 -26 12.5 -43t33 -28.5t47 -19t54.5 -13.5q32 -7 65 -15.5t59.5 -24.5t43 -41t16.5 -65z" />
    <glyph glyph-name="Scaron" unicode="&#x160;" horiz-adv-x="599" 
d="M554 185q0 -49 -19 -86t-53 -61.5t-80 -36.5t-100 -12q-75 0 -132.5 23.5t-115.5 71.5q-6 6 -1 12l21 29q5 6 12 2q53 -43 104 -64t113 -22q41 0 76.5 9t62 27t41.5 45t15 63q0 33 -12 56.5t-37 41t-64 31t-92 25.5q-52 12 -96 29t-75.5 41.5t-49 58t-17.5 78.5
q0 46 19.5 80t53 56.5t78 33t93.5 10.5q69 0 124 -20t109 -60q6 -4 2 -12l-20 -28q-5 -8 -12 -3q-92 69 -209 71q-38 0 -71 -8t-57.5 -24t-39 -40.5t-14.5 -57.5q0 -32 13 -55.5t38 -41t61 -30.5t83 -24q60 -14 106 -31.5t77.5 -41.5t48 -56.5t16.5 -78.5zM184 936
q6 0 11 -5l102 -103l102 103q7 5 11 5h37q5 0 7 -3t-2 -8l-127 -133q-4 -5 -11 -5h-34q-6 0 -10 5l-127 133q-9 11 4 11h37z" />
    <glyph glyph-name="scaron" unicode="&#x161;" horiz-adv-x="467" 
d="M430 139q0 -69 -52 -109.5t-143 -40.5q-108 0 -193 65q-7 4 -3 11l17 28q5 8 12 2q38 -28 79.5 -43t88.5 -15q62 0 101 25.5t39 74.5q0 27 -12.5 44t-32.5 27.5t-45 17t-50 11.5q-29 6 -62.5 15t-61.5 26.5t-46.5 44t-18.5 66.5q0 34 15 59.5t40 42.5t58.5 26t71.5 9
q52 0 94 -13t81 -35q7 -5 3 -12l-16 -27q-4 -8 -12 -3q-32 19 -71 30t-81 11q-59 0 -95 -23t-36 -65q0 -26 12.5 -43t33 -28.5t47 -19t54.5 -13.5q32 -7 65 -15.5t59.5 -24.5t43 -41t16.5 -65zM136 748q6 0 11 -5l89 -106l89 106q3 5 10 5h34q12 0 4 -11l-113 -133
q-3 -5 -10 -5h-28q-5 0 -10 5l-114 133q-6 11 5 11h33z" />
    <glyph glyph-name="uni0162" unicode="&#x162;" horiz-adv-x="545" 
d="M222 -235q-10 0 -8 9l39 144q3 7 9 7h36q8 0 7 -9l-49 -144q-4 -7 -9 -7h-25zM524 715q9 0 9 -8v-35q0 -8 -9 -8h-225v-656q0 -8 -9 -8h-38q-9 0 -9 8v656h-223q-8 0 -8 8v35q0 8 8 8h504z" />
    <glyph glyph-name="uni0163" unicode="&#x163;" horiz-adv-x="310" 
d="M137 -235q-10 0 -8 10l37 144q2 7 9 7h32q10 0 7 -10l-45 -144q-4 -7 -10 -7h-22zM123 161q0 -57 28 -89.5t83 -32.5q10 0 25.5 0.5t29.5 1.5q8 2 8 -8v-32q0 -8 -8 -9q-14 -2 -30 -2.5t-27 -0.5q-74 0 -118 43t-44 127v476q0 8 8 8h32q7 0 9 -8l3 -122h153q8 0 8 -9v-31
q0 -8 -8 -8h-152v-304v0z" />
    <glyph glyph-name="Tcaron" unicode="&#x164;" horiz-adv-x="545" 
d="M524 715q9 0 9 -8v-35q0 -8 -9 -8h-225v-656q0 -8 -9 -8h-38q-9 0 -9 8v656h-223q-8 0 -8 8v35q0 8 8 8h504zM157 936q6 0 11 -5l102 -103l102 103q7 5 11 5h37q5 0 7 -3t-2 -8l-127 -133q-4 -5 -11 -5h-34q-6 0 -10 5l-127 133q-9 11 4 11h37z" />
    <glyph glyph-name="tcaron" unicode="&#x165;" horiz-adv-x="310" 
d="M289 -6q-14 -2 -30 -2.5t-27 -0.5q-74 0 -118 42t-44 126v476q0 8 8 8h32q7 0 9 -8l3 -122h153q8 0 8 -9v-31q0 -8 -8 -8h-152v-304q0 -57 28 -88.5t83 -31.5q10 0 25.5 0.5t29.5 1.5q8 2 8 -8v-32q0 -7 -8 -9zM209 588q-9 0 -7 9l40 134q1 7 9 7h32q10 0 7 -10l-52 -134
q-3 -6 -9 -6h-20z" />
    <glyph glyph-name="Tbar" unicode="&#x166;" horiz-adv-x="558" 
d="M259 0q-9 0 -9 8v314h-135q-9 0 -9 9v24q0 8 9 8h135v301h-222q-8 0 -8 8v35q0 8 8 8h502q9 0 9 -8v-35q0 -8 -9 -8h-224v-301h135q9 0 9 -8v-24q0 -9 -9 -9h-135v-314q0 -8 -9 -8h-38z" />
    <glyph glyph-name="tbar" unicode="&#x167;" horiz-adv-x="313" 
d="M293 -8q-14 -2 -30.5 -2.5t-27.5 -0.5q-73 0 -117.5 43t-44.5 127v101h-47q-9 0 -9 8v22q0 9 9 9h47v336q0 8 8 8h33q8 0 8 -8l4 -122h152q9 0 9 -9v-31q0 -8 -9 -8h-152v-166h108q9 0 9 -9v-22q0 -8 -9 -8h-108v-99q0 -57 28 -89.5t83 -32.5q10 0 25.5 0.5t29.5 1.5
q9 1 9 -8v-32q0 -7 -8 -9z" />
    <glyph glyph-name="Umacron" unicode="&#x16a;" horiz-adv-x="681" 
d="M593 242q0 -56 -17.5 -102.5t-50 -80t-79.5 -52t-106 -18.5t-105.5 18.5t-79 52t-50 80t-17.5 102.5v465q0 8 9 8h39q8 0 8 -8v-462q0 -94 50.5 -149t145.5 -55t146 55t51 149v462q0 8 8 8h39q9 0 9 -8v-465v0zM210 812q-9 0 -9 9v28q0 9 9 9h261q8 0 8 -9v-28
q0 -9 -8 -9h-261z" />
    <glyph glyph-name="umacron" unicode="&#x16b;" horiz-adv-x="544" 
d="M463 515q8 0 8 -9v-468q0 -7 -6 -10q-41 -18 -87 -28.5t-96 -10.5q-49 0 -88.5 12.5t-67 38t-42.5 65t-15 92.5v309q0 9 8 9h36q9 0 9 -9v-308q0 -84 41.5 -122.5t118.5 -38.5q37 0 72 7t64 18v444q0 9 9 9h36zM142 656q0 9 8 9h242q8 0 8 -9v-26q0 -9 -8 -9h-242
q-8 0 -8 9v26z" />
    <glyph glyph-name="Uring" unicode="&#x16e;" horiz-adv-x="681" 
d="M593 242q0 -56 -17.5 -102.5t-50 -80t-79.5 -52t-106 -18.5t-105.5 18.5t-79 52t-50 80t-17.5 102.5v465q0 8 9 8h39q8 0 8 -8v-462q0 -94 50.5 -149t145.5 -55t146 55t51 149v462q0 8 8 8h39q9 0 9 -8v-465v0zM442 859q0 -46 -28 -71.5t-73 -25.5t-74 26t-29 71t29 71.5
t74 26.5t73 -26.5t28 -71.5zM274 859q0 -29 18 -46t49 -17t48 17t17 46t-17 46t-48 17t-49 -17t-18 -46z" />
    <glyph glyph-name="uring" unicode="&#x16f;" horiz-adv-x="544" 
d="M463 515q8 0 8 -9v-468q0 -7 -6 -10q-41 -18 -87 -28.5t-96 -10.5q-49 0 -88.5 12.5t-67 38t-42.5 65t-15 92.5v309q0 9 8 9h36q9 0 9 -9v-308q0 -84 41.5 -122.5t118.5 -38.5q37 0 72 7t64 18v444q0 9 9 9h36zM371 671q0 -45 -28 -70.5t-72 -25.5q-45 0 -73.5 26
t-28.5 71t28.5 70.5t73.5 25.5q44 0 72 -26t28 -71zM205 671q0 -27 18.5 -44.5t47.5 -17.5t47 17.5t18 44.5q0 29 -18 46t-47 17t-47.5 -17t-18.5 -46z" />
    <glyph glyph-name="Uhungarumlaut" unicode="&#x170;" horiz-adv-x="681" 
d="M593 242q0 -56 -17.5 -102.5t-50 -80t-79.5 -52t-106 -18.5t-105.5 18.5t-79 52t-50 80t-17.5 102.5v465q0 8 9 8h39q8 0 8 -8v-462q0 -94 50.5 -149t145.5 -55t146 55t51 149v462q0 8 8 8h39q9 0 9 -8v-465v0zM214 787q-12 0 -5 11l105 133q3 5 10 5h44q12 0 5 -10
l-117 -134q-3 -5 -10 -5h-32zM384 787q-12 0 -5 11l107 133q3 5 11 5h44q12 0 5 -10l-120 -134q-4 -5 -11 -5h-31z" />
    <glyph glyph-name="uhungarumlaut" unicode="&#x171;" horiz-adv-x="544" 
d="M463 515q8 0 8 -9v-468q0 -7 -6 -10q-41 -18 -87 -28.5t-96 -10.5q-49 0 -88.5 12.5t-67 38t-42.5 65t-15 92.5v309q0 9 8 9h36q9 0 9 -9v-308q0 -84 41.5 -122.5t118.5 -38.5q37 0 72 7t64 18v444q0 9 9 9h36zM177 598q-12 0 -6 11l74 133q3 5 10 5h34q12 0 5 -10
l-83 -133q-5 -6 -11 -6h-23zM307 598q-13 0 -7 11l79 133q3 5 10 5h34q5 0 6.5 -2.5t-1.5 -7.5l-88 -133q-3 -6 -10 -6h-23z" />
    <glyph glyph-name="Uogonek" unicode="&#x172;" horiz-adv-x="682" 
d="M489 -180q-17 -8 -38.5 -13.5t-48.5 -5.5q-36 0 -58.5 19.5t-22.5 53.5q0 33 20.5 65.5t55.5 60.5v1q-28 -10 -56 -10q-53 0 -99.5 16.5t-80.5 47.5t-53.5 75.5t-19.5 99.5v477q0 8 9 8h39q8 0 8 -8v-477q0 -42 14.5 -76.5t41 -59t62.5 -38t79 -13.5t79 13.5t62 38t41 59
t15 76.5v477q0 8 8 8h40q8 0 8 -8v-477q0 -41 -9 -72.5t-25 -56t-36.5 -42.5t-43.5 -33q-49 -31 -78.5 -67t-29.5 -68q0 -43 45 -43q16 0 29.5 2.5t27.5 9.5q8 5 11 -5l7 -25q2 -7 -3 -10z" />
    <glyph glyph-name="uogonek" unicode="&#x173;" horiz-adv-x="545" 
d="M447 -178q-18 -10 -39 -15.5t-41 -5.5q-43 0 -67.5 20.5t-24.5 58.5q0 34 24.5 65.5t68.5 56.5q-39 -12 -79 -12q-102 0 -161 49t-59 149v318q0 9 9 9h36q8 0 8 -9v-319q0 -76 42.5 -112.5t121.5 -36.5q35 0 69.5 6t63.5 17v445q0 9 8 9h36q9 0 9 -9v-471q0 -8 -7 -9
q-28 -12 -53.5 -27t-45.5 -32t-32 -36t-12 -38q0 -45 52 -45q13 0 28 3.5t30 12.5q8 4 10 -5l9 -26q3 -7 -4 -11z" />
    <glyph glyph-name="Wcircumflex" unicode="&#x174;" horiz-adv-x="941" 
d="M224 0q-7 0 -9 7l-200 698q-3 10 7 10h42q7 0 8 -7l121 -432q14 -52 27.5 -104t26.5 -104h1q15 51 31 106.5t32 107.5l130 413q2 8 9 8h41q7 0 9 -8l130 -413q16 -52 32 -107t31 -107h1q13 52 26.5 104t27.5 104l121 432q1 7 9 7h41q10 0 7 -10l-200 -698q-2 -7 -8 -7
h-47q-6 0 -9 7l-131 416q-16 51 -32 104.5t-28 100.5h-1q-13 -49 -27.5 -100t-31.5 -105l-132 -416q-4 -7 -9 -7h-46zM321 787q-13 0 -4 11l127 133q4 5 10 5h34q7 0 11 -5l127 -133q4 -5 2 -8t-7 -3h-37q-4 0 -11 5l-102 103l-102 -103q-5 -5 -11 -5h-37z" />
    <glyph glyph-name="wcircumflex" unicode="&#x175;" horiz-adv-x="746" 
d="M184 0q-6 0 -9 7l-155 498q-2 10 7 10h38q8 0 9 -7l99 -322q10 -31 17.5 -61.5t15.5 -61.5h1q8 29 16 58.5t16 55.5l105 321q2 7 9 7h41q7 0 9 -7l105 -321q8 -26 16 -55.5t16 -58.5h1q3 11 7.5 27t9 33.5t9 34t7.5 28.5l99 322q1 7 9 7h38q9 0 6 -10l-154 -498
q-4 -7 -9 -7h-45q-6 0 -9 7l-112 348q-6 19 -11.5 40.5t-11.5 42.5h-1q-6 -21 -11.5 -42.5t-11.5 -40.5l-113 -348q-2 -7 -8 -7h-45v0zM240 598q-11 0 -5 11l114 133q5 5 10 5h28q7 0 10 -5l113 -133q8 -11 -4 -11h-34q-7 0 -10 5l-89 106l-89 -106q-5 -5 -11 -5h-33z" />
    <glyph glyph-name="Ycircumflex" unicode="&#x176;" horiz-adv-x="550" 
d="M256 0q-9 0 -9 8v270l-238 427q-5 10 6 10h44q7 0 10 -6l206 -379l206 379q3 6 10 6h44q11 0 6 -10l-238 -427v-270q0 -8 -9 -8h-38zM125 787q-13 0 -4 11l127 133q4 5 10 5h34q7 0 11 -5l127 -133q4 -5 2 -8t-7 -3h-37q-4 0 -11 5l-102 103l-102 -103q-5 -5 -11 -5h-37z
" />
    <glyph glyph-name="ycircumflex" unicode="&#x177;" horiz-adv-x="545" 
d="M418 506q0 9 9 9h36q8 0 8 -9v-509q0 -45 -12 -81t-36.5 -62t-62 -40t-89.5 -14q-60 0 -105.5 20t-83.5 54q-6 6 -1 12l19 26q5 7 11 1q32 -26 70.5 -45t89.5 -20q76 1 112.5 39.5t35.5 112.5v49q-31 -14 -67 -22.5t-74 -8.5q-44 0 -82 12t-66 36t-44.5 60.5t-16.5 86.5
v293q0 9 8 9h36q9 0 9 -9v-291q0 -39 12 -67t33.5 -46t51 -26.5t65.5 -8.5q38 0 71.5 8.5t62.5 24.5v406zM140 598q-11 0 -5 11l114 133q5 5 10 5h28q7 0 10 -5l113 -133q8 -11 -4 -11h-34q-7 0 -10 5l-89 106l-89 -106q-5 -5 -11 -5h-33z" />
    <glyph glyph-name="Ydieresis" unicode="&#x178;" horiz-adv-x="550" 
d="M256 0q-9 0 -9 8v270l-238 427q-5 10 6 10h44q7 0 10 -6l206 -379l206 379q3 6 10 6h44q11 0 6 -10l-238 -427v-270q0 -8 -9 -8h-38zM210 863q0 -16 -10 -25.5t-26 -9.5t-25.5 9.5t-9.5 25.5t9.5 26t25.5 10t26 -10t10 -26zM411 863q0 -16 -10 -25.5t-26 -9.5t-26 9.5
t-10 25.5t10 26t26 10t26 -10t10 -26z" />
    <glyph glyph-name="Zacute" unicode="&#x179;" horiz-adv-x="569" 
d="M43 0q-9 0 -9 8v23q0 7 4 11l414 622h-394q-8 0 -8 8v35q0 8 8 8h459q8 0 8 -8v-24q0 -6 -3 -10l-413 -622h416q8 0 8 -8v-35q0 -8 -8 -8h-482zM283 792q-5 -5 -11 -5h-32q-5 0 -6.5 3t1.5 8l106 133q4 5 10 5h45q13 0 5 -10z" />
    <glyph glyph-name="zacute" unicode="&#x17a;" horiz-adv-x="456" 
d="M39 0q-8 0 -8 8v19q0 6 3 11l310 429h-290q-8 0 -8 8v31q0 9 8 9h355q8 0 8 -9v-17q0 -6 -3 -10l-311 -431h313q9 0 9 -9v-31q0 -8 -9 -8h-377zM183 598q-5 0 -7.5 3t0.5 8l82 133q3 5 10 5h41q12 0 5 -10l-93 -133q-3 -6 -10 -6h-28z" />
    <glyph glyph-name="Zdotaccent" unicode="&#x17b;" horiz-adv-x="569" 
d="M43 0q-9 0 -9 8v23q0 7 4 11l414 622h-394q-8 0 -8 8v35q0 8 8 8h459q8 0 8 -8v-24q0 -6 -3 -10l-413 -622h416q8 0 8 -8v-35q0 -8 -8 -8h-482zM322 861q0 -17 -11 -28.5t-28 -11.5t-28.5 11.5t-11.5 28.5t11.5 28t28.5 11t28 -11t11 -28z" />
    <glyph glyph-name="zdotaccent" unicode="&#x17c;" horiz-adv-x="456" 
d="M39 0q-8 0 -8 8v19q0 6 3 11l310 429h-290q-8 0 -8 8v31q0 9 8 9h355q8 0 8 -9v-17q0 -6 -3 -10l-311 -431h313q9 0 9 -9v-31q0 -8 -9 -8h-377zM266 656q0 -16 -10.5 -26t-26.5 -10t-26.5 10t-10.5 26q0 17 10.5 27t26.5 10t26.5 -10t10.5 -27z" />
    <glyph glyph-name="Zcaron" unicode="&#x17d;" horiz-adv-x="569" 
d="M43 0q-9 0 -9 8v23q0 7 4 11l414 622h-394q-8 0 -8 8v35q0 8 8 8h459q8 0 8 -8v-24q0 -6 -3 -10l-413 -622h416q8 0 8 -8v-35q0 -8 -8 -8h-482zM169 936q6 0 11 -5l102 -103l102 103q7 5 11 5h37q5 0 7 -3t-2 -8l-127 -133q-4 -5 -11 -5h-34q-6 0 -10 5l-127 133
q-9 11 4 11h37z" />
    <glyph glyph-name="zcaron" unicode="&#x17e;" horiz-adv-x="456" 
d="M39 0q-8 0 -8 8v19q0 6 3 11l310 429h-290q-8 0 -8 8v31q0 9 8 9h355q8 0 8 -9v-17q0 -6 -3 -10l-311 -431h313q9 0 9 -9v-31q0 -8 -9 -8h-377zM132 748q6 0 11 -5l89 -106l89 106q3 5 10 5h34q12 0 4 -11l-113 -133q-3 -5 -10 -5h-28q-5 0 -10 5l-114 133q-6 11 5 11h33
z" />
    <glyph glyph-name="florin" unicode="&#x192;" horiz-adv-x="438" 
d="M165 7q-5 -22 -12.5 -46t-21 -43.5t-34.5 -32.5t-52 -13q-14 0 -29.5 2.5t-32.5 9.5q-8 2 -6 11l8 26q2 8 11 6q11 -5 22.5 -6.5t21.5 -1.5q32 0 48 24t25 77l59 314h-90q-8 0 -8 8v32q0 9 8 9h99l38 203q6 30 14.5 55.5t23.5 44t37 29.5t54 11q19 0 36.5 -3t32.5 -8
q8 -3 6 -11l-6 -26q-3 -8 -10 -6q-11 4 -24.5 6.5t-27.5 2.5q-40 0 -57.5 -27t-27.5 -81l-36 -190h105q8 0 8 -9v-32q0 -8 -8 -8h-113l-61 -327v0z" />
    <glyph glyph-name="uni0218" unicode="&#x218;" horiz-adv-x="599" 
d="M554 185q0 -49 -19 -86t-53 -61.5t-80 -36.5t-100 -12q-75 0 -132.5 23.5t-115.5 71.5q-6 6 -1 12l21 29q5 6 12 2q53 -43 104 -64t113 -22q41 0 76.5 9t62 27t41.5 45t15 63q0 33 -12 56.5t-37 41t-64 31t-92 25.5q-52 12 -96 29t-75.5 41.5t-49 58t-17.5 78.5
q0 46 19.5 80t53 56.5t78 33t93.5 10.5q69 0 124 -20t109 -60q6 -4 2 -12l-20 -28q-5 -8 -12 -3q-92 69 -209 71q-38 0 -71 -8t-57.5 -24t-39 -40.5t-14.5 -57.5q0 -32 13 -55.5t38 -41t61 -30.5t83 -24q60 -14 106 -31.5t77.5 -41.5t48 -56.5t16.5 -78.5zM249 -235
q-10 0 -8 9l39 144q3 7 9 7h36q8 0 7 -9l-49 -144q-4 -7 -9 -7h-25z" />
    <glyph glyph-name="uni0219" unicode="&#x219;" horiz-adv-x="467" 
d="M430 139q0 -69 -52 -109.5t-143 -40.5q-108 0 -193 65q-7 4 -3 11l17 28q5 8 12 2q38 -28 79.5 -43t88.5 -15q62 0 101 25.5t39 74.5q0 27 -12.5 44t-32.5 27.5t-45 17t-50 11.5q-29 6 -62.5 15t-61.5 26.5t-46.5 44t-18.5 66.5q0 34 15 59.5t40 42.5t58.5 26t71.5 9
q52 0 94 -13t81 -35q7 -5 3 -12l-16 -27q-4 -8 -12 -3q-32 19 -71 30t-81 11q-59 0 -95 -23t-36 -65q0 -26 12.5 -43t33 -28.5t47 -19t54.5 -13.5q32 -7 65 -15.5t59.5 -24.5t43 -41t16.5 -65zM196 -235q-10 0 -8 10l37 144q2 7 9 7h32q10 0 7 -10l-45 -144q-4 -7 -10 -7
h-22z" />
    <glyph glyph-name="uni021A" unicode="&#x21a;" horiz-adv-x="545" 
d="M524 715q9 0 9 -8v-35q0 -8 -9 -8h-225v-656q0 -8 -9 -8h-38q-9 0 -9 8v656h-223q-8 0 -8 8v35q0 8 8 8h504zM222 -235q-10 0 -8 9l39 144q3 7 9 7h36q8 0 7 -9l-49 -144q-4 -7 -9 -7h-25z" />
    <glyph glyph-name="uni021B" unicode="&#x21b;" horiz-adv-x="310" 
d="M123 161q0 -57 28 -89.5t83 -32.5q10 0 25.5 0.5t29.5 1.5q8 2 8 -8v-32q0 -8 -8 -9q-14 -2 -30 -2.5t-27 -0.5q-74 0 -118 43t-44 127v476q0 8 8 8h32q7 0 9 -8l3 -122h153q8 0 8 -9v-31q0 -8 -8 -8h-152v-304v0zM136 -235q-10 0 -8 10l37 144q2 7 9 7h32q10 0 7 -10
l-45 -144q-4 -7 -10 -7h-22z" />
    <glyph glyph-name="uni0237" unicode="&#x237;" horiz-adv-x="209" 
d="M135 -27q0 -90 -36.5 -132t-99.5 -42q-12 0 -25 1t-25 3q-8 1 -8 10v31q0 10 8 8q12 -2 24 -3t20 -1q43 0 66 27t23 95v536q0 9 9 9h36q8 0 8 -9v-533v0z" />
    <glyph glyph-name="circumflex" unicode="&#x2c6;" horiz-adv-x="316" 
d="M25 598q-11 0 -5 11l114 133q5 5 10 5h28q7 0 10 -5l113 -133q8 -11 -4 -11h-34q-7 0 -10 5l-89 106l-89 -106q-5 -5 -11 -5h-33z" />
    <glyph glyph-name="caron" unicode="&#x2c7;" horiz-adv-x="292" 
d="M58 748q6 0 11 -5l89 -106l89 106q3 5 10 5h34q12 0 4 -11l-113 -133q-3 -5 -10 -5h-28q-5 0 -10 5l-114 133q-6 11 5 11h33z" />
    <glyph glyph-name="breve" unicode="&#x2d8;" horiz-adv-x="276" 
d="M298 724q-7 -60 -45 -98t-104 -38q-65 0 -103 38t-45 97q-1 8 7 10l26 3q7 1 10 -7q7 -45 32.5 -72t72.5 -27t73 27t33 72q1 8 10 7l25 -3q10 0 8 -9z" />
    <glyph glyph-name="dotaccent" unicode="&#x2d9;" horiz-adv-x="86" 
d="M80 656q0 -16 -10.5 -26t-26.5 -10t-26.5 10t-10.5 26q0 17 10.5 27t26.5 10t26.5 -10t10.5 -27z" />
    <glyph glyph-name="ring" unicode="&#x2da;" horiz-adv-x="210" 
d="M203 671q0 -45 -28 -70.5t-72 -25.5q-45 0 -73.5 26t-28.5 71t28.5 70.5t73.5 25.5q44 0 72 -26t28 -71zM37 671q0 -27 18.5 -44.5t47.5 -17.5t47 17.5t18 44.5q0 29 -18 46t-47 17t-47.5 -17t-18.5 -46z" />
    <glyph glyph-name="ogonek" unicode="&#x2db;" horiz-adv-x="187" 
d="M166 -182q-34 -17 -79 -17q-38 0 -60 20t-22 56q0 32 23.5 64.5t63.5 55.5q3 3 10 3h25q6 0 6 -3t-5 -6q-37 -24 -56 -52t-19 -50q0 -41 45 -41q29 0 55 12q8 3 10 -6l7 -25q3 -8 -4 -11z" />
    <glyph glyph-name="tilde" unicode="&#x2dc;" horiz-adv-x="300" 
d="M294 680q-7 -22 -26.5 -42t-48.5 -20q-17 0 -34.5 7.5t-34.5 16.5t-31.5 16t-31.5 7t-27.5 -10t-17.5 -25q-2 -5 -5 -5t-6 1l-21 12q-7 4 -4 11q8 21 27.5 40t48.5 19q19 0 36.5 -7.5t34.5 -16.5q15 -8 30.5 -15.5t31.5 -7.5q26 0 43 36q3 9 11 4l21 -11q7 -5 4 -10z" />
    <glyph glyph-name="hungarumlaut" unicode="&#x2dd;" horiz-adv-x="293" 
d="M7 598q-12 0 -6 11l74 133q3 5 10 5h34q12 0 5 -10l-83 -133q-5 -6 -11 -6h-23zM137 598q-13 0 -7 11l79 133q3 5 10 5h34q5 0 6.5 -2.5t-1.5 -7.5l-88 -133q-3 -6 -10 -6h-23z" />
    <glyph glyph-name="gravecomb" unicode="&#x300;" horiz-adv-x="145" 
d="M111 598q-7 0 -10 6l-93 133q-7 10 5 10h41q7 0 10 -5l82 -133q3 -5 0.5 -8t-7.5 -3h-28z" />
    <glyph glyph-name="acutecomb" unicode="&#x301;" horiz-adv-x="147" 
d="M11 598q-5 0 -7.5 3t0.5 8l82 133q3 5 10 5h41q12 0 5 -10l-93 -133q-3 -6 -10 -6h-28z" />
    <glyph glyph-name="uni0302" unicode="&#x302;" horiz-adv-x="316" 
d="M25 598q-11 0 -5 11l114 133q5 5 10 5h28q7 0 10 -5l113 -133q8 -11 -4 -11h-34q-7 0 -10 5l-89 106l-89 -106q-5 -5 -11 -5h-33z" />
    <glyph glyph-name="tildecomb" unicode="&#x303;" horiz-adv-x="300" 
d="M294 680q-7 -22 -26.5 -42t-48.5 -20q-17 0 -34.5 7.5t-34.5 16.5t-31.5 16t-31.5 7t-27.5 -10t-17.5 -25q-2 -5 -5 -5t-6 1l-21 12q-7 4 -4 11q8 21 27.5 40t48.5 19q19 0 36.5 -7.5t34.5 -16.5q15 -8 30.5 -15.5t31.5 -7.5q26 0 43 36q3 9 11 4l21 -11q7 -5 4 -10z" />
    <glyph glyph-name="uni0304" unicode="&#x304;" horiz-adv-x="258" 
d="M0 656q0 9 8 9h242q8 0 8 -9v-26q0 -9 -8 -9h-242q-8 0 -8 9v26z" />
    <glyph glyph-name="uni0306" unicode="&#x306;" horiz-adv-x="299" 
d="M298 724q-7 -60 -45 -98t-104 -38q-65 0 -103 38t-45 97q-1 8 7 10l26 3q7 1 10 -7q7 -45 32.5 -72t72.5 -27t73 27t33 72q1 8 10 7l25 -3q10 0 8 -9z" />
    <glyph glyph-name="uni0307" unicode="&#x307;" horiz-adv-x="122" 
d="M98 656q0 -16 -10.5 -26t-26.5 -10t-26.5 10t-10.5 26q0 17 10.5 27t26.5 10t26.5 -10t10.5 -27z" />
    <glyph glyph-name="uni0308" unicode="&#x308;" horiz-adv-x="261" 
d="M75 656q0 -16 -9.5 -25t-25.5 -9q-15 0 -24.5 9t-9.5 25q0 17 9.5 26t24.5 9q16 0 25.5 -9t9.5 -26zM255 656q0 -16 -9.5 -25t-24.5 -9t-25 9t-10 25q0 17 10 26t25 9t24.5 -9t9.5 -26z" />
    <glyph glyph-name="uni030A" unicode="&#x30a;" horiz-adv-x="205" 
d="M203 671q0 -45 -28 -70.5t-72 -25.5q-45 0 -73.5 26t-28.5 71t28.5 70.5t73.5 25.5q44 0 72 -26t28 -71zM37 671q0 -27 18.5 -44.5t47.5 -17.5t47 17.5t18 44.5q0 29 -18 46t-47 17t-47.5 -17t-18.5 -46z" />
    <glyph glyph-name="uni030B" unicode="&#x30b;" horiz-adv-x="260" 
d="M7 598q-12 0 -6 11l74 133q3 5 10 5h34q12 0 5 -10l-83 -133q-5 -6 -11 -6h-23zM137 598q-13 0 -7 11l79 133q3 5 10 5h34q5 0 6.5 -2.5t-1.5 -7.5l-88 -133q-3 -6 -10 -6h-23z" />
    <glyph glyph-name="uni030C" unicode="&#x30c;" horiz-adv-x="303" 
d="M58 748q6 0 11 -5l89 -106l89 106q3 5 10 5h34q12 0 4 -11l-113 -133q-3 -5 -10 -5h-28q-5 0 -10 5l-114 133q-6 11 5 11h33z" />
    <glyph glyph-name="uni0312" unicode="&#x312;" horiz-adv-x="96" 
d="M11 598q-10 0 -7 10l51 144q3 7 10 7h23q10 0 7 -10l-41 -143q-2 -8 -8 -8h-35z" />
    <glyph glyph-name="uni0326" unicode="&#x326;" horiz-adv-x="90" 
d="M10 -235q-10 0 -8 10l37 144q2 7 9 7h32q10 0 7 -10l-45 -144q-4 -7 -10 -7h-22z" />
    <glyph glyph-name="uni0327" unicode="&#x327;" horiz-adv-x="178" 
d="M176 -125q0 -37 -28.5 -58t-76.5 -21q-14 0 -29.5 2t-29.5 7q-7 3 -7 10v17q0 9 10 7q14 -5 27 -6.5t24 -1.5q30 0 48 12t18 35q0 22 -17 32.5t-57 11.5q-8 0 -10 5q-3 5 0 9l23 61q3 6 10 6h18q11 0 7 -9l-19 -49q42 -2 65.5 -19.5t23.5 -50.5z" />
    <glyph glyph-name="uni0328" unicode="&#x328;" horiz-adv-x="161" 
d="M161 -182q-34 -17 -79 -17q-38 0 -60 20t-22 56q0 32 23.5 64.5t63.5 55.5q3 3 10 3h25q6 0 6 -3t-5 -6q-37 -24 -56 -52t-19 -50q0 -41 45 -41q29 0 55 12q8 3 10 -6l7 -25q3 -8 -4 -11z" />
    <glyph glyph-name="uni0335" unicode="&#x335;" horiz-adv-x="332" 
d="M8 595q-8 0 -8 8v23q0 8 8 8h315q9 0 9 -8v-23q0 -8 -9 -8h-315z" />
    <glyph glyph-name="uni0336" unicode="&#x336;" horiz-adv-x="523" 
d="M0 274q0 9 8 9h506q9 0 9 -9v-22q0 -9 -9 -9h-506q-8 0 -8 9v22z" />
    <glyph glyph-name="uni0337" unicode="&#x337;" horiz-adv-x="273" 
d="M262 545q5 4 8 2t3 -7v-34q0 -6 -5 -11l-258 -229q-4 -4 -7 -2.5t-3 6.5v35q0 7 5 10z" />
    <glyph glyph-name="uni0338" unicode="&#x338;" horiz-adv-x="525" 
d="M38 -39q-12 0 -7 10l415 770q3 7 10 7h31q13 0 6 -11l-414 -770q-3 -6 -10 -6h-31z" />
    <glyph glyph-name="tonos" unicode="&#x384;" horiz-adv-x="146" 
d="M11 598q-5 0 -7.5 3t0.5 8l82 133q3 5 10 5h41q12 0 5 -10l-93 -133q-3 -6 -10 -6h-28z" />
    <glyph glyph-name="dieresistonos" unicode="&#x385;" horiz-adv-x="280" 
d="M101 599q-11 0 -8 10l64 132q1 6 10 6h34q10 0 5 -10l-73 -132q-3 -6 -10 -6h-22zM65 656q0 -14 -9 -23t-23 -9t-23.5 9t-9.5 23q0 15 9.5 24t23.5 9t23 -9t9 -24zM280 656q0 -14 -9 -23t-23 -9q-15 0 -24 9t-9 23q0 15 9 24t24 9q14 0 23 -9t9 -24z" />
    <glyph glyph-name="Alphatonos" unicode="&#x386;" horiz-adv-x="628" 
d="M59 566q-5 0 -7.5 3t0.5 8l82 133q3 5 10 5h41q12 0 5 -10l-93 -133q-3 -6 -10 -6h-28zM43 0q-9 0 -6 10l256 698q3 7 9 7h50q5 0 9 -7l257 -698q2 -10 -7 -10h-41q-7 0 -10 7l-73 202h-320l-73 -202q-4 -7 -9 -7h-42zM184 260h286l-141 391h-3z" />
    <glyph glyph-name="Epsilontonos" unicode="&#x388;" horiz-adv-x="706" 
d="M22 566q-5 0 -7.5 3t0.5 8l82 133q3 5 10 5h41q12 0 5 -10l-93 -133q-3 -6 -10 -6h-28zM285 51h364q8 0 8 -8v-35q0 -8 -8 -8h-411q-8 0 -8 8v699q0 8 8 8h396q9 0 9 -8v-35q0 -8 -9 -8h-349v-274h328q8 0 8 -9v-34q0 -8 -8 -8h-328v-288z" />
    <glyph glyph-name="Etatonos" unicode="&#x389;" horiz-adv-x="831" 
d="M22 566q-5 0 -7.5 3t0.5 8l82 133q3 5 10 5h41q12 0 5 -10l-93 -133q-3 -6 -10 -6h-28zM682 707q0 8 8 8h38q9 0 9 -8v-699q0 -8 -9 -8h-38q-8 0 -8 8v330h-379v-330q0 -8 -8 -8h-39q-8 0 -8 8v699q0 8 8 8h39q8 0 8 -8v-318h379v318z" />
    <glyph glyph-name="Iotatonos" unicode="&#x38a;" horiz-adv-x="382" 
d="M22 566q-5 0 -7.5 3t0.5 8l82 133q3 5 10 5h41q12 0 5 -10l-93 -133q-3 -6 -10 -6h-28zM288 8q0 -8 -8 -8h-39q-8 0 -8 8v699q0 8 8 8h39q8 0 8 -8v-699z" />
    <glyph glyph-name="Omicrontonos" unicode="&#x38c;" horiz-adv-x="768" 
d="M25 566q-5 0 -7.5 3t0.5 8l82 133q3 5 10 5h41q12 0 5 -10l-93 -133q-3 -6 -10 -6h-28zM699 235q0 -54 -19 -99.5t-53.5 -78t-83.5 -50.5t-109 -18q-61 0 -110 18t-83.5 50.5t-53.5 78t-19 99.5v239q0 57 18.5 103.5t53 79.5t84 51t110.5 18t110 -18t83.5 -51t53 -79.5
t18.5 -103.5v-239zM223 235q0 -43 14.5 -79t42 -61.5t66.5 -39.5t88 -14t88 14t66 39.5t41.5 61.5t14.5 79v239q0 92 -56 146t-154 54q-99 0 -155 -54t-56 -146v-239z" />
    <glyph glyph-name="Upsilontonos" unicode="&#x38e;" horiz-adv-x="746" 
d="M31 566q-5 0 -7.5 3t0.5 8l82 133q3 5 10 5h41q12 0 5 -10l-93 -133q-3 -6 -10 -6h-28zM452 0q-9 0 -9 8v270l-238 427q-5 10 6 10h44q7 0 10 -6l206 -379l206 379q3 6 10 6h44q11 0 6 -10l-238 -427v-270q0 -8 -9 -8h-38z" />
    <glyph glyph-name="Omegatonos" unicode="&#x38f;" horiz-adv-x="779" 
d="M179 0q-9 0 -9 8v33q0 9 9 9h114q-54 42 -87 99.5t-33 129.5v181q0 126 70 196t196 70q127 0 196.5 -70t69.5 -196v-181q0 -72 -33 -129.5t-87 -99.5h115q9 0 9 -9v-33q0 -8 -9 -8h-196q-8 0 -8 8v26q0 7 6 10q70 38 108.5 98t38.5 137v181q0 103 -54.5 158.5
t-155.5 55.5t-155 -55.5t-54 -158.5v-181q0 -77 38 -137t109 -98q6 -3 6 -10v-26q0 -8 -8 -8h-196zM26 566q-5 0 -7.5 3t0.5 8l82 133q3 5 10 5h41q12 0 5 -10l-93 -133q-3 -6 -10 -6h-28z" />
    <glyph glyph-name="iotadieresistonos" unicode="&#x390;" horiz-adv-x="201" 
d="M83 0q-9 0 -9 8v498q0 9 9 9h36q8 0 8 -9v-498q0 -8 -8 -8h-36zM50 662q0 -14 -9 -22.5t-23 -8.5t-22.5 8.5t-8.5 22.5t8.5 23t22.5 9t23 -9t9 -23zM67 599q-10 0 -7 10l61 126q1 3 4 4.5t6 1.5h32q9 0 6 -10l-72 -126q-2 -6 -9 -6h-21zM234 662q0 -31 -31 -31
q-14 0 -23 8.5t-9 22.5t9 23t23 9t22.5 -9t8.5 -23z" />
    <glyph glyph-name="Alpha" unicode="&#x391;" horiz-adv-x="602" 
d="M17 0q-9 0 -6 10l256 698q3 7 9 7h50q5 0 9 -7l257 -698q2 -10 -7 -10h-41q-7 0 -10 7l-73 202h-320l-73 -202q-4 -7 -9 -7h-42zM158 260h286l-141 391h-3z" />
    <glyph glyph-name="Beta" unicode="&#x392;" horiz-adv-x="627" 
d="M544 536q0 -57 -27 -96.5t-75 -56.5q64 -17 98 -64.5t34 -116.5q0 -96 -64 -149t-183 -53h-225q-8 0 -8 8v699q0 8 8 8h226q58 0 99 -14t67 -38t38 -56.5t12 -70.5zM328 50q94 0 142 39t48 113q0 69 -42.5 111.5t-134.5 42.5h-192v-306h179zM489 536q0 27 -8.5 50.5
t-27.5 41t-50 27.5t-75 10h-179v-259h192q69 0 108.5 33.5t39.5 96.5z" />
    <glyph glyph-name="Gamma" unicode="&#x393;" horiz-adv-x="502" 
d="M103 0q-9 0 -9 8v699q0 8 9 8h379q8 0 8 -8v-35q0 -8 -8 -8h-332v-656q0 -8 -9 -8h-38z" />
    <glyph glyph-name="uni0394" unicode="&#x394;" horiz-adv-x="608" 
d="M17 0q-9 0 -6 10l257 698q3 7 10 7h53q6 0 10 -7l257 -698q3 -10 -7 -10h-574zM84 51h441l-219 601h-3z" />
    <glyph glyph-name="Epsilon" unicode="&#x395;" horiz-adv-x="570" 
d="M149 51h364q8 0 8 -8v-35q0 -8 -8 -8h-411q-8 0 -8 8v699q0 8 8 8h396q9 0 9 -8v-35q0 -8 -9 -8h-349v-274h328q8 0 8 -9v-34q0 -8 -8 -8h-328v-288z" />
    <glyph glyph-name="Zeta" unicode="&#x396;" horiz-adv-x="569" 
d="M43 0q-9 0 -9 8v23q0 7 4 11l414 622h-394q-8 0 -8 8v35q0 8 8 8h459q8 0 8 -8v-24q0 -6 -3 -10l-413 -622h416q8 0 8 -8v-35q0 -8 -8 -8h-482z" />
    <glyph glyph-name="Eta" unicode="&#x397;" horiz-adv-x="677" 
d="M528 707q0 8 8 8h38q9 0 9 -8v-699q0 -8 -9 -8h-38q-8 0 -8 8v330h-379v-330q0 -8 -8 -8h-39q-8 0 -8 8v699q0 8 8 8h39q8 0 8 -8v-318h379v318z" />
    <glyph glyph-name="Theta" unicode="&#x398;" horiz-adv-x="675" 
d="M606 235q0 -54 -19 -99.5t-54 -78t-84.5 -50.5t-110.5 -18q-62 0 -111.5 18t-84.5 50.5t-54 78t-19 99.5v239q0 57 19 103.5t54 79.5t84.5 51t111.5 18q61 0 111 -18t84.5 -51t53.5 -79.5t19 -103.5v-239zM124 235q0 -43 14.5 -79t42.5 -61.5t67.5 -39.5t89.5 -14
q49 0 88.5 14t67.5 39.5t42.5 61.5t14.5 79v239q0 92 -56.5 146t-156.5 54t-157 -54t-57 -146v-239zM180 341q-8 0 -8 9v29q0 9 8 9h315q9 0 9 -9v-29q0 -9 -9 -9h-315z" />
    <glyph glyph-name="Iota" unicode="&#x399;" horiz-adv-x="243" 
d="M149 8q0 -8 -8 -8h-39q-8 0 -8 8v699q0 8 8 8h39q8 0 8 -8v-699z" />
    <glyph glyph-name="Kappa" unicode="&#x39a;" horiz-adv-x="608" 
d="M102 0q-8 0 -8 8v699q0 8 8 8h39q8 0 8 -8v-367l361 370q7 5 11 5h51q5 0 7 -3t-2 -7l-305 -312l324 -383q8 -10 -5 -10h-51q-8 0 -10 5l-295 349l-86 -85v-261q0 -8 -8 -8h-39z" />
    <glyph glyph-name="Lambda" unicode="&#x39b;" horiz-adv-x="608" 
d="M17 0q-9 0 -6 10l257 698q3 7 10 7h53q6 0 10 -7l257 -698q3 -10 -7 -10h-41q-8 0 -10 7l-234 646h-3l-234 -646q-4 -7 -10 -7h-42z" />
    <glyph glyph-name="Mu" unicode="&#x39c;" horiz-adv-x="846" 
d="M102 0q-8 0 -8 8v699q0 8 8 8h49q7 0 10 -6l186 -330q18 -32 39 -72t36 -69h1q8 14 17.5 31.5t19 36t19.5 37t19 34.5l187 332q3 6 10 6h48q9 0 9 -8v-699q0 -8 -9 -8h-38q-9 0 -9 8v399q0 54 1 111.5t2 111.5l-1 1q-21 -41 -44 -83t-48 -87l-157 -283q-3 -5 -10 -5h-32
q-7 0 -10 5l-158 283l-92 170l-1 -1q1 -54 2 -112t1 -112v-398q0 -8 -8 -8h-39z" />
    <glyph glyph-name="Nu" unicode="&#x39d;" horiz-adv-x="701" 
d="M102 0q-8 0 -8 8v699q0 8 8 8h44q7 0 10 -6l329 -510q17 -28 35 -57t34 -57l2 3q-2 63 -3 133t-1 133v353q0 8 9 8h38q8 0 8 -8v-699q0 -8 -8 -8h-44q-7 0 -10 5l-332 510q-17 26 -34 55t-32 55l-1 -1q0 -28 0.5 -60t1 -64.5t1 -64.5t0.5 -60v-367q0 -8 -9 -8h-38z" />
    <glyph glyph-name="Xi" unicode="&#x39e;" horiz-adv-x="540" 
d="M67 664q-9 0 -9 8v35q0 8 9 8h406q9 0 9 -8v-35q0 -8 -9 -8h-406zM93 337q-9 0 -9 8v34q0 9 9 9h355q8 0 8 -9v-34q0 -8 -8 -8h-355zM58 0q-9 0 -9 8v36q0 8 9 8h424q8 0 8 -8v-36q0 -8 -8 -8h-424z" />
    <glyph glyph-name="Omicron" unicode="&#x39f;" horiz-adv-x="669" 
d="M600 235q0 -54 -19 -99.5t-53.5 -78t-83.5 -50.5t-109 -18q-61 0 -110 18t-83.5 50.5t-53.5 78t-19 99.5v239q0 57 18.5 103.5t53 79.5t84 51t110.5 18t110 -18t83.5 -51t53 -79.5t18.5 -103.5v-239zM124 235q0 -43 14.5 -79t42 -61.5t66.5 -39.5t88 -14t88 14t66 39.5
t41.5 61.5t14.5 79v239q0 92 -56 146t-154 54q-99 0 -155 -54t-56 -146v-239z" />
    <glyph glyph-name="Pi" unicode="&#x3a0;" horiz-adv-x="679" 
d="M103 0q-9 0 -9 8v699q0 8 9 8h473q9 0 9 -8v-699q0 -8 -9 -8h-38q-9 0 -9 8v656h-379v-656q0 -8 -8 -8h-39z" />
    <glyph glyph-name="Rho" unicode="&#x3a1;" horiz-adv-x="617" 
d="M333 715q118 0 181.5 -59.5t63.5 -165.5q0 -108 -63.5 -166.5t-181.5 -58.5h-184v-257q0 -8 -8 -8h-38q-9 0 -9 8v699q0 8 9 8h230zM327 316q98 0 147 44t49 130q0 85 -49 129.5t-147 44.5h-178v-348h178z" />
    <glyph glyph-name="Sigma" unicode="&#x3a3;" horiz-adv-x="531" 
d="M480 715q9 0 9 -8v-34q0 -8 -9 -8h-361q3 -4 7.5 -9t13 -16.5t23.5 -30.5t39 -50t59 -76.5t84 -108.5q4 -5 0 -12l-231 -311h366q9 0 9 -9v-34q0 -8 -9 -8h-432q-8 0 -8 8v23q0 6 3 11l241 326l-241 307q-3 6 -3 11v21q0 8 8 8h432z" />
    <glyph glyph-name="Tau" unicode="&#x3a4;" horiz-adv-x="545" 
d="M524 715q9 0 9 -8v-35q0 -8 -9 -8h-225v-656q0 -8 -9 -8h-38q-9 0 -9 8v656h-223q-8 0 -8 8v35q0 8 8 8h504z" />
    <glyph glyph-name="Upsilon" unicode="&#x3a5;" horiz-adv-x="550" 
d="M256 0q-9 0 -9 8v270l-238 427q-5 10 6 10h44q7 0 10 -6l206 -379l206 379q3 6 10 6h44q11 0 6 -10l-238 -427v-270q0 -8 -9 -8h-38z" />
    <glyph glyph-name="Phi" unicode="&#x3a6;" horiz-adv-x="849" 
d="M405 -64q-8 0 -8 9v83h-71q-48 0 -95 15.5t-83.5 48t-59 83.5t-22.5 123v117q0 71 22.5 122t59.5 83.5t83.5 48t94.5 15.5h71v77q0 9 8 9h39q8 0 8 -9v-77h70q48 0 95 -15.5t84 -48t59.5 -83.5t22.5 -122v-117q0 -72 -22.5 -123t-59.5 -83.5t-84 -48t-95 -15.5h-70v-83
q0 -9 -8 -9h-39zM122 298q0 -58 17.5 -99.5t46.5 -67.5t66.5 -38.5t76.5 -12.5h68v552h-68q-39 0 -76.5 -12t-66.5 -38t-46.5 -67t-17.5 -100v-117zM452 80h68q39 0 76 12.5t66.5 38.5t47 67.5t17.5 99.5v117q0 59 -17.5 100t-47 67t-66.5 38t-76 12h-68v-552z" />
    <glyph glyph-name="Chi" unicode="&#x3a7;" horiz-adv-x="579" 
d="M557 10q2 -4 1 -7t-6 -3h-48q-7 0 -10 6l-204 311l-205 -311q-3 -6 -10 -6h-47q-5 0 -6.5 3t0.5 7l235 350l-224 345q-2 4 -0.5 7t6.5 3h47q6 0 9 -6l195 -305l194 305q3 6 10 6h46q5 0 6.5 -3t-0.5 -7l-223 -345z" />
    <glyph glyph-name="Psi" unicode="&#x3a8;" horiz-adv-x="800" 
d="M379 0q-8 0 -8 8v152h-70q-49 0 -92.5 16t-75.5 46t-51 73.5t-19 99.5v312q0 8 8 8h40q8 0 8 -8v-312q0 -44 14 -78t39 -57t59 -35.5t75 -12.5h65v495q0 8 8 8h39q8 0 8 -8v-495h68q40 0 74.5 12.5t59.5 35.5t39 57t14 78v312q0 8 8 8h40q8 0 8 -8v-312q0 -56 -19 -99.5
t-51 -73.5t-76 -46t-93 -16h-72v-152q0 -8 -8 -8h-39z" />
    <glyph glyph-name="uni03A9" unicode="&#x3a9;" horiz-adv-x="680" 
d="M80 0q-9 0 -9 8v33q0 9 9 9h114q-54 42 -87 99.5t-33 129.5v181q0 126 70 196t196 70q127 0 196.5 -70t69.5 -196v-181q0 -72 -33 -129.5t-87 -99.5h115q9 0 9 -9v-33q0 -8 -9 -8h-196q-8 0 -8 8v26q0 7 6 10q70 38 108.5 98t38.5 137v181q0 103 -54.5 158.5t-155.5 55.5
t-155 -55.5t-54 -158.5v-181q0 -77 38 -137t109 -98q6 -3 6 -10v-26q0 -8 -8 -8h-196z" />
    <glyph glyph-name="Iotadieresis" unicode="&#x3aa;" horiz-adv-x="243" 
d="M103 0q-9 0 -9 8v699q0 8 9 8h38q8 0 8 -8v-699q0 -8 -8 -8h-38zM73 863q0 -16 -10 -25.5t-25 -9.5q-16 0 -26 9.5t-10 25.5t10 26t26 10q15 0 25 -10t10 -26zM242 863q0 -16 -9.5 -25.5t-26.5 -9.5q-16 0 -25.5 9.5t-9.5 25.5t9.5 26t25.5 10q17 0 26.5 -10t9.5 -26z
" />
    <glyph glyph-name="Upsilondieresis" unicode="&#x3ab;" horiz-adv-x="550" 
d="M210 863q0 -16 -10 -25.5t-26 -9.5t-25.5 9.5t-9.5 25.5t9.5 26t25.5 10t26 -10t10 -26zM411 863q0 -16 -10 -25.5t-26 -9.5t-26 9.5t-10 25.5t10 26t26 10t26 -10t10 -26zM256 0q-9 0 -9 8v270l-238 427q-5 10 6 10h44q7 0 10 -6l206 -379l206 379q3 6 10 6h44
q11 0 6 -10l-238 -427v-270q0 -8 -9 -8h-38z" />
    <glyph glyph-name="alphatonos" unicode="&#x3ac;" horiz-adv-x="534" 
d="M411 62q-32 -35 -73 -54t-89 -19q-42 0 -77.5 12t-61.5 37t-41 62.5t-15 87.5v132q0 50 16 88.5t44.5 64.5t67.5 39.5t84 13.5t92.5 -10t96.5 -27q6 -3 6 -9v-472q0 -8 -8 -8h-31q-8 0 -8 8zM108 188q0 -76 38.5 -113.5t109.5 -37.5q41 0 79.5 18t72.5 56v342
q-37 12 -73.5 18.5t-70.5 6.5t-62.5 -10.5t-49.5 -30.5t-32.5 -49.5t-11.5 -67.5v-132zM232 598q-5 0 -7.5 3t0.5 8l82 133q3 5 10 5h41q12 0 5 -10l-93 -133q-3 -6 -10 -6h-28z" />
    <glyph glyph-name="epsilontonos" unicode="&#x3ad;" horiz-adv-x="481" 
d="M250 37q54 0 93 20.5t73 52.5q5 7 11 -1l21 -23q4 -6 -1 -11q-42 -43 -90 -64.5t-110 -21.5q-44 0 -80.5 12t-63.5 33t-42 50t-15 64q0 45 26 77.5t75 46.5q-82 34 -82 112q0 32 13.5 58.5t38 45t59 28.5t75.5 10q62 0 108.5 -21t75.5 -47q6 -5 1 -12l-19 -23
q-5 -7 -12 -1q-23 20 -60.5 38.5t-93.5 18.5q-59 0 -96 -24t-37 -71q0 -41 30 -67.5t84 -26.5h109q9 0 9 -9v-25q0 -9 -9 -9h-112q-61 0 -95 -27t-34 -72q0 -50 41 -80.5t109 -30.5zM211 598q-5 0 -7.5 3t0.5 8l82 133q3 5 10 5h41q12 0 5 -10l-93 -133q-3 -6 -10 -6h-28z
" />
    <glyph glyph-name="etatonos" unicode="&#x3ae;" horiz-adv-x="551" 
d="M243 598q-5 0 -7.5 3t0.5 8l82 133q3 5 10 5h41q12 0 5 -10l-93 -133q-3 -6 -10 -6h-28zM81 0q-9 0 -9 8v469q0 7 7 10q42 18 88.5 28.5t97.5 10.5q100 0 158.5 -50.5t58.5 -157.5v-310q0 -8 -8 -8h-36q-9 0 -9 8v308q0 85 -42.5 123t-121.5 38q-38 0 -74.5 -6.5
t-65.5 -17.5v-445q0 -8 -8 -8h-36z" />
    <glyph glyph-name="iotatonos" unicode="&#x3af;" horiz-adv-x="201" 
d="M70 598q-5 0 -7.5 3t0.5 8l82 133q3 5 10 5h41q12 0 5 -10l-93 -133q-3 -6 -10 -6h-28zM83 0q-9 0 -9 8v498q0 9 9 9h36q8 0 8 -9v-498q0 -8 -8 -8h-36z" />
    <glyph glyph-name="upsilondieresistonos" unicode="&#x3b0;" horiz-adv-x="552" 
d="M482 181q0 -42 -14.5 -77t-41.5 -60.5t-65 -40t-84 -14.5q-47 0 -85 14.5t-65 40t-42 60.5t-15 77v325q0 9 8 9h36q9 0 9 -9v-325q0 -65 40.5 -104t113.5 -40q72 0 112 39.5t40 104.5v325q0 9 9 9h36q8 0 8 -9v-325v0zM238 599q-11 0 -8 10l64 132q1 6 10 6h34
q10 0 5 -10l-73 -132q-3 -6 -10 -6h-22zM202 656q0 -14 -9 -23t-23 -9t-23.5 9t-9.5 23q0 15 9.5 24t23.5 9t23 -9t9 -24zM417 656q0 -14 -9 -23t-23 -9q-15 0 -24 9t-9 23q0 15 9 24t24 9q14 0 23 -9t9 -24z" />
    <glyph glyph-name="alpha" unicode="&#x3b1;" horiz-adv-x="534" 
d="M411 62q-32 -35 -73 -54t-89 -19q-42 0 -77.5 12t-61.5 37t-41 62.5t-15 87.5v132q0 50 16 88.5t44.5 64.5t67.5 39.5t84 13.5t92.5 -10t96.5 -27q6 -3 6 -9v-472q0 -8 -8 -8h-31q-8 0 -8 8zM108 188q0 -76 38.5 -113.5t109.5 -37.5q41 0 79.5 18t72.5 56v342
q-37 12 -73.5 18.5t-70.5 6.5t-62.5 -10.5t-49.5 -30.5t-32.5 -49.5t-11.5 -67.5v-132z" />
    <glyph glyph-name="beta" unicode="&#x3b2;" 
d="M462 537q0 -62 -28.5 -104t-75.5 -58q63 -14 96.5 -61t33.5 -116q0 -102 -55.5 -155t-152.5 -54q-37 0 -76 10.5t-77 36.5v-217q0 -9 -9 -9h-35q-9 0 -9 9v712q0 97 52 146t140 49q91 0 143 -49t53 -140zM127 86q37 -27 76.5 -38t71.5 -11q78 0 118.5 40t41.5 121
q1 72 -39 109.5t-119 37.5h-88q-9 0 -9 9v30q0 9 9 9h90q60 0 95 38t35 104q0 72 -38 107.5t-105 35.5q-69 0 -104 -39t-35 -109v-444z" />
    <glyph glyph-name="gamma" unicode="&#x3b3;" horiz-adv-x="485" 
d="M225 -190q-9 0 -9 8v186l-198 501q-4 10 7 10h39q6 0 10 -7l110 -286l58 -163h1l57 162l110 287q3 7 10 7h39q11 0 7 -10l-197 -501v-186q0 -8 -9 -8h-35z" />
    <glyph glyph-name="delta" unicode="&#x3b4;" horiz-adv-x="529" 
d="M124 591q0 -23 15 -41t38.5 -32t53 -25t59.5 -21q39 -13 73 -29.5t59.5 -39.5t40 -55.5t14.5 -77.5v-90q0 -45 -17 -80.5t-45.5 -60t-66.5 -37.5t-81 -13q-44 0 -83 13t-68.5 37t-46.5 59t-17 79v97q0 75 39 121.5t108 66.5q-26 10 -49 22.5t-40 28.5t-27.5 35.5
t-10.5 44.5q0 60 52.5 96.5t146.5 36.5q93 0 169 -47q7 -4 3 -11l-15 -30q-5 -6 -12 -3q-35 22 -70.5 32.5t-77.5 10.5q-65 0 -104.5 -22.5t-39.5 -64.5zM267 37q33 0 61.5 9.5t49.5 27.5t33.5 45t12.5 62v87q0 40 -14 67.5t-37.5 46.5t-53.5 31t-62 20q-72 -11 -111.5 -50
t-39.5 -111v-94q0 -33 12 -59t34 -44t51 -28t64 -10z" />
    <glyph glyph-name="epsilon" unicode="&#x3b5;" horiz-adv-x="481" 
d="M250 37q54 0 93 20.5t73 52.5q5 7 11 -1l21 -23q4 -6 -1 -11q-42 -43 -90 -64.5t-110 -21.5q-44 0 -80.5 12t-63.5 33t-42 50t-15 64q0 45 26 77.5t75 46.5q-82 34 -82 112q0 32 13.5 58.5t38 45t59 28.5t75.5 10q62 0 108.5 -21t75.5 -47q6 -5 1 -12l-19 -23
q-5 -7 -12 -1q-23 20 -60.5 38.5t-93.5 18.5q-59 0 -96 -24t-37 -71q0 -41 30 -67.5t84 -26.5h109q9 0 9 -9v-25q0 -9 -9 -9h-112q-61 0 -95 -27t-34 -72q0 -50 41 -80.5t109 -30.5z" />
    <glyph glyph-name="zeta" unicode="&#x3b6;" horiz-adv-x="453" 
d="M408 -47q0 -26 -19 -59.5t-51 -71.5q-6 -6 -12 -1l-23 20q-7 5 -1 12q28 32 41 56t13 38q0 20 -25 29.5t-63 20.5q-34 9 -73 22t-72 37.5t-54.5 63.5t-21.5 100q0 113 79 228.5t232 217.5l-1 1h-277q-9 0 -9 8v32q0 8 9 8h357q8 0 8 -8v-21q0 -7 -6 -10
q-83 -53 -146 -109.5t-106 -114t-65 -114.5t-22 -110q0 -41 12 -69.5t31.5 -49t45 -34t52.5 -22.5q30 -11 60 -19t54 -18.5t38.5 -25t14.5 -37.5z" />
    <glyph glyph-name="eta" unicode="&#x3b7;" horiz-adv-x="551" 
d="M81 0q-9 0 -9 8v469q0 7 7 10q42 18 88.5 28.5t97.5 10.5q100 0 158.5 -50.5t58.5 -157.5v-310q0 -8 -8 -8h-36q-9 0 -9 8v308q0 85 -42.5 123t-121.5 38q-38 0 -74.5 -6.5t-65.5 -17.5v-445q0 -8 -8 -8h-36z" />
    <glyph glyph-name="theta" unicode="&#x3b8;" horiz-adv-x="570" 
d="M501 197q0 -96 -57 -152t-158 -56q-101 1 -159 56.5t-58 151.5v320q0 95 58 151.5t159 57.5q50 0 90 -15t67.5 -42.5t42.5 -66t15 -85.5v-320zM123 391h325v127q0 73 -41.5 117t-120.5 43q-78 -1 -120.5 -44.5t-42.5 -115.5v-127zM123 195q0 -72 41 -114.5t122 -43.5
t121.5 43t40.5 115v148h-325v-148z" />
    <glyph glyph-name="iota" unicode="&#x3b9;" horiz-adv-x="201" 
d="M83 0q-9 0 -9 8v498q0 9 9 9h36q8 0 8 -9v-498q0 -8 -8 -8h-36z" />
    <glyph glyph-name="kappa" unicode="&#x3ba;" horiz-adv-x="488" 
d="M427 0q-8 0 -10 5l-216 244l-75 -70v-171q0 -8 -8 -8h-35q-9 0 -9 8v498q0 9 9 9h35q8 0 8 -9v-262l277 267q3 4 11 4h45q5 0 6.5 -3t-2.5 -7l-226 -219l240 -276q7 -10 -5 -10h-45z" />
    <glyph glyph-name="lambda" unicode="&#x3bb;" horiz-adv-x="552" 
d="M78 0q-8 0 -8 8v295q0 53 15.5 91t43.5 62t67 35t86 11q74 0 144 -35v74q0 62 -37.5 99.5t-110.5 37.5q-46 0 -88 -15t-69 -36q-8 -5 -12 2l-18 25q-6 6 1 11q32 26 82 43.5t105 17.5q44 0 80.5 -12.5t63 -36.5t41 -58.5t14.5 -79.5v-531q0 -8 -9 -8h-36q-8 0 -8 8v410
q-32 17 -68 27t-74 10q-79 0 -119.5 -36t-40.5 -116v-295q0 -8 -9 -8h-36z" />
    <glyph glyph-name="uni03BC" unicode="&#x3bc;" horiz-adv-x="563" 
d="M83 -190q-9 0 -9 8v688q0 9 9 9h36q8 0 8 -9v-322q0 -30 10 -56.5t29.5 -46.5t48.5 -32t67 -12t67 12t48.5 32t29 46.5t9.5 56.5v322q0 9 9 9h36q8 0 8 -9v-498q0 -8 -8 -8h-29q-9 0 -9 8l-3 73q-15 -40 -57.5 -66t-100.5 -26q-57 0 -98 25t-58 63q1 -9 1 -22v-27v-210
q0 -8 -8 -8h-36z" />
    <glyph glyph-name="nu" unicode="&#x3bd;" horiz-adv-x="485" 
d="M218 0q-7 0 -9 7l-191 498q-4 10 7 10h39q7 0 9 -7l116 -312q13 -34 25.5 -69t26.5 -69h1q12 34 25 69t26 69l116 312q2 7 10 7h39q9 0 7 -10l-191 -498q-4 -7 -10 -7h-46z" />
    <glyph glyph-name="xi" unicode="&#x3be;" horiz-adv-x="454" 
d="M414 -49q0 -26 -19 -59.5t-50 -68.5q-6 -7 -12 -2l-24 20q-6 4 -1 12q25 26 39.5 50.5t14.5 40.5q0 21 -27.5 33t-68.5 23q-35 10 -74 24t-72 37.5t-54.5 59.5t-21.5 91q0 64 38 108t102 60q-57 17 -90 61t-33 104q0 37 14.5 69.5t41 57.5t64.5 39.5t86 14.5
q54 0 99 -17.5t80 -47.5q6 -6 1 -12l-16 -24q-5 -8 -12 -2q-30 24 -67 39.5t-86 15.5q-34 0 -62 -10.5t-48 -28.5t-31 -42.5t-11 -52.5q0 -29 11 -54.5t31 -44.5t47.5 -30t59.5 -11h83q8 0 8 -8v-32q0 -9 -8 -9h-90q-33 0 -61.5 -10.5t-50 -29.5t-34 -45t-12.5 -57
q0 -33 11.5 -57.5t30 -42.5t43 -30.5t51.5 -22.5q32 -12 64.5 -21.5t58 -21t41.5 -27t16 -39.5z" />
    <glyph glyph-name="omicron" unicode="&#x3bf;" 
d="M481 181q0 -42 -14 -77t-41.5 -60.5t-67 -40t-90.5 -14.5t-90.5 14.5t-66.5 40t-41.5 60.5t-14.5 77v152q0 41 14.5 76.5t41.5 61.5t66.5 40.5t90.5 14.5t90.5 -14.5t67 -40.5t41.5 -61.5t14 -76.5v-152zM109 181q0 -63 40 -103.5t119 -40.5q80 0 120 41t40 103v152
q0 62 -40 103t-120 41q-79 0 -119 -40.5t-40 -103.5v-152z" />
    <glyph glyph-name="pi" unicode="&#x3c0;" horiz-adv-x="540" 
d="M458 515q8 0 8 -9v-498q0 -8 -8 -8h-36q-9 0 -9 8v459h-286v-459q0 -8 -9 -8h-36q-8 0 -8 8v498q0 9 8 9h376z" />
    <glyph glyph-name="rho" unicode="&#x3c1;" horiz-adv-x="539" 
d="M78 -190q-8 0 -8 8v504q0 97 54.5 150.5t147.5 53.5q48 0 87 -13.5t66.5 -39.5t43 -64t15.5 -86v-137q0 -49 -15.5 -86t-43 -61.5t-66.5 -37t-87 -12.5q-41 0 -77.5 12.5t-72.5 36.5v-220q0 -8 -9 -8h-35zM122 89q32 -23 69 -37.5t79 -14.5q74 0 118 36.5t44 114.5v134
q0 75 -41 115.5t-118 40.5q-75 0 -113 -41t-38 -116v-232z" />
    <glyph glyph-name="sigma1" unicode="&#x3c2;" horiz-adv-x="449" 
d="M106 204q0 -40 16.5 -67t42.5 -45t58.5 -30t64.5 -22l46.5 -15.5t40 -17.5t27.5 -23.5t10 -32.5q0 -26 -18 -58.5t-51 -70.5q-7 -7 -12 -1l-23 19q-7 5 -1 12q26 30 40 54t14 38q0 20 -27 31.5t-65 22.5q-34 10 -72 23.5t-69.5 36t-52.5 57.5t-21 88v146q0 40 15 73
t41 56t61 35.5t75 12.5q59 0 103.5 -15.5t75.5 -36.5q7 -5 2 -12l-18 -26q-5 -7 -12 -2q-26 17 -63 30t-87 13q-30 0 -56 -9.5t-45 -26.5t-29.5 -40.5t-10.5 -52.5v-144v0z" />
    <glyph glyph-name="sigma" unicode="&#x3c3;" horiz-adv-x="550" 
d="M480 182q0 -42 -14 -77.5t-41 -61t-66.5 -40t-90.5 -14.5t-90.5 14.5t-66.5 40t-41.5 61t-14.5 77.5v138q0 42 14.5 78t41.5 62t66.5 40.5t90.5 14.5h242q9 0 9 -9v-31q0 -8 -9 -8h-115q42 -19 63.5 -58t21.5 -89v-138zM108 182q0 -63 40 -103.5t120 -40.5q40 0 70 10.5
t50 29.5t30 45.5t10 58.5v138q0 70 -42.5 108t-117.5 39q-80 0 -120 -41.5t-40 -105.5v-138z" />
    <glyph glyph-name="tau" unicode="&#x3c4;" horiz-adv-x="442" 
d="M203 0q-8 0 -8 8v459h-170q-9 0 -9 8v31q0 9 9 9h392q9 0 9 -9v-31q0 -8 -9 -8h-169v-459q0 -8 -9 -8h-36z" />
    <glyph glyph-name="upsilon" unicode="&#x3c5;" horiz-adv-x="552" 
d="M482 181q0 -42 -14.5 -77t-41.5 -60.5t-65 -40t-84 -14.5q-47 0 -85 14.5t-65 40t-42 60.5t-15 77v325q0 9 8 9h36q9 0 9 -9v-325q0 -65 40.5 -104t113.5 -40q72 0 112 39.5t40 104.5v325q0 9 9 9h36q8 0 8 -9v-325v0z" />
    <glyph glyph-name="phi" unicode="&#x3c6;" horiz-adv-x="720" 
d="M342 -190q-8 0 -8 8v182h-87q-42 0 -77 13t-61 38t-40.5 61.5t-14.5 84.5v121q0 46 14.5 82.5t40.5 62t62 39t80 13.5h83v192q0 8 8 8h36q9 0 9 -8v-192h86q88 0 140.5 -52.5t52.5 -144.5v-121q0 -48 -14.5 -84.5t-40 -61.5t-60 -38t-74.5 -13h-90v-182q0 -8 -9 -8h-36z
M107 198q0 -72 38.5 -111t108.5 -39h80v419h-82q-68 0 -106.5 -39t-38.5 -111v-119zM467 48q70 0 108.5 39t38.5 111v119q0 72 -38.5 111t-106.5 39h-82v-419h80z" />
    <glyph glyph-name="chi" unicode="&#x3c7;" horiz-adv-x="475" 
d="M455 10q3 -4 1.5 -7t-6.5 -3h-45q-7 0 -10 5l-157 219l-158 -219q-3 -5 -10 -5h-45q-5 0 -6.5 3t1.5 7l185 252l-174 243q-2 4 -1 7t6 3h44q7 0 10 -6l148 -209l147 209q3 6 10 6h44q5 0 6.5 -3t-1.5 -7l-174 -243z" />
    <glyph glyph-name="psi" unicode="&#x3c8;" horiz-adv-x="751" 
d="M358 -191q-8 0 -8 8v183h-68q-45 0 -84 13t-67.5 38.5t-45 63t-16.5 86.5v305q0 9 9 9h36q8 0 8 -9v-304q0 -75 44 -114.5t123 -39.5h61v458q0 9 8 9h36q8 0 8 -9v-458h61q79 0 122.5 39.5t43.5 114.5v304q0 9 9 9h36q8 0 8 -9v-305q0 -49 -16.5 -86.5t-45 -63t-67 -38.5
t-83.5 -13h-68v-183q0 -8 -8 -8h-36z" />
    <glyph glyph-name="omega" unicode="&#x3c9;" horiz-adv-x="747" 
d="M520 521q2 9 10 6q75 -11 118 -59.5t43 -123.5v-177q0 -38 -13 -70.5t-36 -56.5t-54 -37.5t-66 -13.5q-59 0 -95 29.5t-53 76.5q-16 -47 -52.5 -76.5t-95.5 -29.5q-35 0 -66 13.5t-54 37.5t-36.5 56.5t-13.5 70.5v177q0 75 43 123.5t118 59.5q8 3 10 -6l7 -31
q1 -9 -6 -10q-57 -9 -88 -46t-31 -91v-175q0 -27 8.5 -50.5t24.5 -41.5t37.5 -28t47.5 -10q30 0 52.5 10.5t38 28.5t23 42t7.5 51v160q0 8 8 8h36q9 0 9 -8v-160q0 -27 7.5 -51t22.5 -42t37 -28.5t52 -10.5q27 0 48.5 10t37 28t24 41.5t8.5 50.5v175q0 54 -30.5 91t-88.5 46
q-7 1 -6 10z" />
    <glyph glyph-name="iotadieresis" unicode="&#x3ca;" horiz-adv-x="201" 
d="M82 0q-8 0 -8 8v498q0 9 8 9h36q9 0 9 -9v-498q0 -8 -9 -8h-36zM68 656q0 -14 -9.5 -24t-24.5 -10t-24.5 10t-9.5 24q0 15 9.5 25t24.5 10t24.5 -10t9.5 -25zM200 656q0 -14 -10 -24t-25 -10t-24 10t-9 24q0 15 9 25t24 10t25 -10t10 -25z" />
    <glyph glyph-name="upsilondieresis" unicode="&#x3cb;" horiz-adv-x="552" 
d="M482 181q0 -42 -14.5 -77t-41.5 -60.5t-65 -40t-84 -14.5q-47 0 -85 14.5t-65 40t-42 60.5t-15 77v325q0 9 8 9h36q9 0 9 -9v-325q0 -65 40.5 -104t113.5 -40q72 0 112 39.5t40 104.5v325q0 9 9 9h36q8 0 8 -9v-325v0zM221 656q0 -16 -9.5 -25t-25.5 -9q-15 0 -24.5 9
t-9.5 25q0 17 9.5 26t24.5 9q16 0 25.5 -9t9.5 -26zM401 656q0 -16 -9.5 -25t-24.5 -9t-25 9t-10 25q0 17 10 26t25 9t24.5 -9t9.5 -26z" />
    <glyph glyph-name="omicrontonos" unicode="&#x3cc;" 
d="M211 598q-5 0 -7.5 3t0.5 8l82 133q3 5 10 5h41q12 0 5 -10l-93 -133q-3 -6 -10 -6h-28zM481 181q0 -42 -14 -77t-41.5 -60.5t-67 -40t-90.5 -14.5t-90.5 14.5t-66.5 40t-41.5 60.5t-14.5 77v152q0 41 14.5 76.5t41.5 61.5t66.5 40.5t90.5 14.5t90.5 -14.5t67 -40.5
t41.5 -61.5t14 -76.5v-152zM109 181q0 -63 40 -103.5t119 -40.5q80 0 120 41t40 103v152q0 62 -40 103t-120 41q-79 0 -119 -40.5t-40 -103.5v-152z" />
    <glyph glyph-name="upsilontonos" unicode="&#x3cd;" horiz-adv-x="552" 
d="M482 181q0 -42 -14.5 -77t-41.5 -60.5t-65 -40t-84 -14.5q-47 0 -85 14.5t-65 40t-42 60.5t-15 77v325q0 9 8 9h36q9 0 9 -9v-325q0 -65 40.5 -104t113.5 -40q72 0 112 39.5t40 104.5v325q0 9 9 9h36q8 0 8 -9v-325v0zM245 598q-5 0 -7.5 3t0.5 8l82 133q3 5 10 5h41
q12 0 5 -10l-93 -133q-3 -6 -10 -6h-28z" />
    <glyph glyph-name="omegatonos" unicode="&#x3ce;" horiz-adv-x="747" 
d="M520 521q2 9 10 6q75 -11 118 -59.5t43 -123.5v-177q0 -38 -13 -70.5t-36 -56.5t-54 -37.5t-66 -13.5q-59 0 -95 29.5t-53 76.5q-16 -47 -52.5 -76.5t-95.5 -29.5q-35 0 -66 13.5t-54 37.5t-36.5 56.5t-13.5 70.5v177q0 75 43 123.5t118 59.5q8 3 10 -6l7 -31
q1 -9 -6 -10q-57 -9 -88 -46t-31 -91v-175q0 -27 8.5 -50.5t24.5 -41.5t37.5 -28t47.5 -10q30 0 52.5 10.5t38 28.5t23 42t7.5 51v160q0 8 8 8h36q9 0 9 -8v-160q0 -27 7.5 -51t22.5 -42t37 -28.5t52 -10.5q27 0 48.5 10t37 28t24 41.5t8.5 50.5v175q0 54 -30.5 91t-88.5 46
q-7 1 -6 10zM343 598q-5 0 -7.5 3t0.5 8l82 133q3 5 10 5h41q12 0 5 -10l-93 -133q-3 -6 -10 -6h-28z" />
    <glyph glyph-name="uni0401" unicode="&#x401;" horiz-adv-x="570" 
d="M149 51h364q8 0 8 -8v-35q0 -8 -8 -8h-411q-8 0 -8 8v699q0 8 8 8h396q9 0 9 -8v-35q0 -8 -9 -8h-349v-274h328q8 0 8 -9v-34q0 -8 -8 -8h-328v-288zM240 863q0 -16 -10 -26t-26 -10t-26 10t-10 26q0 17 10 27t26 10t26 -10t10 -27zM441 863q0 -16 -10 -26t-26 -10
q-17 0 -26.5 10t-9.5 26q0 17 9.5 27t26.5 10q16 0 26 -10t10 -27z" />
    <glyph glyph-name="uni0402" unicode="&#x402;" horiz-adv-x="712" 
d="M299 489q32 14 67.5 23t75.5 9q48 0 87.5 -12.5t67.5 -38t43.5 -65t15.5 -93.5v-149q0 -90 -36.5 -132t-100.5 -42q-12 0 -25.5 1t-24.5 3q-9 1 -9 10v32q0 10 9 8q12 -2 24 -2.5t21 -0.5q42 0 64.5 26.5t22.5 93.5v149q0 86 -42 124t-120 38q-38 0 -74 -9.5t-66 -23.5
v-430q0 -8 -9 -8h-38q-8 0 -8 8v656h-224q-8 0 -8 8v35q0 8 8 8h504q8 0 8 -8v-35q0 -8 -8 -8h-225v-175v0z" />
    <glyph glyph-name="uni0403" unicode="&#x403;" horiz-adv-x="502" 
d="M103 0q-9 0 -9 8v699q0 8 9 8h379q8 0 8 -8v-35q0 -8 -8 -8h-332v-656q0 -8 -9 -8h-38zM278 792q-5 -5 -11 -5h-32q-5 0 -6.5 3t1.5 8l106 133q4 5 10 5h45q13 0 5 -10z" />
    <glyph glyph-name="uni0404" unicode="&#x404;" horiz-adv-x="586" 
d="M546 69q-48 -42 -106.5 -61t-118.5 -19q-57 0 -103.5 16.5t-79 48t-50.5 76t-18 101.5v253q0 56 18 101t50.5 76.5t78 48t101.5 16.5q57 0 111.5 -18.5t100.5 -54.5q7 -4 2 -11l-20 -29q-4 -7 -12 -2q-40 31 -87 47t-96 16q-47 0 -83 -14t-60 -39.5t-36.5 -60
t-12.5 -76.5v-101h310q9 0 9 -9v-35q0 -8 -9 -8h-310v-100q0 -42 12.5 -77t37 -60t60.5 -39t84 -14q54 0 104.5 18t92.5 53q7 6 12 -2l20 -29q5 -7 -2 -12z" />
    <glyph glyph-name="uni0405" unicode="&#x405;" horiz-adv-x="607" 
d="M558 185q0 -49 -19 -86t-53 -61.5t-80 -36.5t-100 -12q-75 0 -132.5 23.5t-115.5 71.5q-6 6 -1 12l21 29q5 6 12 2q53 -43 104 -64t113 -22q41 0 76.5 9t62 27t41.5 45t15 63q0 33 -12 56.5t-37 41t-64 31t-92 25.5q-52 12 -96 29t-75.5 41.5t-49 58t-17.5 78.5
q0 46 19.5 80t53 56.5t78 33t93.5 10.5q69 0 124 -20t109 -60q6 -4 2 -12l-20 -28q-5 -8 -12 -3q-92 69 -209 71q-38 0 -71 -8t-57.5 -24t-39 -40.5t-14.5 -57.5q0 -32 13 -55.5t38 -41t61 -30.5t83 -24q60 -14 106 -31.5t77.5 -41.5t48 -56.5t16.5 -78.5z" />
    <glyph glyph-name="uni0406" unicode="&#x406;" horiz-adv-x="243" 
d="M149 8q0 -8 -8 -8h-39q-8 0 -8 8v699q0 8 8 8h39q8 0 8 -8v-699z" />
    <glyph glyph-name="uni0407" unicode="&#x407;" horiz-adv-x="243" 
d="M149 8q0 -8 -8 -8h-39q-8 0 -8 8v699q0 8 8 8h39q8 0 8 -8v-699zM74 863q0 -16 -10 -25.5t-26 -9.5t-25.5 9.5t-9.5 25.5t9.5 26t25.5 10t26 -10t10 -26zM242 863q0 -16 -10 -25.5t-26 -9.5t-26 9.5t-10 25.5t10 26t26 10t26 -10t10 -26z" />
    <glyph glyph-name="uni0408" unicode="&#x408;" horiz-adv-x="497" 
d="M408 214q0 -112 -52 -168t-146 -56q-59 0 -104 20.5t-87 58.5q-6 4 -2 12l18 28q5 8 12 2q38 -32 76.5 -50.5t86.5 -18.5q71 0 107 40.5t36 131.5v493q0 8 8 8h39q8 0 8 -8v-493v0z" />
    <glyph glyph-name="uni0409" unicode="&#x409;" horiz-adv-x="995" 
d="M183 178q-10 -50 -25 -84.5t-35 -56t-46.5 -31t-60.5 -9.5q-8 0 -8 8v35q0 8 8 8q23 0 41.5 8t32.5 25.5t24 46t17 71.5q13 72 22 194.5t14 312.5q1 9 9 9h363q9 0 9 -8v-263h163q119 0 182 -56t63 -165t-63.5 -166t-179.5 -57h-212q-9 0 -9 8v656h-271q-5 -172 -13 -290
t-25 -196zM548 52h165q187 0 187 171q0 81 -46 125t-143 44h-163v-340z" />
    <glyph glyph-name="uni040A" unicode="&#x40a;" horiz-adv-x="990" 
d="M102 0q-8 0 -8 8v699q0 8 8 8h39q8 0 8 -8v-289h351v289q0 8 9 8h38q9 0 9 -8v-289h146q121 0 186 -50.5t65 -156.5q0 -51 -17.5 -90.5t-49.5 -66t-77.5 -40.5t-101.5 -14h-198q-9 0 -9 8v359h-351v-359q0 -8 -8 -8h-39zM556 52h151q89 0 139 39.5t50 119.5
q0 155 -194 155h-146v-314z" />
    <glyph glyph-name="uni040B" unicode="&#x40b;" horiz-adv-x="711" 
d="M294 489q32 14 67.5 23t74.5 9q48 0 88 -12.5t68 -38t43.5 -65t15.5 -93.5v-304q0 -8 -8 -8h-38q-7 0 -9 8v301q0 86 -42.5 124t-120.5 38q-38 0 -74 -9.5t-65 -23.5v-430q0 -8 -9 -8h-38q-9 0 -9 8v656h-218q-8 0 -8 8v35q0 8 8 8h491q8 0 8 -8v-35q0 -8 -8 -8h-217
v-175v0z" />
    <glyph glyph-name="uni040C" unicode="&#x40c;" horiz-adv-x="608" 
d="M308 792q-5 -5 -11 -5h-32q-5 0 -6.5 3t1.5 8l106 133q4 5 10 5h45q13 0 5 -10zM102 0q-8 0 -8 8v699q0 8 8 8h39q8 0 8 -8v-367l361 370q7 5 11 5h51q5 0 7 -3t-2 -7l-305 -312l324 -383q8 -10 -5 -10h-51q-8 0 -10 5l-295 349l-86 -85v-261q0 -8 -8 -8h-39z" />
    <glyph glyph-name="uni040E" unicode="&#x40e;" horiz-adv-x="528" 
d="M156 0q-10 0 -6 10l100 217l-240 478q-5 10 6 10h43q7 0 10 -7l209 -422l185 422q1 7 9 7h43q5 0 6.5 -3t-0.5 -7l-312 -698q-3 -7 -10 -7h-43zM421 910q-8 -61 -47.5 -100.5t-108.5 -39.5t-108.5 39.5t-47.5 100.5q-1 7 7 9l27 7q9 1 10 -7q7 -48 34.5 -76t77.5 -28
t77.5 28t33.5 76q3 8 10 7l28 -7q8 -2 7 -9z" />
    <glyph glyph-name="uni040F" unicode="&#x40f;" horiz-adv-x="681" 
d="M578 715q9 0 9 -8v-699q0 -8 -9 -8h-211v-124q0 -9 -8 -9h-36q-8 0 -8 9v124h-212q-9 0 -9 8v699q0 8 9 8h38q9 0 9 -8v-656h381v656q0 8 9 8h38z" />
    <glyph glyph-name="uni0410" unicode="&#x410;" horiz-adv-x="602" 
d="M17 0q-9 0 -6 10l256 698q3 7 9 7h50q5 0 9 -7l257 -698q2 -10 -7 -10h-41q-7 0 -10 7l-73 202h-320l-73 -202q-4 -7 -9 -7h-42zM158 260h286l-141 391h-3z" />
    <glyph glyph-name="uni0411" unicode="&#x411;" horiz-adv-x="626" 
d="M339 429q123 0 181.5 -51.5t58.5 -162.5q0 -106 -63 -160.5t-172 -54.5h-241q-9 0 -9 8v699q0 8 9 8h421q8 0 8 -8v-35q0 -8 -8 -8h-374v-235h189zM343 51q87 0 133.5 40.5t46.5 123.5q0 84 -43 123.5t-140 39.5h-190v-327h193z" />
    <glyph glyph-name="uni0412" unicode="&#x412;" horiz-adv-x="627" 
d="M544 536q0 -57 -27 -96.5t-75 -56.5q64 -17 98 -64.5t34 -116.5q0 -96 -64 -149t-183 -53h-225q-8 0 -8 8v699q0 8 8 8h226q58 0 99 -14t67 -38t38 -56.5t12 -70.5zM328 50q94 0 142 39t48 113q0 69 -42.5 111.5t-134.5 42.5h-192v-306h179zM489 536q0 27 -8.5 50.5
t-27.5 41t-50 27.5t-75 10h-179v-259h192q69 0 108.5 33.5t39.5 96.5z" />
    <glyph glyph-name="uni0413" unicode="&#x413;" horiz-adv-x="502" 
d="M103 0q-9 0 -9 8v699q0 8 9 8h379q8 0 8 -8v-35q0 -8 -8 -8h-332v-656q0 -8 -9 -8h-38z" />
    <glyph glyph-name="uni0414" unicode="&#x414;" horiz-adv-x="664" 
d="M19 -137q-9 0 -9 8v172q0 8 9 8h33q28 12 48 46.5t33.5 108t22.5 194t16 306.5q0 9 8 9h364q8 0 8 -8v-656h65q9 0 9 -8v-172q0 -8 -9 -8h-38q-8 0 -8 8v129h-506v-129q0 -8 -8 -8h-38zM225 664q-4 -150 -10.5 -256t-17 -178t-27 -114.5t-39.5 -64.5h366v613h-272z" />
    <glyph glyph-name="uni0415" unicode="&#x415;" horiz-adv-x="570" 
d="M149 51h364q8 0 8 -8v-35q0 -8 -8 -8h-411q-8 0 -8 8v699q0 8 8 8h396q9 0 9 -8v-35q0 -8 -9 -8h-349v-274h328q8 0 8 -9v-34q0 -8 -8 -8h-328v-288z" />
    <glyph glyph-name="uni0416" unicode="&#x416;" horiz-adv-x="904" 
d="M832 0q-7 0 -10 5l-264 349l-79 -86v-260q0 -8 -9 -8h-38q-8 0 -8 8v260l-79 86l-265 -349q-3 -5 -10 -5h-50q-5 0 -6.5 3t1.5 7l294 385l-275 310q-8 10 4 10h50q8 0 11 -5l325 -372v369q0 8 8 8h38q9 0 9 -8v-369l325 372q2 5 10 5h50q12 0 4 -10l-275 -310l295 -385
q2 -4 0.5 -7t-6.5 -3h-50z" />
    <glyph glyph-name="uni0417" unicode="&#x417;" horiz-adv-x="581" 
d="M504 532q-1 -50 -28.5 -93t-86.5 -62q68 -20 100.5 -68t32.5 -108q0 -50 -18 -89t-50.5 -66.5t-77.5 -42t-99 -14.5q-81 0 -140 25t-101 63q-5 7 0 12l20 29q5 7 12 1q35 -32 86 -55t123 -23q87 0 138 44t51 116q0 29 -10.5 55.5t-33 47t-57.5 32.5t-84 12h-106
q-9 0 -9 8v34q0 8 9 8h113q41 0 71 11.5t50 30t29.5 42.5t9.5 49q0 29 -12 55t-34 45.5t-54.5 31t-72.5 11.5q-69 0 -115 -21t-79 -51q-7 -6 -12 1l-20 28q-5 6 1 12q40 38 95.5 60.5t130.5 22.5q51 0 93 -15t72 -41.5t46.5 -62t16.5 -75.5z" />
    <glyph glyph-name="uni0418" unicode="&#x418;" horiz-adv-x="701" 
d="M561 0q-9 0 -9 8v367q0 28 0.5 60t1 64.5t1 64.5t0.5 60l-1 1q-15 -26 -32 -55t-34 -55l-332 -510q-3 -5 -10 -5h-44q-8 0 -8 8v699q0 8 8 8h38q9 0 9 -8v-353q0 -63 -1 -133t-3 -133l2 -3q16 28 34 57t35 57l329 510q3 6 10 6h44q8 0 8 -8v-699q0 -8 -8 -8h-38z" />
    <glyph glyph-name="uni0419" unicode="&#x419;" horiz-adv-x="701" 
d="M509 910q-8 -61 -47.5 -100.5t-108.5 -39.5t-108.5 39.5t-47.5 100.5q-1 7 7 9l27 7q9 1 10 -7q7 -48 34.5 -76t77.5 -28t77.5 28t33.5 76q3 8 10 7l28 -7q8 -2 7 -9zM599.006 0q8 0 8 8v699q0 8 -8 8h-43.9971q-6.99902 0 -9.99902 -6l-328.98 -510
q-16.999 -28 -34.998 -57q-17.998 -29 -33.9971 -57l-2 3q2 63 3 133q0.999023 70 0.999023 133v353q0 8 -8.99902 8h-37.998q-7.99902 0 -7.99902 -8v-699q0 -8 7.99902 -8h43.998q6.99902 0 9.99902 5l331.979 510q16.999 26 33.998 55t31.998 55l1 -1q0 -28 -0.5 -60
t-1 -64.5t-1 -64.5t-0.5 -60v-367q0 -8 9 -8h37.9971z" />
    <glyph glyph-name="uni041A" unicode="&#x41a;" horiz-adv-x="608" 
d="M102 0q-8 0 -8 8v699q0 8 8 8h39q8 0 8 -8v-367l361 370q7 5 11 5h51q5 0 7 -3t-2 -7l-305 -312l324 -383q8 -10 -5 -10h-51q-8 0 -10 5l-295 349l-86 -85v-261q0 -8 -8 -8h-39z" />
    <glyph glyph-name="uni041B" unicode="&#x41b;" horiz-adv-x="647" 
d="M186 213q-9 -60 -23.5 -100.5t-35 -66t-47.5 -37t-63 -12.5q-8 0 -8 8v35q0 8 8 8q24 1 42.5 10t32.5 29.5t24 53.5t17 83q11 74 17.5 191t11.5 292q0 8 8 8h374q9 0 9 -8v-699q0 -8 -9 -8h-38q-9 0 -9 8v656h-283q-3 -156 -10 -266t-18 -185z" />
    <glyph glyph-name="uni041C" unicode="&#x41c;" horiz-adv-x="846" 
d="M102 0q-8 0 -8 8v699q0 8 8 8h49q7 0 10 -6l186 -330q18 -32 39 -72t36 -69h1q8 14 17.5 31.5t19 36t19.5 37t19 34.5l187 332q3 6 10 6h48q9 0 9 -8v-699q0 -8 -9 -8h-38q-9 0 -9 8v399q0 54 1 111.5t2 111.5l-1 1q-21 -41 -44 -83t-48 -87l-157 -283q-3 -5 -10 -5h-32
q-7 0 -10 5l-158 283l-92 170l-1 -1q1 -54 2 -112t1 -112v-398q0 -8 -8 -8h-39z" />
    <glyph glyph-name="uni041D" unicode="&#x41d;" horiz-adv-x="677" 
d="M528 707q0 8 8 8h38q9 0 9 -8v-699q0 -8 -9 -8h-38q-8 0 -8 8v330h-379v-330q0 -8 -8 -8h-39q-8 0 -8 8v699q0 8 8 8h39q8 0 8 -8v-318h379v318z" />
    <glyph glyph-name="uni041E" unicode="&#x41e;" horiz-adv-x="669" 
d="M600 235q0 -54 -19 -99.5t-53.5 -78t-83.5 -50.5t-109 -18q-61 0 -110 18t-83.5 50.5t-53.5 78t-19 99.5v239q0 57 18.5 103.5t53 79.5t84 51t110.5 18t110 -18t83.5 -51t53 -79.5t18.5 -103.5v-239zM124 235q0 -43 14.5 -79t42 -61.5t66.5 -39.5t88 -14t88 14t66 39.5
t41.5 61.5t14.5 79v239q0 92 -56 146t-154 54q-99 0 -155 -54t-56 -146v-239z" />
    <glyph glyph-name="uni041F" unicode="&#x41f;" horiz-adv-x="679" 
d="M103 0q-9 0 -9 8v699q0 8 9 8h473q9 0 9 -8v-699q0 -8 -9 -8h-38q-9 0 -9 8v656h-379v-656q0 -8 -8 -8h-39z" />
    <glyph glyph-name="uni0420" unicode="&#x420;" horiz-adv-x="617" 
d="M333 715q118 0 181.5 -59.5t63.5 -165.5q0 -108 -63.5 -166.5t-181.5 -58.5h-184v-257q0 -8 -8 -8h-38q-9 0 -9 8v699q0 8 9 8h230zM327 316q98 0 147 44t49 130q0 85 -49 129.5t-147 44.5h-178v-348h178z" />
    <glyph glyph-name="uni0421" unicode="&#x421;" horiz-adv-x="581" 
d="M546 69q-48 -42 -106.5 -61t-118.5 -19q-57 0 -103.5 16.5t-79 48t-50.5 76.5t-18 101v253q0 56 18 101t50.5 76.5t78 48t101.5 16.5q57 0 111.5 -18.5t100.5 -54.5q7 -4 2 -11l-20 -29q-5 -7 -12 -1q-40 30 -87 46t-96 16q-47 0 -83 -14t-60 -39.5t-36.5 -60
t-12.5 -76.5v-253q0 -42 12.5 -77t37 -60t60.5 -39t84 -14q54 0 104.5 18t92.5 53q7 6 12 -2l20 -29q5 -7 -2 -12z" />
    <glyph glyph-name="uni0422" unicode="&#x422;" horiz-adv-x="545" 
d="M524 715q9 0 9 -8v-35q0 -8 -9 -8h-225v-656q0 -8 -9 -8h-38q-9 0 -9 8v656h-223q-8 0 -8 8v35q0 8 8 8h504z" />
    <glyph glyph-name="uni0423" unicode="&#x423;" horiz-adv-x="528" 
d="M156 0q-10 0 -6 10l100 217l-240 478q-5 10 6 10h43q7 0 10 -7l209 -422l185 422q1 7 9 7h43q5 0 6.5 -3t-0.5 -7l-312 -698q-3 -7 -10 -7h-43z" />
    <glyph glyph-name="uni0424" unicode="&#x424;" horiz-adv-x="849" 
d="M405 -64q-8 0 -8 9v83h-71q-48 0 -95 15.5t-83.5 48t-59 83.5t-22.5 123v117q0 71 22.5 122t59.5 83.5t83.5 48t94.5 15.5h71v77q0 9 8 9h39q8 0 8 -9v-77h70q48 0 95 -15.5t84 -48t59.5 -83.5t22.5 -122v-117q0 -72 -22.5 -123t-59.5 -83.5t-84 -48t-95 -15.5h-70v-83
q0 -9 -8 -9h-39zM122 298q0 -58 17.5 -99.5t46.5 -67.5t66.5 -38.5t76.5 -12.5h68v552h-68q-39 0 -76.5 -12t-66.5 -38t-46.5 -67t-17.5 -100v-117zM452 80h68q39 0 76 12.5t66.5 38.5t47 67.5t17.5 99.5v117q0 59 -17.5 100t-47 67t-66.5 38t-76 12h-68v-552z" />
    <glyph glyph-name="uni0425" unicode="&#x425;" horiz-adv-x="579" 
d="M557 10q2 -4 1 -7t-6 -3h-48q-7 0 -10 6l-204 311l-205 -311q-3 -6 -10 -6h-47q-5 0 -6.5 3t0.5 7l235 350l-224 345q-2 4 -0.5 7t6.5 3h47q6 0 9 -6l195 -305l194 305q3 6 10 6h46q5 0 6.5 -3t-0.5 -7l-223 -345z" />
    <glyph glyph-name="uni0426" unicode="&#x426;" horiz-adv-x="687" 
d="M604 -131q-9 0 -9 8v123h-493q-8 0 -8 8v699q0 8 8 8h39q8 0 8 -8v-656h371v656q0 8 8 8h38q9 0 9 -8v-656h65q9 0 9 -8v-166q0 -8 -9 -8h-36z" />
    <glyph glyph-name="uni0427" unicode="&#x427;" horiz-adv-x="619" 
d="M478 0q-9 0 -9 8v285q-42 -19 -82.5 -29.5t-82.5 -10.5q-57 0 -102.5 15t-78 44t-50 71.5t-17.5 96.5v227q0 8 9 8h39q8 0 8 -8v-225q0 -87 52.5 -132t143.5 -45q40 0 81 11t80 30v361q0 8 9 8h39q8 0 8 -8v-699q0 -8 -8 -8h-39z" />
    <glyph glyph-name="uni0428" unicode="&#x428;" horiz-adv-x="953" 
d="M102 0q-8 0 -8 8v699q0 8 8 8h39q8 0 8 -8v-656h300v656q0 8 8 8h39q8 0 8 -8v-656h300v656q0 8 8 8h39q8 0 8 -8v-699q0 -8 -8 -8h-749z" />
    <glyph glyph-name="uni0429" unicode="&#x429;" horiz-adv-x="971" 
d="M888 -131q-8 0 -8 8v123h-777q-9 0 -9 8v699q0 8 9 8h39q8 0 8 -8v-656h299v656q0 8 9 8h38q9 0 9 -8v-656h299v656q0 8 8 8h39q8 0 8 -8v-656h66q8 0 8 -8v-166q0 -8 -8 -8h-37z" />
    <glyph glyph-name="uni042A" unicode="&#x42a;" horiz-adv-x="680" 
d="M175 0q-8 0 -8 8v655h-144q-8 0 -8 9v35q0 8 8 8h191q8 0 8 -8v-261h174q119 0 182 -55.5t63 -163.5q0 -110 -63.5 -168.5t-179.5 -58.5h-223zM222 52h176q187 0 187 175q0 80 -45.5 124t-143.5 44h-174v-343z" />
    <glyph glyph-name="uni042B" unicode="&#x42b;" horiz-adv-x="860" 
d="M103 0q-9 0 -9 8v699q0 8 9 8h39q8 0 8 -8v-260h174q120 0 182.5 -58t62.5 -163q0 -108 -62 -167t-181 -59h-223zM718 0q-8 0 -8 8v699q0 8 8 8h39q9 0 9 -8v-699q0 -8 -9 -8h-39zM150 52h176q96 0 141.5 44t45.5 130q0 83 -45.5 126t-141.5 43h-176v-343z" />
    <glyph glyph-name="uni042C" unicode="&#x42c;" horiz-adv-x="608" 
d="M103 0q-9 0 -9 8v699q0 8 9 8h39q8 0 8 -8v-260h174q120 0 182.5 -58t62.5 -163q0 -109 -62 -167.5t-181 -58.5h-223zM150 52h176q96 0 141.5 44t45.5 130q0 82 -45.5 125.5t-141.5 43.5h-176v-343z" />
    <glyph glyph-name="uni042D" unicode="&#x42d;" horiz-adv-x="586" 
d="M40 69q-7 5 -2 12l20 29q5 8 12 2q42 -35 92.5 -53t104.5 -18q48 0 84 14t60.5 39t37 60t12.5 77v100h-310q-9 0 -9 8v35q0 9 9 9h310v101q0 42 -12.5 76.5t-36.5 60t-60 39.5t-83 14q-49 0 -96 -16t-87 -47q-8 -5 -12 2l-20 29q-5 7 2 11q46 36 100.5 54.5t111.5 18.5
q56 0 101.5 -16.5t78 -48t50.5 -76.5t18 -101v-253q0 -57 -18 -101.5t-50.5 -76t-79 -48t-103.5 -16.5q-60 0 -118.5 19t-106.5 61z" />
    <glyph glyph-name="uni042E" unicode="&#x42e;" horiz-adv-x="895" 
d="M825 228q0 -56 -20 -100t-54.5 -75t-81.5 -47.5t-101 -16.5t-101.5 16.5t-82 47.5t-54.5 75t-20 100v112h-161v-332q0 -8 -8 -8h-38q-9 0 -9 8v699q0 8 9 8h38q8 0 8 -8v-315h161v90q0 58 20 103t54.5 76.5t81.5 48t102 16.5q54 0 101 -16.5t81.5 -48t54.5 -76.5t20 -103
v-254zM366 228q0 -43 15 -77.5t42 -59t64 -37.5t81 -13q43 0 80 13t64 37.5t42 59t15 77.5v254q0 46 -15 81.5t-41.5 60t-63.5 37.5t-81 13t-81 -13t-64 -37.5t-42 -60t-15 -81.5v-254z" />
    <glyph glyph-name="uni042F" unicode="&#x42f;" horiz-adv-x="633" 
d="M57 497q0 103 64 160.5t179 57.5h230q8 0 8 -8v-699q0 -8 -8 -8h-38q-9 0 -9 8v271h-163l-213 -274q-3 -5 -10 -5h-50q-5 0 -6.5 3t1.5 7l216 273q-95 10 -148 64.5t-53 149.5zM483 330v333h-182q-92 0 -140 -43.5t-48 -123.5q0 -81 48 -123.5t140 -42.5h182z" />
    <glyph glyph-name="uni0430" unicode="&#x430;" horiz-adv-x="506" 
d="M65 474q33 23 79.5 37.5t103.5 14.5q94 0 142.5 -49t48.5 -140v-304q0 -7 -7 -10q-33 -13 -81.5 -23.5t-104.5 -10.5q-43 0 -81.5 10t-67 30.5t-45 50.5t-16.5 71q0 78 56.5 118t153.5 40q38 0 74.5 -5.5t65.5 -10.5v43q0 67 -32 104t-108 37q-45 0 -85 -12t-68 -29
q-6 -5 -11 2l-17 26q-5 7 0 10zM90 151q0 -27 11.5 -48t32.5 -36t49.5 -22.5t62.5 -7.5q42 0 78 7.5t62 16.5v186q-28 6 -65 10.5t-75 4.5q-78 0 -117 -28.5t-39 -82.5z" />
    <glyph glyph-name="uni0431" unicode="&#x431;" horiz-adv-x="532" 
d="M122 443q32 23 72.5 34.5t82.5 11.5q93 0 147.5 -53t54.5 -154v-91q0 -48 -15.5 -86t-43.5 -63.5t-65.5 -39t-80.5 -13.5q-44 0 -81 13.5t-65 39t-43.5 63.5t-15.5 86v313q0 43 15 77t40.5 59t59.5 41t71 23q12 2 31.5 5.5t42.5 8t46 11.5t41 16q8 4 11 -4l15 -27
q3 -8 -3 -11q-18 -10 -41 -17t-46 -12.5t-44 -9.5t-35 -7q-68 -15 -109.5 -52.5t-41.5 -102.5v-59zM273 37q67 0 110 40t43 114v90q0 78 -39 119.5t-112 41.5q-41 0 -81.5 -12.5t-71.5 -35.5v-203q0 -74 42.5 -114t108.5 -40z" />
    <glyph glyph-name="uni0432" unicode="&#x432;" horiz-adv-x="521" 
d="M83 0q-9 0 -9 8v498q0 9 9 9h201q43 0 75 -10.5t53.5 -28.5t32 -41.5t10.5 -49.5q0 -44 -25 -73.5t-66 -40.5q53 -14 81.5 -46t28.5 -84q0 -61 -48 -101t-142 -40h-201zM127 288h155q54 0 87 24t33 69q0 38 -28.5 63.5t-91.5 25.5h-155v-182zM127 45h155q72 0 105.5 27.5
t33.5 73.5q0 50 -38 74.5t-101 24.5h-155v-200z" />
    <glyph glyph-name="uni0433" unicode="&#x433;" horiz-adv-x="399" 
d="M83 0q-9 0 -9 8v498q0 9 9 9h292q8 0 8 -9v-31q0 -8 -8 -8h-248v-459q0 -8 -8 -8h-36z" />
    <glyph glyph-name="uni0434" unicode="&#x434;" horiz-adv-x="557" 
d="M26 -137q-9 0 -9 8v168q0 9 9 9h22q18 9 32.5 33.5t25 76t19 135.5t14.5 213q0 9 8 9h310q9 0 9 -9v-458h53q8 0 8 -9v-168q0 -8 -8 -8h-34q-9 0 -9 8v129h-408v-129q0 -8 -8 -8h-34zM188 467q-4 -101 -11 -174.5t-17 -124t-22.5 -79.5t-28.5 -41h304v419h-225z" />
    <glyph glyph-name="uni0435" unicode="&#x435;" horiz-adv-x="513" 
d="M464 238q0 -8 -9 -8h-345v-56q0 -33 12 -58.5t32.5 -43t48 -26.5t58.5 -9q57 0 96 20t67 44q8 5 12 -2l18 -23q6 -6 -1 -12q-35 -30 -82 -52.5t-111 -22.5q-40 0 -76.5 12t-65 35.5t-45.5 58t-17 79.5v158q0 48 16 84.5t43.5 60.5t65 36.5t80.5 12.5q42 0 79 -12.5
t64.5 -36.5t43.5 -60.5t16 -84.5v-94zM412 332q0 72 -42.5 108.5t-108.5 36.5q-69 0 -110 -36.5t-41 -108.5v-57h302v57z" />
    <glyph glyph-name="uni0436" unicode="&#x436;" horiz-adv-x="721" 
d="M655 0q-8 0 -10 5l-188 248l-70 -76v-169q0 -8 -9 -8h-35q-8 0 -8 8v169l-70 76l-188 -248q-4 -5 -11 -5h-43q-5 0 -6.5 3t0.5 7l213 279l-195 216q-4 4 -2.5 7t6.5 3h45q7 0 10 -5l151 -167l90 -101v264q0 9 8 9h35q9 0 9 -9v-264l90 101l150 167q5 5 11 5h44q5 0 7 -3
t-2 -7l-195 -216l212 -279q3 -4 1.5 -7t-6.5 -3h-44z" />
    <glyph glyph-name="uni0437" unicode="&#x437;" horiz-adv-x="476" 
d="M411 386q0 -82 -82 -114q49 -14 75 -46.5t26 -78.5q0 -34 -15 -63t-42 -50t-64 -33t-81 -12q-59 0 -106 17.5t-91 54.5q-6 6 -1 12l20 23q4 7 12 2q34 -26 73 -43.5t92 -17.5q33 0 60.5 8t47.5 22.5t31 35t11 45.5q0 45 -34.5 72t-94.5 27h-113q-8 0 -8 9v25q0 9 8 9h110
q54 0 83.5 26.5t29.5 68.5q0 46 -37.5 70t-93.5 24q-54 0 -92 -16t-63 -36q-7 -5 -12 2l-18 23q-6 8 1 12q30 25 76.5 43.5t107.5 18.5q40 0 73.5 -10.5t58 -29t38.5 -44t14 -56.5z" />
    <glyph glyph-name="uni0438" unicode="&#x438;" horiz-adv-x="561" 
d="M83 0q-9 0 -9 8v498q0 9 9 9h36q8 0 8 -9v-324v-52.5t-1 -53.5h1q6 11 15.5 26.5t20 32t20.5 32t17 26.5l225 317q5 5 11 5h43q8 0 8 -9v-498q0 -8 -8 -8h-36q-9 0 -9 8v310q0 26 0.5 58t0.5 59q-6 -10 -15.5 -24.5t-19 -30.5t-19.5 -31l-18 -27l-226 -317q-3 -5 -10 -5
h-44z" />
    <glyph glyph-name="uni0439" unicode="&#x439;" horiz-adv-x="561" 
d="M83 0q-9 0 -9 8v498q0 9 9 9h36q8 0 8 -9v-324v-52.5t-1 -53.5h1q6 11 15.5 26.5t20 32t20.5 32t17 26.5l225 317q5 5 11 5h43q8 0 8 -9v-498q0 -8 -8 -8h-36q-9 0 -9 8v310q0 26 0.5 58t0.5 59q-6 -10 -15.5 -24.5t-19 -30.5t-19.5 -31l-18 -27l-226 -317q-3 -5 -10 -5
h-44zM428 727q-7 -60 -45 -98t-104 -38q-65 0 -103 38t-45 97q-1 8 7 10l26 3q7 1 10 -7q7 -45 32.5 -72t72.5 -27t73 27t33 72q1 8 10 7l25 -3q10 0 8 -9z" />
    <glyph glyph-name="uni043A" unicode="&#x43a;" horiz-adv-x="488" 
d="M427 0q-8 0 -10 5l-216 244l-75 -70v-171q0 -8 -8 -8h-35q-9 0 -9 8v498q0 9 9 9h35q8 0 8 -9v-262l277 267q3 4 11 4h45q5 0 6.5 -3t-2.5 -7l-226 -219l240 -276q7 -10 -5 -10h-45z" />
    <glyph glyph-name="uni043B" unicode="&#x43b;" horiz-adv-x="548" 
d="M165 181q-8 -53 -19 -88t-28.5 -56t-41 -30t-56.5 -10q-8 0 -8 8v31q0 9 8 9q19 1 34 7.5t26 23t19.5 45.5t14.5 75q7 48 13 124t11 186q1 9 9 9h319q8 0 8 -9v-498q0 -8 -8 -8h-36q-9 0 -9 8v459h-232q-5 -95 -11.5 -166.5t-12.5 -119.5z" />
    <glyph glyph-name="uni043C" unicode="&#x43c;" horiz-adv-x="656" 
d="M83 0q-9 0 -9 8v498q0 9 9 9h41q7 0 10 -6l148 -262q12 -23 23.5 -44.5t22.5 -42.5h1q11 21 22 42.5t24 44.5l147 262q3 6 10 6h42q8 0 8 -9v-498q0 -8 -8 -8h-36q-8 0 -8 8v421l-60 -113l-119 -212q-3 -5 -10 -5h-26q-2 0 -5 1t-4 4l-123 220q-15 26 -28.5 52.5
t-27.5 52.5h-1q0 -10 0.5 -22.5t0.5 -31v-47v-72v-104v-144.5q0 -8 -8 -8h-36z" />
    <glyph glyph-name="uni043D" unicode="&#x43d;" horiz-adv-x="541" 
d="M83 0q-9 0 -9 8v498q0 9 9 9h36q8 0 8 -9v-215h287v215q0 9 8 9h36q9 0 9 -9v-498q0 -8 -9 -8h-36q-8 0 -8 8v235h-287v-235q0 -8 -8 -8h-36z" />
    <glyph glyph-name="uni043E" unicode="&#x43e;" 
d="M481 181q0 -42 -14 -77t-41.5 -60.5t-67 -40t-90.5 -14.5t-90.5 14.5t-66.5 40t-41.5 60.5t-14.5 77v152q0 41 14.5 76.5t41.5 61.5t66.5 40.5t90.5 14.5t90.5 -14.5t67 -40.5t41.5 -61.5t14 -76.5v-152zM109 181q0 -63 40 -103.5t119 -40.5q80 0 120 41t40 103v152
q0 62 -40 103t-120 41q-79 0 -119 -40.5t-40 -103.5v-152z" />
    <glyph glyph-name="uni043F" unicode="&#x43f;" horiz-adv-x="540" 
d="M458 515q8 0 8 -9v-498q0 -8 -8 -8h-36q-9 0 -9 8v459h-286v-459q0 -8 -9 -8h-36q-8 0 -8 8v498q0 9 8 9h376z" />
    <glyph glyph-name="uni0440" unicode="&#x440;" 
d="M78 490q42 17 90.5 26.5t97.5 9.5t88.5 -12.5t68 -39t44 -67t15.5 -96.5v-108q0 -106 -58 -160t-156 -54q-40 0 -77 11t-66 29v-211q0 -8 -8 -8h-36q-9 0 -9 8v662q0 7 6 10zM265 37q79 0 121 39t42 127v108q0 89 -43 128t-120 39q-38 0 -74 -6.5t-66 -17.5v-373
q29 -20 65.5 -32t74.5 -12z" />
    <glyph glyph-name="uni0441" unicode="&#x441;" horiz-adv-x="466" 
d="M436 50q-39 -30 -81.5 -45.5t-94.5 -15.5q-48 0 -86 14.5t-64.5 40t-40.5 60t-14 74.5v159q0 40 14 74.5t40.5 60t64.5 40t86 14.5q45 0 84.5 -13t76.5 -39q7 -6 3 -12l-17 -26q-6 -6 -12 -2q-62 43 -135 43q-37 0 -65 -11t-47.5 -29.5t-29.5 -44t-10 -55.5v-159
q0 -60 39.5 -100.5t112.5 -40.5q77 0 148 51q7 6 12 -1l17 -25q5 -8 -1 -12z" />
    <glyph glyph-name="uni0442" unicode="&#x442;" horiz-adv-x="442" 
d="M203 0q-8 0 -8 8v459h-170q-9 0 -9 8v31q0 9 9 9h392q9 0 9 -9v-31q0 -8 -9 -8h-169v-459q0 -8 -9 -8h-36z" />
    <glyph glyph-name="uni0443" unicode="&#x443;" horiz-adv-x="545" 
d="M418 506q0 9 9 9h36q8 0 8 -9v-509q0 -45 -12 -81t-36.5 -62t-62 -40t-89.5 -14q-60 0 -105.5 20t-83.5 54q-6 6 -1 12l19 26q5 7 11 1q32 -26 70.5 -45t89.5 -20q76 1 112.5 39.5t35.5 112.5v49q-31 -14 -67 -22.5t-74 -8.5q-44 0 -82 12t-66 36t-44.5 60.5t-16.5 86.5
v293q0 9 8 9h36q9 0 9 -9v-291q0 -39 12 -67t33.5 -46t51 -26.5t65.5 -8.5q38 0 71.5 8.5t62.5 24.5v406z" />
    <glyph glyph-name="uni0444" unicode="&#x444;" horiz-adv-x="720" 
d="M342 -190q-8 0 -8 8v182h-87q-42 0 -77 13t-61 38t-40.5 61.5t-14.5 84.5v121q0 46 14.5 82.5t40.5 62t62 39t80 13.5h83v192q0 8 8 8h36q9 0 9 -8v-192h86q88 0 140.5 -52.5t52.5 -144.5v-121q0 -48 -14.5 -84.5t-40 -61.5t-60 -38t-74.5 -13h-90v-182q0 -8 -9 -8h-36z
M107 198q0 -72 38.5 -111t108.5 -39h80v419h-82q-68 0 -106.5 -39t-38.5 -111v-119zM467 48q70 0 108.5 39t38.5 111v119q0 72 -38.5 111t-106.5 39h-82v-419h80z" />
    <glyph glyph-name="uni0445" unicode="&#x445;" horiz-adv-x="475" 
d="M455 10q3 -4 1.5 -7t-6.5 -3h-45q-7 0 -10 5l-157 219l-158 -219q-3 -5 -10 -5h-45q-5 0 -6.5 3t1.5 7l185 252l-174 243q-2 4 -1 7t6 3h44q7 0 10 -6l148 -209l147 209q3 6 10 6h44q5 0 6.5 -3t-1.5 -7l-174 -243z" />
    <glyph glyph-name="uni0446" unicode="&#x446;" horiz-adv-x="557" 
d="M486 -131q-9 0 -9 8v123h-395q-8 0 -8 8v498q0 9 8 9h36q9 0 9 -9v-458h286v458q0 9 9 9h36q8 0 8 -9v-458h53q8 0 8 -9v-162q0 -8 -8 -8h-33z" />
    <glyph glyph-name="uni0447" unicode="&#x447;" horiz-adv-x="510" 
d="M391 0q-8 0 -8 8v193q-33 -14 -69 -21.5t-74 -7.5q-89 0 -141 49.5t-52 153.5v131q0 9 8 9h36q9 0 9 -9v-130q0 -81 36 -118.5t105 -37.5q38 0 75 8.5t67 21.5v256q0 9 8 9h37q8 0 8 -9v-498q0 -8 -8 -8h-37z" />
    <glyph glyph-name="uni0448" unicode="&#x448;" horiz-adv-x="780" 
d="M83 0q-9 0 -9 8v498q0 9 9 9h36q8 0 8 -9v-458h237v458q0 9 8 9h36q8 0 8 -9v-458h237v458q0 9 9 9h35q9 0 9 -9v-498q0 -8 -9 -8h-614z" />
    <glyph glyph-name="uni0449" unicode="&#x449;" horiz-adv-x="797" 
d="M725 -131q-8 0 -8 8v123h-634q-9 0 -9 8v498q0 9 9 9h36q8 0 8 -9v-458h237v458q0 9 8 9h36q8 0 8 -9v-458h237v458q0 9 9 9h35q9 0 9 -9v-458h53q8 0 8 -9v-162q0 -8 -8 -8h-34z" />
    <glyph glyph-name="uni044A" unicode="&#x44a;" horiz-adv-x="570" 
d="M152 0q-9 0 -9 8v459h-118q-8 0 -8 9v30q0 9 8 9h163q8 0 8 -9v-168h147q91 0 141.5 -46.5t50.5 -125.5q0 -85 -50.5 -125.5t-141.5 -40.5h-191zM196 46h141q145 0 145 121q0 60 -36.5 92.5t-108.5 32.5h-141v-246z" />
    <glyph glyph-name="uni044B" unicode="&#x44b;" horiz-adv-x="665" 
d="M83 0q-9 0 -9 8v498q0 9 9 9h36q8 0 8 -9v-168h148q91 0 141.5 -46.5t50.5 -125.5q0 -85 -50.5 -125.5t-141.5 -40.5h-192zM127 46h141q145 0 145 121q1 60 -36 92.5t-109 32.5h-141v-246zM547 0q-9 0 -9 8v498q0 9 9 9h36q8 0 8 -9v-498q0 -8 -8 -8h-36z" />
    <glyph glyph-name="uni044C" unicode="&#x44c;" horiz-adv-x="502" 
d="M83 0q-9 0 -9 8v498q0 9 9 9h36q8 0 8 -9v-168h148q91 0 141.5 -46.5t50.5 -125.5q0 -85 -50.5 -125.5t-141.5 -40.5h-192zM127 46h141q145 0 145 121q1 60 -36 92.5t-109 32.5h-141v-246z" />
    <glyph glyph-name="uni044D" unicode="&#x44d;" horiz-adv-x="475" 
d="M215 37q36 0 64 10.5t47.5 29t29.5 43.5t10 53v71h-240q-8 0 -8 9v27q0 8 8 8h240v53q0 28 -10 53t-29.5 43.5t-48 29t-64.5 10.5q-41 0 -76 -10.5t-70 -32.5q-6 -4 -12 2l-16 26q-5 7 2 11q41 26 83 39.5t90 13.5q47 0 85 -14.5t64.5 -39t40.5 -58.5t14 -73v-167
q0 -39 -14 -72.5t-40.5 -58.5t-64.5 -39.5t-85 -14.5q-54 0 -98 15.5t-84 45.5q-7 4 -2 12l17 25q4 7 12 2q73 -52 155 -52z" />
    <glyph glyph-name="uni044E" unicode="&#x44e;" horiz-adv-x="709" 
d="M248 338q0 39 13.5 73.5t39.5 60t64 40t86 14.5t86 -14.5t64 -40t39.5 -60t13.5 -73.5v-162q0 -39 -13.5 -73t-39.5 -59.5t-64 -40t-86 -14.5t-86 14.5t-64 40t-39.5 59.5t-13.5 73v68h-122v-236q0 -8 -8 -8h-35q-9 0 -9 8v498q0 9 9 9h35q8 0 8 -9v-214h122v46zM451 38
q37 0 65.5 11t47 29.5t28 43.5t9.5 54v162q0 29 -9.5 54.5t-28 44.5t-47 30t-65.5 11q-38 0 -66 -11t-46.5 -30t-28 -44.5t-9.5 -54.5v-162q0 -29 9.5 -54t28 -43.5t46.5 -29.5t66 -11z" />
    <glyph glyph-name="uni044F" unicode="&#x44f;" horiz-adv-x="505" 
d="M43 0q-12 0 -5 10l163 190q-74 6 -115.5 47t-41.5 109q0 81 52 120t140 39h187q8 0 8 -9v-498q0 -8 -8 -8h-36q-9 0 -9 8v188h-118l-161 -191q-5 -5 -10 -5h-46zM97 356q0 -56 35.5 -85t103.5 -29h142v227h-142q-67 0 -103 -28t-36 -85z" />
    <glyph glyph-name="uni0451" unicode="&#x451;" horiz-adv-x="513" 
d="M205 656q0 -16 -9.5 -25t-25.5 -9q-15 0 -24.5 9t-9.5 25q0 17 9.5 26t24.5 9q16 0 25.5 -9t9.5 -26zM385 656q0 -16 -9.5 -25t-24.5 -9t-25 9t-10 25q0 17 10 26t25 9t24.5 -9t9.5 -26zM464 238q0 -8 -9 -8h-345v-56q0 -33 12 -58.5t32.5 -43t48 -26.5t58.5 -9
q57 0 96 20t67 44q8 5 12 -2l18 -23q6 -6 -1 -12q-35 -30 -82 -52.5t-111 -22.5q-40 0 -76.5 12t-65 35.5t-45.5 58t-17 79.5v158q0 48 16 84.5t43.5 60.5t65 36.5t80.5 12.5q42 0 79 -12.5t64.5 -36.5t43.5 -60.5t16 -84.5v-94zM412 332q0 72 -42.5 108.5t-108.5 36.5
q-69 0 -110 -36.5t-41 -108.5v-57h302v57z" />
    <glyph glyph-name="uni0452" unicode="&#x452;" horiz-adv-x="553" 
d="M127 487q32 14 68 23t76 9q48 0 87.5 -12.5t67 -38t43 -65t15.5 -93.5v-334q0 -94 -35.5 -134.5t-98.5 -40.5q-10 0 -22 0.5t-23 2.5q-8 2 -8 9v31q0 9 9 8q11 -1 22 -1.5t18 -0.5q41 0 63 28t22 96v334q0 87 -42 125t-121 38q-38 0 -74.5 -9.5t-66.5 -24.5v-429
q0 -8 -8 -8h-36q-9 0 -9 8v588h-72q-9 0 -9 9v21q0 9 9 9h72v72q0 8 9 8h36q8 0 8 -8v-72h162q8 0 8 -9v-21q0 -9 -8 -9h-162v-109v0z" />
    <glyph glyph-name="uni0453" unicode="&#x453;" horiz-adv-x="399" 
d="M83 0q-9 0 -9 8v498q0 9 9 9h292q8 0 8 -9v-31q0 -8 -8 -8h-248v-459q0 -8 -8 -8h-36zM190 598q-5 0 -7.5 3t0.5 8l82 133q3 5 10 5h41q12 0 5 -10l-93 -133q-3 -6 -10 -6h-28z" />
    <glyph glyph-name="uni0454" unicode="&#x454;" horiz-adv-x="475" 
d="M260 37q82 0 155 52q8 5 12 -2l17 -25q5 -8 -2 -12q-40 -30 -84 -45.5t-98 -15.5q-47 0 -85 14.5t-64.5 39.5t-40.5 58.5t-14 72.5v167q0 39 14 73t40.5 58.5t64.5 39t85 14.5q48 0 90 -13.5t83 -39.5q7 -4 2 -11l-16 -26q-6 -6 -12 -2q-35 22 -70 32.5t-76 10.5
q-36 0 -64.5 -10.5t-48 -29t-29.5 -43.5t-10 -53v-53h240q8 0 8 -8v-27q0 -9 -8 -9h-240v-71q0 -28 10 -53t29.5 -43.5t47.5 -29t64 -10.5z" />
    <glyph glyph-name="uni0455" unicode="&#x455;" horiz-adv-x="467" 
d="M430 139q0 -69 -52 -109.5t-143 -40.5q-108 0 -193 65q-7 4 -3 11l17 28q5 8 12 2q38 -28 79.5 -43t88.5 -15q62 0 101 25.5t39 74.5q0 27 -12.5 44t-32.5 27.5t-45 17t-50 11.5q-29 6 -62.5 15t-61.5 26.5t-46.5 44t-18.5 66.5q0 34 15 59.5t40 42.5t58.5 26t71.5 9
q52 0 94 -13t81 -35q7 -5 3 -12l-16 -27q-4 -8 -12 -3q-32 19 -71 30t-81 11q-59 0 -95 -23t-36 -65q0 -26 12.5 -43t33 -28.5t47 -19t54.5 -13.5q32 -7 65 -15.5t59.5 -24.5t43 -41t16.5 -65z" />
    <glyph glyph-name="uni0456" unicode="&#x456;" horiz-adv-x="201" 
d="M82 0q-8 0 -8 8v498q0 9 8 9h37q8 0 8 -9v-498q0 -8 -8 -8h-37zM136 656q0 -15 -10 -25t-25 -10q-16 0 -26 10t-10 25q0 16 10 26t26 10q15 0 25 -10t10 -26z" />
    <glyph glyph-name="uni0457" unicode="&#x457;" horiz-adv-x="201" 
d="M82 0q-8 0 -8 8v498q0 9 8 9h36q9 0 9 -9v-498q0 -8 -9 -8h-36zM68 656q0 -14 -9.5 -24t-24.5 -10t-24.5 10t-9.5 24q0 15 9.5 25t24.5 10t24.5 -10t9.5 -25zM200 656q0 -14 -10 -24t-25 -10t-24 10t-9 24q0 15 9 25t24 10t25 -10t10 -25z" />
    <glyph glyph-name="uni0458" unicode="&#x458;" horiz-adv-x="209" 
d="M135 -27q0 -90 -36.5 -132t-99.5 -42q-13 0 -25.5 1t-24.5 3q-8 1 -8 10v31q0 9 8 8q12 -2 24 -3t21 -1q42 0 65 28t23 97v533q0 9 9 9h36q8 0 8 -9v-533zM145 656q0 -15 -10 -25t-26 -10q-15 0 -25.5 10t-10.5 25q0 16 10.5 26t25.5 10q16 0 26 -10t10 -26z" />
    <glyph glyph-name="uni0459" unicode="&#x459;" horiz-adv-x="842" 
d="M164 181q-8 -53 -19 -88t-28 -56.5t-40.5 -30.5t-56.5 -9q-8 0 -8 8v31q0 9 8 9q19 0 33.5 6.5t25.5 23.5t19 46t15 75q8 48 14 124t11 186q1 9 9 9h316q8 0 8 -9v-168h145q90 0 140.5 -46.5t50.5 -125.5q0 -85 -50.5 -125.5t-140.5 -40.5h-189q-9 0 -9 8v459h-229
q-5 -95 -11.5 -166.5t-13.5 -119.5zM471 46h138q145 0 145 121q0 60 -36.5 92.5t-108.5 32.5h-138v-246z" />
    <glyph glyph-name="uni045A" unicode="&#x45a;" horiz-adv-x="818" 
d="M83 0q-9 0 -9 8v498q0 9 9 9h36q8 0 8 -9v-192h275v192q0 9 9 9h36q8 0 8 -9v-193h140q90 0 140 -41.5t50 -116.5q0 -78 -50 -116.5t-140 -38.5h-184q-9 0 -9 8v258h-275v-258q0 -8 -8 -8h-36zM455 46h133q71 0 107.5 27t36.5 84q0 53 -36 81.5t-108 28.5h-133v-221z" />
    <glyph glyph-name="uni045B" unicode="&#x45b;" horiz-adv-x="553" 
d="M127 487q32 14 68 23t75 9q48 0 87.5 -12.5t67.5 -38t43.5 -65t15.5 -93.5v-302q0 -8 -8 -8h-37q-8 0 -8 8v300q0 87 -42.5 125t-120.5 38q-39 0 -75 -9.5t-66 -24.5v-429q0 -8 -8 -8h-37q-8 0 -8 8v588h-73q-8 0 -8 9v22q0 8 8 8h73v72q0 8 8 8h37q8 0 8 -8v-72h162
q8 0 8 -8v-22q0 -9 -8 -9h-162v-109v0z" />
    <glyph glyph-name="uni045C" unicode="&#x45c;" horiz-adv-x="488" 
d="M427 0q-8 0 -10 5l-216 244l-75 -70v-171q0 -8 -8 -8h-35q-9 0 -9 8v498q0 9 9 9h35q8 0 8 -9v-262l277 267q3 4 11 4h45q5 0 6.5 -3t-2.5 -7l-226 -219l240 -276q7 -10 -5 -10h-45zM216 598q-5 0 -7.5 3t0.5 8l82 133q3 5 10 5h41q12 0 5 -10l-93 -133q-3 -6 -10 -6h-28
z" />
    <glyph glyph-name="uni045D" unicode="&#x45d;" horiz-adv-x="561" 
d="M83 0q-9 0 -9 8v498q0 9 9 9h36q8 0 8 -9v-324v-52.5t-1 -53.5h1q6 11 15.5 26.5t20 32t20.5 32t17 26.5l225 317q5 5 11 5h43q8 0 8 -9v-498q0 -8 -8 -8h-36q-9 0 -9 8v310q0 26 0.5 58t0.5 59q-6 -10 -15.5 -24.5t-19 -30.5t-19.5 -31l-18 -27l-226 -317q-3 -5 -10 -5
h-44zM316.001 601q4.99902 0 7.49902 3t-0.5 8l-81.9951 133q-2.99902 5 -9.99902 5h-40.9971q-12 0 -5 -10l92.9941 -133q3 -6 9.99902 -6h27.999z" />
    <glyph glyph-name="uni045E" unicode="&#x45e;" horiz-adv-x="545" 
d="M422 724q-7 -60 -45 -98t-104 -38q-65 0 -103 38t-45 97q-1 8 7 10l26 3q7 1 10 -7q7 -45 32.5 -72t72.5 -27t73 27t33 72q1 8 10 7l25 -3q10 0 8 -9zM418 506q0 9 9 9h36q8 0 8 -9v-509q0 -45 -12 -81t-36.5 -62t-62 -40t-89.5 -14q-60 0 -105.5 20t-83.5 54q-6 6 -1 12
l19 26q5 7 11 1q32 -26 70.5 -45t89.5 -20q76 1 112.5 39.5t35.5 112.5v49q-31 -14 -67 -22.5t-74 -8.5q-44 0 -82 12t-66 36t-44.5 60.5t-16.5 86.5v293q0 9 8 9h36q9 0 9 -9v-291q0 -39 12 -67t33.5 -46t51 -26.5t65.5 -8.5q38 0 71.5 8.5t62.5 24.5v406z" />
    <glyph glyph-name="uni045F" unicode="&#x45f;" horiz-adv-x="541" 
d="M458 515q9 0 9 -9v-498q0 -8 -9 -8h-163v-123q0 -8 -9 -8h-32q-8 0 -8 8v123h-164q-8 0 -8 8v498q0 9 8 9h36q9 0 9 -9v-458h287v458q0 9 8 9h36z" />
    <glyph glyph-name="uni0490" unicode="&#x490;" horiz-adv-x="483" 
d="M103 0q-9 0 -9 8v699q0 8 9 8h316v139q0 9 8 9h36q8 0 8 -9v-182q0 -8 -8 -8h-313v-656q0 -8 -9 -8h-38z" />
    <glyph glyph-name="uni0491" unicode="&#x491;" horiz-adv-x="399" 
d="M334 624q0 9 9 9h32q8 0 8 -9v-149q0 -8 -8 -8h-248v-459q0 -8 -8 -8h-36q-9 0 -9 8v498q0 9 9 9h251v109z" />
    <glyph glyph-name="Wgrave" unicode="&#x1e80;" horiz-adv-x="941" 
d="M224 0q-7 0 -9 7l-200 698q-3 10 7 10h42q7 0 8 -7l121 -432q14 -52 27.5 -104t26.5 -104h1q15 51 31 106.5t32 107.5l130 413q2 8 9 8h41q7 0 9 -8l130 -413q16 -52 32 -107t31 -107h1q13 52 26.5 104t27.5 104l121 432q1 7 9 7h41q10 0 7 -10l-200 -698q-2 -7 -8 -7
h-47q-6 0 -9 7l-131 416q-16 51 -32 104.5t-28 100.5h-1q-13 -49 -27.5 -100t-31.5 -105l-132 -416q-4 -7 -9 -7h-46zM344 926q-8 10 5 10h45q6 0 10 -5l106 -133q3 -5 1.5 -8t-6.5 -3h-32q-6 0 -11 5z" />
    <glyph glyph-name="wgrave" unicode="&#x1e81;" horiz-adv-x="746" 
d="M184 0q-6 0 -9 7l-155 498q-2 10 7 10h38q8 0 9 -7l99 -322q10 -31 17.5 -61.5t15.5 -61.5h1q8 29 16 58.5t16 55.5l105 321q2 7 9 7h41q7 0 9 -7l105 -321q8 -26 16 -55.5t16 -58.5h1q3 11 7.5 27t9 33.5t9 34t7.5 28.5l99 322q1 7 9 7h38q9 0 6 -10l-154 -498
q-4 -7 -9 -7h-45q-6 0 -9 7l-112 348q-6 19 -11.5 40.5t-11.5 42.5h-1q-6 -21 -11.5 -42.5t-11.5 -40.5l-113 -348q-2 -7 -8 -7h-45v0zM404.001 598q4.99902 0 7.49902 3t-0.5 8l-81.9951 133q-2.99902 5 -9.99902 5h-40.9971q-12 0 -5 -10l92.9941 -133q3 -6 9.99902 -6
h27.999z" />
    <glyph glyph-name="Wacute" unicode="&#x1e82;" horiz-adv-x="941" 
d="M224 0q-7 0 -9 7l-200 698q-3 10 7 10h42q7 0 8 -7l121 -432q14 -52 27.5 -104t26.5 -104h1q15 51 31 106.5t32 107.5l130 413q2 8 9 8h41q7 0 9 -8l130 -413q16 -52 32 -107t31 -107h1q13 52 26.5 104t27.5 104l121 432q1 7 9 7h41q10 0 7 -10l-200 -698q-2 -7 -8 -7
h-47q-6 0 -9 7l-131 416q-16 51 -32 104.5t-28 100.5h-1q-13 -49 -27.5 -100t-31.5 -105l-132 -416q-4 -7 -9 -7h-46zM478 792q-5 -5 -11 -5h-32q-5 0 -6.5 3t1.5 8l106 133q4 5 10 5h45q13 0 5 -10z" />
    <glyph glyph-name="wacute" unicode="&#x1e83;" horiz-adv-x="746" 
d="M184 0q-6 0 -9 7l-155 498q-2 10 7 10h38q8 0 9 -7l99 -322q10 -31 17.5 -61.5t15.5 -61.5h1q8 29 16 58.5t16 55.5l105 321q2 7 9 7h41q7 0 9 -7l105 -321q8 -26 16 -55.5t16 -58.5h1q3 11 7.5 27t9 33.5t9 34t7.5 28.5l99 322q1 7 9 7h38q9 0 6 -10l-154 -498
q-4 -7 -9 -7h-45q-6 0 -9 7l-112 348q-6 19 -11.5 40.5t-11.5 42.5h-1q-6 -21 -11.5 -42.5t-11.5 -40.5l-113 -348q-2 -7 -8 -7h-45v0zM327 598q-5 0 -7.5 3t0.5 8l82 133q3 5 10 5h41q12 0 5 -10l-93 -133q-3 -6 -10 -6h-28z" />
    <glyph glyph-name="Wdieresis" unicode="&#x1e84;" horiz-adv-x="941" 
d="M224 0q-7 0 -9 7l-200 698q-3 10 7 10h41q8 0 9 -7l120 -432q14 -52 27.5 -104t27.5 -104h1q15 51 31 106.5t32 107.5l130 413q2 8 9 8h41q7 0 9 -8l130 -413q16 -52 32 -107t31 -107h1q14 52 27.5 104t27.5 104l120 432q3 7 9 7h41q10 0 7 -10l-200 -698q-2 -7 -8 -7
h-47q-6 0 -9 7l-131 416q-16 51 -32 104.5t-28 100.5h-1q-13 -49 -27.5 -100t-31.5 -105l-132 -416q-4 -7 -9 -7h-46zM394 863q0 -16 -10 -25.5t-26 -9.5t-25.5 9.5t-9.5 25.5t9.5 26t25.5 10t26 -10t10 -26zM619 863q0 -16 -10 -25.5t-26 -9.5t-26 9.5t-10 25.5t10 26
t26 10t26 -10t10 -26z" />
    <glyph glyph-name="wdieresis" unicode="&#x1e85;" horiz-adv-x="746" 
d="M302 656q0 -16 -9.5 -25t-25.5 -9q-15 0 -25 9t-10 25q0 17 10 26t25 9q16 0 25.5 -9t9.5 -26zM515 656q0 -16 -10 -25t-25 -9t-25 9t-10 25q0 17 10 26t25 9t25 -9t10 -26zM184 0q-6 0 -9 7l-155 498q-2 10 7 10h38q8 0 9 -7l99 -322q10 -31 17.5 -61.5t15.5 -61.5h1
q8 29 16 58.5t16 55.5l105 321q2 7 9 7h41q7 0 9 -7l105 -321q8 -26 16 -55.5t16 -58.5h1q3 11 7.5 27t9 33.5t9 34t7.5 28.5l99 322q1 7 9 7h38q9 0 6 -10l-154 -498q-4 -7 -9 -7h-45q-6 0 -9 7l-112 348q-6 19 -11.5 40.5t-11.5 42.5h-1q-6 -21 -11.5 -42.5t-11.5 -40.5
l-113 -348q-2 -7 -8 -7h-45v0z" />
    <glyph glyph-name="Ygrave" unicode="&#x1ef2;" horiz-adv-x="550" 
d="M256 0q-9 0 -9 8v270l-238 427q-5 10 6 10h44q7 0 10 -6l206 -379l206 379q3 6 10 6h44q11 0 6 -10l-238 -427v-270q0 -8 -9 -8h-38zM155 926q-8 10 5 10h45q6 0 10 -5l106 -133q3 -5 1.5 -8t-6.5 -3h-32q-6 0 -11 5z" />
    <glyph glyph-name="ygrave" unicode="&#x1ef3;" horiz-adv-x="545" 
d="M418 506q0 9 9 9h36q8 0 8 -9v-509q0 -45 -12 -81t-36.5 -62t-62 -40t-89.5 -14q-60 0 -105.5 20t-83.5 54q-6 6 -1 12l19 26q5 7 11 1q32 -26 70.5 -45t89.5 -20q76 1 112.5 39.5t35.5 112.5v49q-31 -14 -67 -22.5t-74 -8.5q-44 0 -82 12t-66 36t-44.5 60.5t-16.5 86.5
v293q0 9 8 9h36q9 0 9 -9v-291q0 -39 12 -67t33.5 -46t51 -26.5t65.5 -8.5q38 0 71.5 8.5t62.5 24.5v406zM306.001 598q4.99902 0 7.49902 3t-0.5 8l-81.9951 133q-2.99902 5 -9.99902 5h-40.9971q-12 0 -5 -10l92.9941 -133q3 -6 9.99902 -6h27.999z" />
    <glyph glyph-name="endash" unicode="&#x2013;" horiz-adv-x="589" 
d="M518 288q0 -8 -9 -8h-429q-9 0 -9 8v33q0 8 9 8h429q9 0 9 -8v-33z" />
    <glyph glyph-name="emdash" unicode="&#x2014;" horiz-adv-x="945" 
d="M874 288q0 -8 -8 -8h-787q-8 0 -8 8v33q0 8 8 8h787q8 0 8 -8v-33z" />
    <glyph glyph-name="quoteleft" unicode="&#x2018;" horiz-adv-x="197" 
d="M109 708q3 7 9 7h30q10 0 7 -10l-48 -180q-4 -7 -9 -7h-41q-10 0 -7 10z" />
    <glyph glyph-name="quoteright" unicode="&#x2019;" horiz-adv-x="195" 
d="M98 525q-2 -7 -9 -7h-29q-10 0 -8 10l48 180q3 7 9 7h41q10 0 7 -10z" />
    <glyph glyph-name="quotesinglbase" unicode="&#x201a;" horiz-adv-x="190" 
d="M71 -105q-2 -6 -9 -6h-30q-10 0 -7 9l48 180q2 7 9 7h40q10 0 7 -10z" />
    <glyph glyph-name="quotedblleft" unicode="&#x201c;" horiz-adv-x="320" 
d="M57 518q-9 0 -7 10l59 180q3 7 10 7h29q10 0 8 -10l-49 -180q-2 -7 -9 -7h-41zM180 518q-10 0 -7 10l59 180q2 7 9 7h30q10 0 7 -10l-48 -180q-4 -7 -9 -7h-41z" />
    <glyph glyph-name="quotedblright" unicode="&#x201d;" horiz-adv-x="317" 
d="M60 518q-11 0 -8 10l48 180q1 7 9 7h40q10 0 7 -10l-58 -180q-2 -7 -9 -7h-29zM182 518q-10 0 -8 10l48 180q3 7 9 7h41q10 0 7 -10l-58 -180q-4 -7 -9 -7h-30z" />
    <glyph glyph-name="quotedblbase" unicode="&#x201e;" horiz-adv-x="313" 
d="M32 -111q-10 0 -7 10l48 180q2 7 8 7h41q10 0 7 -10l-58 -180q-4 -7 -9 -7h-30zM155 -111q-11 0 -8 10l48 180q3 7 9 7h41q10 0 7 -10l-59 -180q-2 -7 -9 -7h-29z" />
    <glyph glyph-name="dagger" unicode="&#x2020;" horiz-adv-x="557" 
d="M260 -139q-8 0 -8 8v593h-191q-8 0 -8 9v32q0 9 8 9h191v225q0 8 8 8h37q8 0 8 -8v-225h191q8 0 8 -9v-32q0 -9 -8 -9h-191v-593q0 -8 -8 -8h-37z" />
    <glyph glyph-name="daggerdbl" unicode="&#x2021;" horiz-adv-x="557" 
d="M260 -139q-8 0 -8 8v233h-191q-8 0 -8 8v33q0 8 8 8h191v311h-191q-8 0 -8 9v32q0 9 8 9h191v225q0 8 8 8h37q8 0 8 -8v-225h191q8 0 8 -9v-32q0 -9 -8 -9h-191v-311h191q8 0 8 -8v-33q0 -8 -8 -8h-191v-233q0 -8 -8 -8h-37z" />
    <glyph glyph-name="bullet" unicode="&#x2022;" horiz-adv-x="323" 
d="M162 249q-30 0 -49 19t-19 49q0 31 19 49.5t49 18.5q29 0 48 -18.5t19 -49.5q0 -30 -19 -49t-48 -19z" />
    <glyph glyph-name="ellipsis" unicode="&#x2026;" horiz-adv-x="556" 
d="M133 36q0 -17 -10.5 -28t-27.5 -11t-28 11t-11 28t11 28t28 11t27.5 -11t10.5 -28zM317 36q0 -17 -11 -28t-28 -11t-27.5 11t-10.5 28t10.5 28t27.5 11t28 -11t11 -28zM500 36q0 -17 -11 -28t-28 -11t-27.5 11t-10.5 28t10.5 28t27.5 11t28 -11t11 -28z" />
    <glyph glyph-name="perthousand" unicode="&#x2030;" horiz-adv-x="1067" 
d="M1021 108q0 -27 -10 -48.5t-26.5 -37t-39.5 -23.5t-48 -8t-47.5 8t-39 23.5t-26.5 37t-10 48.5v133q0 57 36 88t87 31q52 0 88 -31t36 -88v-133zM815 110q0 -37 23.5 -58.5t58.5 -21.5t59 21.5t24 58.5v128q0 39 -23.5 61.5t-59.5 22.5q-35 0 -58.5 -22.5t-23.5 -61.5
v-128zM300 467q0 -27 -10 -48.5t-26.5 -37t-39.5 -23.5t-48 -8t-47.5 8t-39 23.5t-26.5 37t-10 48.5v133q0 57 36 88t87 31q52 0 88 -31t36 -88v-133zM106 0q-5 0 -6.5 3t0.5 7l489 693q2 5 10 5h32q5 0 6.5 -3t-0.5 -7l-489 -693q-3 -5 -10 -5h-32zM94 469
q0 -37 23.5 -58.5t58.5 -21.5t59 21.5t24 58.5v128q0 39 -23.5 61.5t-59.5 22.5q-35 0 -58.5 -22.5t-23.5 -61.5v-128zM701 108q0 -27 -10 -48.5t-26.5 -37t-39 -23.5t-47.5 -8t-47.5 8t-39 23.5t-26.5 37t-10 48.5v133q0 57 36 88t87 31q52 0 87.5 -31t35.5 -88v-133z
M496 110q0 -37 23.5 -58.5t58.5 -21.5t59 21.5t24 58.5v128q0 39 -24 61.5t-59 22.5t-58.5 -22.5t-23.5 -61.5v-128z" />
    <glyph glyph-name="guilsinglleft" unicode="&#x2039;" horiz-adv-x="285" 
d="M192 71q-2 0 -5 1t-5 4l-141 209q-3 6 0 12l141 209q2 3 5 4t5 1h40q5 0 6.5 -3t-1.5 -7l-142 -210l142 -210q3 -4 1.5 -7t-6.5 -3h-40z" />
    <glyph glyph-name="guilsinglright" unicode="&#x203a;" horiz-adv-x="285" 
d="M53 71q-5 0 -6.5 3t1.5 7l142 210l-142 210q-3 4 -1.5 7t6.5 3h40q2 0 5 -1t5 -4l141 -209q3 -6 0 -12l-141 -209q-2 -3 -5 -4t-5 -1h-40z" />
    <glyph glyph-name="fraction" unicode="&#x2044;" horiz-adv-x="175" 
d="M-170 5q-3 -5 -10 -5h-25q-5 0 -6.5 3t1.5 7l556 700q3 5 10 5h25q5 0 6.5 -3t-1.5 -7z" />
    <glyph glyph-name="zero.sups" unicode="&#x2070;" horiz-adv-x="347" 
d="M303 528q0 -29 -10.5 -51.5t-28 -38.5t-41 -24.5t-50.5 -8.5q-26 0 -49.5 8.5t-41 24.5t-28 38.5t-10.5 51.5v148q0 30 10 54t27.5 40t41 24.5t50.5 8.5t50.5 -8.5t41 -24.5t28 -40t10.5 -54v-148zM82 530q0 -42 26.5 -65t64.5 -23t65 23t27 65v145q0 45 -26.5 68
t-65.5 23t-65 -23t-26 -68v-145z" />
    <glyph glyph-name="four.sups" unicode="&#x2074;" horiz-adv-x="315" 
d="M221 410q-8 0 -8 8v85h-182q-8 0 -8 8v13q0 4 3 10l145 258q3 6 9 6h22q13 0 6 -10l-138 -248h143v84q0 9 8 9h21q9 0 9 -9v-84h32q8 0 8 -8v-21q0 -8 -8 -8h-32v-85q0 -8 -9 -8h-21z" />
    <glyph glyph-name="five.sups" unicode="&#x2075;" horiz-adv-x="328" 
d="M294 538q0 -64 -35 -98.5t-93 -34.5q-45 0 -73 15.5t-51 44.5q-4 7 3 12l11 14q7 5 12 -2q19 -23 41.5 -35t55.5 -12q43 0 66.5 25t24.5 72q0 48 -24.5 70t-64.5 22q-29 0 -50 -10.5t-38 -30.5q-5 -5 -11 -3l-17 5q-7 3 -7 10l6 188q0 8 9 8h208q9 0 9 -8v-20q0 -9 -9 -9
h-184l-4 -133q37 39 92 39q51 0 87 -32t36 -97z" />
    <glyph glyph-name="six.sups" unicode="&#x2076;" horiz-adv-x="331" 
d="M297 536q0 -60 -34 -95.5t-89 -35.5q-58 0 -94 35t-36 97v147q0 57 35.5 88t91.5 31q34 0 60.5 -12t48.5 -31q6 -4 1 -11l-11 -15q-5 -6 -12 -1q-17 14 -38 24t-48 10q-43 0 -66.5 -22.5t-23.5 -61.5v-73q12 21 36.5 34.5t56.5 13.5q53 0 87.5 -31t34.5 -91zM82 537
q0 -45 25.5 -70t64.5 -25q41 0 64 25.5t23 68.5t-23 65t-64 22q-40 0 -65 -23.5t-25 -62.5z" />
    <glyph glyph-name="seven.sups" unicode="&#x2077;" horiz-adv-x="295" 
d="M69 410q-10 0 -6 10l164 341h-197q-8 0 -8 8v21q0 8 8 8h235q9 0 9 -8v-14q0 -2 -2 -10l-169 -350q-2 -6 -9 -6h-25z" />
    <glyph glyph-name="eight.sups" unicode="&#x2078;" horiz-adv-x="341" 
d="M304 520q0 -51 -37 -83t-96 -32t-96 32t-37 83q0 31 18 57t54 37q-32 11 -47.5 34.5t-15.5 53.5q0 45 34 73t90 28q55 0 89 -28t34 -73q0 -30 -15.5 -53.5t-46.5 -34.5q36 -11 54 -37t18 -57zM85 701q0 -29 21 -49.5t65 -20.5t65 20.5t21 49.5q0 32 -25 49t-61 17
t-61 -17t-25 -49zM76 521q0 -32 25 -55.5t70 -23.5q44 0 69 23.5t25 55.5t-25 52.5t-69 20.5q-45 0 -70 -20.5t-25 -52.5z" />
    <glyph glyph-name="nine.sups" unicode="&#x2079;" horiz-adv-x="334" 
d="M36 677q0 57 33.5 91.5t90.5 34.5q58 0 94 -34.5t36 -94.5v-150q0 -57 -35.5 -88t-91.5 -31q-36 0 -65 15.5t-51 38.5q-6 6 -1 12l12 15q6 7 12 1q17 -20 40.5 -32.5t52.5 -12.5q42 0 65.5 22t23.5 61v76q-12 -23 -37.5 -37t-57.5 -14q-52 0 -86.5 32t-34.5 95zM252 674
q0 44 -25.5 68.5t-65.5 24.5t-63.5 -24t-23.5 -66q0 -45 23 -68.5t64 -23.5t66 24.5t25 64.5z" />
    <glyph glyph-name="zero.sinf" unicode="&#x2080;" horiz-adv-x="347" 
d="M303 18q0 -29 -10.5 -51.5t-28 -38.5t-41 -24.5t-50.5 -8.5q-26 0 -49.5 8.5t-41 24.5t-28 38.5t-10.5 51.5v148q0 30 10 54t27.5 40t41 24.5t50.5 8.5t50.5 -8.5t41 -24.5t28 -40t10.5 -54v-148zM82 20q0 -42 26.5 -65t64.5 -23t65 23t27 65v145q0 45 -26.5 68t-65.5 23
t-65 -23t-26 -68v-145z" />
    <glyph glyph-name="one.sinf" unicode="&#x2081;" horiz-adv-x="202" 
d="M115 -100q-8 0 -8 8v336l-65 -45q-7 -7 -12 2l-10 14q-4 7 3 11l83 59q4 3 10 3h21q8 0 8 -8v-372q0 -8 -8 -8h-22z" />
    <glyph glyph-name="two.sinf" unicode="&#x2082;" horiz-adv-x="313" 
d="M38 -100q-9 0 -9 8v17q0 7 4 11l94 95q48 51 77 88.5t29 75.5q0 28 -20 44.5t-57 16.5q-32 0 -54.5 -14t-39.5 -31q-6 -6 -12 0l-11 15q-4 7 0 12q19 20 48.5 37.5t69.5 17.5q57 0 85.5 -29t28.5 -68q0 -47 -31 -90.5t-89 -101.5l-65 -67h186q8 0 8 -8v-21q0 -8 -8 -8
h-234z" />
    <glyph glyph-name="three.sinf" unicode="&#x2083;" horiz-adv-x="316" 
d="M281 20q0 -27 -9.5 -49.5t-26 -39.5t-39 -26.5t-49.5 -9.5q-43 0 -74 16.5t-54 42.5q-5 7 -1 12l13 14q5 5 11 0q43 -48 104 -48q39 0 63.5 26t24.5 66q0 33 -22 57t-67 24q-21 0 -36 -3q-9 0 -10 5l-4 9q-3 7 2 12l84 94q7 8 14.5 15.5t13.5 15.5h-167q-8 0 -8 8v19
q0 8 8 8h214q8 0 8 -8v-11q0 -5 -5 -10l-115 -128q5 1 9.5 1h9.5q50 0 79 -32t29 -80z" />
    <glyph glyph-name="four.sinf" unicode="&#x2084;" horiz-adv-x="315" 
d="M221 -100q-8 0 -8 8v85h-182q-8 0 -8 8v13q0 4 3 10l145 258q3 6 9 6h22q13 0 6 -10l-138 -248h143v84q0 9 8 9h21q9 0 9 -9v-84h32q8 0 8 -8v-21q0 -8 -8 -8h-32v-85q0 -8 -9 -8h-21z" />
    <glyph glyph-name="five.sinf" unicode="&#x2085;" horiz-adv-x="328" 
d="M294 28q0 -64 -35 -98.5t-93 -34.5q-45 0 -73 15.5t-51 44.5q-4 7 3 12l11 14q7 5 12 -2q19 -23 41.5 -35t55.5 -12q43 0 66.5 25t24.5 72q0 48 -24.5 70t-64.5 22q-29 0 -50 -10.5t-38 -30.5q-5 -5 -11 -3l-17 5q-7 3 -7 10l6 188q0 8 9 8h208q9 0 9 -8v-20q0 -9 -9 -9
h-184l-4 -133q37 39 92 39q51 0 87 -32t36 -97z" />
    <glyph glyph-name="six.sinf" unicode="&#x2086;" horiz-adv-x="331" 
d="M297 26q0 -60 -34 -95.5t-89 -35.5q-58 0 -94 35t-36 97v147q0 57 35.5 88t91.5 31q34 0 60.5 -12t48.5 -31q6 -4 1 -11l-11 -15q-5 -6 -12 -1q-17 14 -38 24t-48 10q-43 0 -66.5 -22.5t-23.5 -61.5v-73q12 21 36.5 34.5t56.5 13.5q53 0 87.5 -31t34.5 -91zM82 27
q0 -45 25.5 -70t64.5 -25q41 0 64 25.5t23 68.5t-23 65t-64 22q-40 0 -65 -23.5t-25 -62.5z" />
    <glyph glyph-name="seven.sinf" unicode="&#x2087;" horiz-adv-x="295" 
d="M69 -100q-10 0 -6 10l164 341h-197q-8 0 -8 8v21q0 8 8 8h235q9 0 9 -8v-14q0 -2 -2 -10l-169 -350q-2 -6 -9 -6h-25z" />
    <glyph glyph-name="eight.sinf" unicode="&#x2088;" horiz-adv-x="341" 
d="M304 10q0 -51 -37 -83t-96 -32t-96 32t-37 83q0 31 18 57t54 37q-32 11 -47.5 34.5t-15.5 53.5q0 45 34 73t90 28q55 0 89 -28t34 -73q0 -30 -15.5 -53.5t-46.5 -34.5q36 -11 54 -37t18 -57zM85 191q0 -29 21 -49.5t65 -20.5t65 20.5t21 49.5q0 32 -25 49t-61 17t-61 -17
t-25 -49zM76 11q0 -32 25 -55.5t70 -23.5q44 0 69 23.5t25 55.5t-25 52.5t-69 20.5q-45 0 -70 -20.5t-25 -52.5z" />
    <glyph glyph-name="nine.sinf" unicode="&#x2089;" horiz-adv-x="334" 
d="M35 166q0 58 34 92.5t90 34.5q58 0 94 -34.5t36 -95.5v-149q0 -57 -35.5 -88t-90.5 -31q-35 0 -63 12t-51 31q-5 5 0 11l11 15q5 6 12 1q18 -14 39.5 -24t50.5 -10q42 0 65.5 22.5t23.5 61.5v75q-13 -22 -37.5 -36t-56.5 -14q-52 0 -87 31.5t-35 94.5zM251 163
q0 45 -25.5 69t-65.5 24t-63.5 -24.5t-23.5 -65.5q0 -45 23.5 -68t64.5 -23q40 0 65 24t25 64z" />
    <glyph glyph-name="Euro" unicode="&#x20ac;" horiz-adv-x="639" 
d="M349 41q57 0 110 18t98 53q7 4 12 -2l20 -28q5 -8 -2 -12q-51 -42 -112 -61.5t-124 -19.5q-56 0 -102 16.5t-78.5 48t-50.5 76t-18 100.5v37h-48q-9 0 -9 9v25q0 9 9 9h48v95h-48q-9 0 -9 8v26q0 8 9 8h48v37q0 56 18 101t50 76.5t77.5 48t100.5 16.5q61 0 120 -18.5
t110 -54.5q4 -2 4 -5t-2 -7l-20 -28q-5 -6 -12 -2q-44 32 -96 47.5t-105 15.5q-93 0 -141 -53t-48 -137v-37h284q8 0 8 -8v-26q0 -8 -8 -8h-284v-95h284q8 0 8 -9v-25q0 -9 -8 -9h-284v-37q0 -42 12.5 -76.5t36.5 -59.5t59.5 -39t82.5 -14z" />
    <glyph glyph-name="uni20BD" unicode="&#x20bd;" horiz-adv-x="628" 
d="M588 490q0 -105 -62.5 -162.5t-180.5 -57.5h-176v-91h186q9 0 9 -9v-27q0 -8 -9 -8h-186v-127q0 -8 -8 -8h-36q-8 0 -8 8v127h-72q-8 0 -8 8v27q0 9 8 9h72v528q0 8 8 8h220q118 0 180.5 -59.5t62.5 -165.5zM535 492q0 86 -49 130.5t-147 44.5h-170v-349h170q98 0 147 44
t49 130z" />
    <glyph glyph-name="uni2113" unicode="&#x2113;" horiz-adv-x="375" 
d="M338 48q-26 -26 -54.5 -41.5t-64.5 -15.5q-66 0 -99.5 46t-33.5 124v77l-18 -10t-18 -9q-10 -5 -10 6v30q0 7 7 10l39 23v254q0 97 35.5 140.5t91.5 43.5q60 0 93 -44.5t33 -123.5q0 -95 -54 -165t-153 -130v-99q0 -65 24.5 -96t62.5 -31q26 0 48.5 13t42.5 35q6 6 12 -1
l17 -23q4 -7 -1 -13zM132 315q38 25 67.5 50.5t50 54t31.5 61.5t11 72q0 59 -19 93.5t-60 34.5q-39 0 -60 -34.5t-21 -104.5v-227z" />
    <glyph glyph-name="uni2116" unicode="&#x2116;" horiz-adv-x="1100" 
d="M1040 458q0 -34 -11.5 -63t-33 -50t-53.5 -33t-73 -12t-73 12t-54 33t-33.5 50t-11.5 63v108q0 34 11.5 63t33.5 50.5t54 34t73 12.5t73 -12.5t53.5 -34t33 -50.5t11.5 -63v-108zM101 0q-8 0 -8 8v699q0 8 8 8h44q7 0 10 -6l287 -449q28 -43 56 -87.5t55 -88.5l1 2
q-2 66 -2.5 134.5t-0.5 133.5v353q0 8 9 8h38q8 0 8 -8v-699q0 -8 -8 -8h-44q-6 0 -11 5l-288 445q-27 42 -55.5 87.5t-54.5 88.5l-1 -2q2 -61 2.5 -125t0.5 -124v-367q0 -8 -8 -8h-38zM745 458q0 -48 31 -80.5t93 -32.5t92.5 32.5t30.5 80.5v108q0 49 -30.5 82t-92.5 33
t-93 -33t-31 -82v-108zM722 200q-9 0 -9 8v30q0 8 9 8h297q8 0 8 -8v-30q0 -8 -8 -8h-297z" />
    <glyph glyph-name="trademark" unicode="&#x2122;" horiz-adv-x="638" 
d="M300 415q-5 0 -5 6v288q0 6 5 6h22q6 0 7 -5l98 -198l96 198q1 5 7 5h22q6 0 6 -6v-288q0 -6 -6 -6h-17q-6 0 -6 6v158l1 85l-28 -60l-61 -121q-3 -5 -7 -5h-14q-5 0 -8 5l-62 123l-27 58h-1l1 -83v-160q0 -6 -5 -6h-18zM135 415q-6 0 -6 6v266h-88q-6 0 -6 6v16q0 6 6 6
h206q6 0 6 -6v-16q0 -6 -6 -6h-88v-266q0 -6 -6 -6h-18z" />
    <glyph glyph-name="estimated" unicode="&#x212e;" horiz-adv-x="858" 
d="M229 141q18 -19 41.5 -34.5t51 -26.5t56.5 -17t57 -6q33 0 68 4.5t68 16.5t62 32.5t50 53.5q1 3 6 3h78q7 0 3 -6q-29 -45 -68 -77.5t-83.5 -53.5t-92 -31t-92.5 -10q-78 0 -147.5 28t-121 76.5t-81.5 113.5t-30 139q0 78 30 147.5t81.5 121t121 81.5t147.5 30
q79 0 148.5 -30t121 -81.5t81.5 -121t30 -147.5v-31q0 -5 -5 -5h-581v-169zM641 582q-39 33 -89 55t-117 22q-63 0 -116 -24.5t-90 -60.5v-193h412v201z" />
    <glyph glyph-name="onethird" unicode="&#x2153;" horiz-adv-x="846" 
d="M115 5q-3 -5 -10 -5h-25q-5 0 -6.5 3t1.5 7l556 700q3 5 10 5h25q5 0 6.5 -3t-1.5 -7zM798 120q0 -27 -9.5 -49.5t-26 -39.5t-39 -26.5t-49.5 -9.5q-43 0 -74 16.5t-54 42.5q-5 7 -1 12l13 14q5 5 11 0q43 -48 104 -48q39 0 63.5 26t24.5 66q0 33 -22 57t-67 24
q-21 0 -36 -3q-9 0 -10 5l-4 9q-3 7 2 12l84 94q7 8 14.5 15.5t13.5 15.5h-167q-8 0 -8 8v19q0 8 8 8h214q8 0 8 -8v-11q0 -5 -5 -10l-115 -128q5 1 9.5 1h9.5q50 0 79 -32t29 -80zM130 327q-8 0 -8 8v336l-65 -45q-7 -7 -12 2l-10 14q-4 7 3 11l83 59q4 3 10 3h21q8 0 8 -8
v-372q0 -8 -8 -8h-22z" />
    <glyph glyph-name="twothirds" unicode="&#x2154;" horiz-adv-x="908" 
d="M192 5q-3 -5 -10 -5h-25q-5 0 -6.5 3t1.5 7l556 700q3 5 10 5h25q5 0 6.5 -3t-1.5 -7zM858 120q0 -27 -9.5 -49.5t-26 -39.5t-39 -26.5t-49.5 -9.5q-43 0 -74 16.5t-54 42.5q-5 7 -1 12l13 14q5 5 11 0q43 -48 104 -48q39 0 63.5 26t24.5 66q0 33 -22 57t-67 24
q-21 0 -36 -3q-9 0 -10 5l-4 9q-3 7 2 12l84 94q7 8 14.5 15.5t13.5 15.5h-167q-8 0 -8 8v19q0 8 8 8h214q8 0 8 -8v-11q0 -5 -5 -10l-115 -128q5 1 9.5 1h9.5q50 0 79 -32t29 -80zM56 327q-9 0 -9 8v17q0 7 4 11l94 95q48 51 77 88.5t29 75.5q0 28 -20 44.5t-57 16.5
q-32 0 -54.5 -14t-39.5 -31q-6 -6 -12 0l-11 15q-4 7 0 12q19 20 48.5 37.5t69.5 17.5q57 0 85.5 -29t28.5 -68q0 -47 -31 -90.5t-89 -101.5l-65 -67h186q8 0 8 -8v-21q0 -8 -8 -8h-234z" />
    <glyph glyph-name="oneeighth" unicode="&#x215b;" horiz-adv-x="869" 
d="M118 5q-3 -5 -10 -5h-25q-5 0 -6.5 3t1.5 7l556 700q3 5 10 5h25q5 0 6.5 -3t-1.5 -7zM826 110q0 -51 -37 -83t-96 -32t-96 32t-37 83q0 31 18 57t54 37q-32 11 -47.5 34.5t-15.5 53.5q0 45 34 73t90 28q55 0 89 -28t34 -73q0 -30 -15.5 -53.5t-46.5 -34.5q36 -11 54 -37
t18 -57zM607 291q0 -29 21 -49.5t65 -20.5t65 20.5t21 49.5q0 32 -25 49t-61 17t-61 -17t-25 -49zM598 111q0 -32 25 -55.5t70 -23.5q44 0 69 23.5t25 55.5t-25 52.5t-69 20.5q-45 0 -70 -20.5t-25 -52.5zM129 327q-8 0 -8 8v336l-65 -45q-7 -7 -12 2l-10 14q-4 7 3 11
l83 59q4 3 10 3h21q8 0 8 -8v-372q0 -8 -8 -8h-22z" />
    <glyph glyph-name="threeeighths" unicode="&#x215c;" horiz-adv-x="915" 
d="M186 5q-3 -5 -10 -5h-25q-5 0 -6.5 3t1.5 7l556 700q3 5 10 5h25q5 0 6.5 -3t-1.5 -7zM871 110q0 -51 -37 -83t-96 -32t-96 32t-37 83q0 31 18 57t54 37q-32 11 -47.5 34.5t-15.5 53.5q0 45 34 73t90 28q55 0 89 -28t34 -73q0 -30 -15.5 -53.5t-46.5 -34.5q36 -11 54 -37
t18 -57zM652 291q0 -29 21 -49.5t65 -20.5t65 20.5t21 49.5q0 32 -25 49t-61 17t-61 -17t-25 -49zM643 111q0 -32 25 -55.5t70 -23.5q44 0 69 23.5t25 55.5t-25 52.5t-69 20.5q-45 0 -70 -20.5t-25 -52.5zM295 447q0 -27 -9.5 -49.5t-26 -39.5t-39 -26.5t-49.5 -9.5
q-43 0 -74 16.5t-54 42.5q-5 7 -1 12l13 14q5 5 11 0q43 -48 104 -48q39 0 63.5 26t24.5 66q0 33 -22 57t-67 24q-21 0 -36 -3q-9 0 -10 5l-4 9q-3 7 2 12l84 94q7 8 14.5 15.5t13.5 15.5h-167q-8 0 -8 8v19q0 8 8 8h214q8 0 8 -8v-11q0 -5 -5 -10l-115 -128q5 1 9.5 1h9.5
q50 0 79 -32t29 -80z" />
    <glyph glyph-name="fiveeighths" unicode="&#x215d;" horiz-adv-x="905" 
d="M184 5q-3 -5 -10 -5h-25q-5 0 -6.5 3t1.5 7l556 700q3 5 10 5h25q5 0 6.5 -3t-1.5 -7zM860 110q0 -51 -37 -83t-96 -32t-96 32t-37 83q0 31 18 57t54 37q-32 11 -47.5 34.5t-15.5 53.5q0 45 34 73t90 28q55 0 89 -28t34 -73q0 -30 -15.5 -53.5t-46.5 -34.5q36 -11 54 -37
t18 -57zM641 291q0 -29 21 -49.5t65 -20.5t65 20.5t21 49.5q0 32 -25 49t-61 17t-61 -17t-25 -49zM632 111q0 -32 25 -55.5t70 -23.5q44 0 69 23.5t25 55.5t-25 52.5t-69 20.5q-45 0 -70 -20.5t-25 -52.5zM306 456q0 -64 -35 -98.5t-93 -34.5q-45 0 -73 15.5t-51 44.5
q-4 7 3 12l11 14q7 5 12 -2q19 -23 41.5 -35t55.5 -12q43 0 66.5 25t24.5 72q0 48 -24.5 70t-64.5 22q-29 0 -50 -10.5t-38 -30.5q-5 -5 -11 -3l-17 5q-7 3 -7 10l6 188q0 8 9 8h208q9 0 9 -8v-20q0 -9 -9 -9h-184l-4 -133q37 39 92 39q51 0 87 -32t36 -97z" />
    <glyph glyph-name="seveneighths" unicode="&#x215e;" horiz-adv-x="831" 
d="M106 5q-3 -5 -10 -5h-25q-5 0 -6.5 3t1.5 7l556 700q3 5 10 5h25q5 0 6.5 -3t-1.5 -7zM786 110q0 -51 -37 -83t-96 -32t-96 32t-37 83q0 31 18 57t54 37q-32 11 -47.5 34.5t-15.5 53.5q0 45 34 73t90 28q55 0 89 -28t34 -73q0 -30 -15.5 -53.5t-46.5 -34.5q36 -11 54 -37
t18 -57zM567 291q0 -29 21 -49.5t65 -20.5t65 20.5t21 49.5q0 32 -25 49t-61 17t-61 -17t-25 -49zM558 111q0 -32 25 -55.5t70 -23.5q44 0 69 23.5t25 55.5t-25 52.5t-69 20.5q-45 0 -70 -20.5t-25 -52.5zM89 327q-10 0 -6 10l164 341h-197q-8 0 -8 8v21q0 8 8 8h235
q9 0 9 -8v-14q0 -2 -2 -10l-169 -350q-2 -6 -9 -6h-25z" />
    <glyph glyph-name="arrowleft" unicode="&#x2190;" horiz-adv-x="651" 
d="M587 371q8 0 8 -9v-30q0 -8 -8 -8h-469l129 -124q6 -7 1 -12l-19 -19q-7 -7 -13 0l-162 158q-4 4 -4 11v19q0 6 4 10l163 163q5 7 12 0l19 -19q6 -6 0 -12l-131 -128h470z" />
    <glyph glyph-name="arrowup" unicode="&#x2191;" horiz-adv-x="427" 
d="M396 459q4 -6 0 -12l-18 -18q-7 -7 -13 0l-129 128v-468q0 -9 -8 -9h-30q-8 0 -8 9v468l-128 -126q-6 -6 -12 0l-18 18q-6 6 0 12l161 160q5 5 11 5h18q6 0 11 -5z" />
    <glyph glyph-name="arrowright" unicode="&#x2192;" horiz-adv-x="653" 
d="M423 530q6 6 12 0l162 -159q5 -4 5 -11v-19q0 -6 -5 -11l-162 -162q-7 -7 -12 0l-19 19q-6 6 0 12l130 128h-469q-8 0 -8 9v30q0 8 8 8h468l-129 124q-5 6 0 13z" />
    <glyph glyph-name="arrowdown" unicode="&#x2193;" horiz-adv-x="427" 
d="M365 272q5 5 12 0l18 -18q6 -7 0 -13l-162 -162q-4 -4 -11 -4h-19q-6 0 -10 4l-161 161q-6 6 0 12l18 18q6 6 12 0l128 -127v469q0 8 8 8h30q8 0 8 -8v-469z" />
    <glyph glyph-name="arrowboth" unicode="&#x2194;" horiz-adv-x="769" 
d="M543 534q6 6 12 1l163 -159q4 -5 4 -11v-19q0 -7 -4 -11l-163 -162q-5 -7 -12 0l-19 18q-5 6 0 13l131 128h-540l130 -128q6 -6 0 -12l-19 -19q-6 -6 -12 0l-162 162q-5 5 -5 11v19q0 4 5 11l162 159q7 5 12 -1l19 -19q7 -5 0 -12l-129 -124h538l-129 124q-7 6 -1 12z
" />
    <glyph glyph-name="arrowupdn" unicode="&#x2195;" horiz-adv-x="475" 
d="M260 89l129 129q5 7 12 0l18 -18q6 -6 0 -13l-162 -161q-4 -5 -11 -5h-19q-6 0 -10 5l-161 160q-6 6 0 12l18 18q5 7 12 0l128 -127v545l-128 -127q-6 -6 -12 0l-18 18q-6 7 0 13l161 160q5 5 10 5h19q6 0 11 -5l163 -163q5 -5 0 -11l-19 -19q-6 -6 -12 0l-129 129v-545z
" />
    <glyph glyph-name="uni2196" unicode="&#x2196;" horiz-adv-x="512" 
d="M465 172q6 -6 0 -12l-21 -21q-5 -7 -12 0l-331 332v-183q0 -9 -9 -9h-26q-8 0 -8 9v230q0 6 4 11l13 13q5 4 11 4h228q8 0 8 -8v-26q0 -8 -8 -8h-181z" />
    <glyph glyph-name="uni2197" unicode="&#x2197;" horiz-adv-x="512" 
d="M425 546q7 0 11 -4l13 -13q5 -7 5 -11v-230q0 -8 -9 -8l-26 -1q-8 0 -8 9v183l-332 -332q-5 -7 -12 0l-20 21q-7 6 0 13l331 331h-180q-9 0 -9 8l1 26q0 8 8 8h227z" />
    <glyph glyph-name="uni2198" unicode="&#x2198;" horiz-adv-x="505" 
d="M404 395q0 8 8 8l27 -1q8 0 8 -8v-227q0 -6 -4 -11l-13 -13q-4 -4 -11 -4h-230q-8 0 -8 8l-1 26q0 9 9 9h182l-331 331q-5 6 0 12l21 21q6 8 12 0l331 -331v180z" />
    <glyph glyph-name="uni2199" unicode="&#x2199;" horiz-adv-x="505" 
d="M465 524q7 -6 0 -11l-331 -331h183q8 0 8 -9v-26q0 -8 -8 -8h-230q-7 0 -11 4l-13 13q-5 7 -5 11v228q0 8 9 8h26q9 0 9 -8v-180l330 330q6 6 13 0z" />
    <glyph glyph-name="partialdiff" unicode="&#x2202;" horiz-adv-x="523" 
d="M138 717q0 9 8 9q162 -2 239.5 -115t77.5 -335v-31q0 -120 -54.5 -187.5t-151.5 -67.5q-47 0 -85.5 18.5t-65.5 52.5t-42 81t-15 103t15.5 101.5t43 77.5t64 49.5t78.5 17.5q104 0 159 -102q-16 136 -80.5 211.5t-182.5 78.5q-8 0 -8 9v29zM102 245q0 -96 40 -151.5
t115 -55.5q76 0 114.5 53.5t38.5 153.5q0 49 -12.5 86.5t-34 62t-50 37t-59.5 12.5q-33 0 -60.5 -13t-48 -38.5t-32 -62.5t-11.5 -84z" />
    <glyph glyph-name="emptyset" unicode="&#x2205;" horiz-adv-x="630" 
d="M80 102q-5 7 -1 13l50 53q-31 33 -48 76t-17 92q0 51 20 96.5t54 79.5t80 53.5t98 19.5q44 0 83.5 -14t71.5 -40l45 47q5 7 13 1l13 -12q7 -7 1 -13l-45 -48q32 -33 50.5 -76.5t18.5 -93.5q0 -52 -20 -97.5t-54 -79.5t-79.5 -54t-97.5 -20q-46 0 -87.5 15.5t-73.5 42.5
l-49 -52q-5 -6 -12 -1zM528 336q0 42 -14.5 78t-40.5 65l-292 -308q27 -23 61.5 -35.5t73.5 -12.5q44 0 82.5 16.5t67.5 45.5t45.5 68t16.5 83zM103 336q0 -41 13.5 -76.5t38.5 -64.5l291 309q-26 21 -59 32.5t-71 11.5q-44 0 -83 -17t-68 -45.5t-45.5 -67.5t-16.5 -82z" />
    </font>
</defs>
</svg>
